<svg id="Layer_1" data-name="Layer 1" xmlns="http://www.w3.org/2000/svg" viewBox="0 0 1040 626">
  <title>Artboard 1</title>
  <g>
    <path d="M195.69,185.6,271.27,2H384.64V9.59h-9q-12.33,0-19.72,4.32-5.13,2.88-8.21,9.65-2.26,4.94-2.26,25.67V232.84q0,21.36,2.26,26.69t9.24,9.35q7,4,18.69,4h9v7.6H239.23v-7.6h9q12.32,0,19.71-4.31,5.13-2.88,8.22-9.86,2.25-4.92,2.26-25.87V26.43L171.66,280.48h-4.93L58.3,28.28V224.42q0,20.54,1,25.26a29.26,29.26,0,0,0,11.61,16.73q8.92,6.48,28,6.47v7.6H3.67v-7.6H6.54a43.59,43.59,0,0,0,17.25-3q8-3.2,12.12-8.53t6.37-15q.4-2.25.41-20.95V49.23q0-21.15-2.26-26.39T31.19,13.6q-7-4-18.69-4H3.67V2H117.44Z" style="fill: #fff"/>
    <path d="M482.94,252.14q-35.13,31-63.05,31-16.44,0-27.32-10.78t-10.88-27q0-22,18.89-39.53t82.36-46.72V139.8q0-21.77-2.37-27.42t-8.93-9.85a26.8,26.8,0,0,0-14.79-4.21q-13.35,0-22,6-5.34,3.7-5.34,8.63,0,4.3,5.75,10.68,7.8,8.82,7.8,17a22.75,22.75,0,0,1-7.49,17.15q-7.5,7.09-19.62,7.09-12.93,0-21.66-7.81t-8.73-18.28q0-14.78,11.7-28.23T430,89.9a133,133,0,0,1,43.54-7.19q27.31,0,43.23,11.6t20.64,25.16q2.88,8.63,2.88,39.64v74.55q0,13.14,1,16.53a9.9,9.9,0,0,0,3.08,5,7.34,7.34,0,0,0,4.73,1.64q5.32,0,10.88-7.59l6.16,4.92q-10.27,15.21-21.25,22.08a46,46,0,0,1-25,6.88q-16.42,0-25.67-7.7T482.94,252.14Zm0-15V172.87q-24.85,14.58-37,31.21-8,11.1-8,22.39a23.5,23.5,0,0,0,6.78,16.63q5.13,5.55,14.37,5.55Q469.39,248.65,482.94,237.15Z" style="fill: #fff"/>
    <path d="M635.87,2V185.19l44.56-43.75q13.76-13.33,17.15-19.3a23.26,23.26,0,0,0,3.39-11.5,11.46,11.46,0,0,0-4.52-9.24q-4.51-3.7-17.66-5.34v-7.6h86.05v7.6a48,48,0,0,0-21.56,5.85q-9.24,5.24-36.15,31.52l-21,20.54,45.18,66.13q27.32,40.26,32.45,45.18a27,27,0,0,0,17.67,7.81v7.39h-99.2v-7.39q6.57,0,9.55-2.47c2-1.64,3-3.42,3-5.34q0-4.71-8.63-17.45l-38-55.66-12.32,12.12v34.5q0,22,4.1,27.42t16.84,6.88v7.39H557.62v-7.39q12.11-1.23,17.25-7.81,3.5-4.51,3.49-26.49V43.69q0-21.78-4-27.11t-16.74-7V2Z" style="fill: #fff"/>
    <path d="M925,177.59H819.6q1.85,38.21,20.33,60.38Q854.11,255,874,255a38.83,38.83,0,0,0,22.38-6.88q10.07-6.88,21.57-24.75l7,4.52q-15.62,31.83-34.5,45.08t-43.75,13.24q-42.72,0-64.69-32.86-17.67-26.49-17.66-65.72,0-48.06,26-76.5t60.9-28.44q29.16,0,50.62,23.92T925,177.59Zm-50.52-13.76q0-33.06-3.6-45.39T859.65,99.75q-4.32-3.69-11.5-3.69-10.68,0-17.46,10.47-12.12,18.28-12.12,50.11v7.19Z" style="fill: #fff"/>
  </g>
  <g>
    <path d="M178.57,330.17,180.83,423h-8.42q-6-34.9-29.27-56.17T92.72,345.57q-20.94,0-33.16,11.2T47.34,382.54A31.26,31.26,0,0,0,51.65,399q6,9.66,19.1,19.1,9.65,6.78,44.56,24,48.88,24,65.93,45.39a76.82,76.82,0,0,1,16.84,48.88q0,34.9-27.21,60.07T101.76,621.6a112.09,112.09,0,0,1-24.85-2.67q-11.72-2.67-29.37-10.07-9.85-4.1-16.22-4.1-5.35,0-11.3,4.1t-9.65,12.53H2.77V516.24h7.6q9,44.35,34.81,67.67t55.55,23.31q23,0,36.66-12.53t13.66-29.16a38.27,38.27,0,0,0-5.24-19.1q-5.24-9.24-15.91-17.56T92.11,507.2q-38-18.68-54.63-31.83T11.91,446A72.77,72.77,0,0,1,3,410.27Q3,377,27.41,353.58T89,330.17a104.79,104.79,0,0,1,26.28,3.29q9.66,2.46,23.52,9.14t19.41,6.67a11,11,0,0,0,8.42-3.29q3.08-3.27,5.75-15.81Z" style="fill: #fff"/>
    <path d="M390,620.77,337.46,479.89,285.91,620.77H275.23L224.09,481.53q-11.51-31.83-19.51-41.48-5.15-6.57-15.61-9.45V423h96.94v7.6c-6.58,0-11.09,1-13.56,2.87s-3.7,4.11-3.7,6.58,2.19,9.31,6.58,20.94l28.13,75,27.11-75-2.05-4.93q-6.17-15.39-10.78-19.61t-14.28-5.85V423h98.38v7.6q-11.5.61-14.58,3.18a9,9,0,0,0-3.09,7.29q0,4.53,6,19.92l27.11,75,24.65-69q5.32-14.79,5.33-20.13,0-8-3.9-11.7T428,430.6V423h56.89v7.6q-9.45,1.23-15,6.67t-14.38,30.91l-53.8,152.59Z" style="fill: #fff"/>
    <path d="M548.92,423V575.18q0,20.34,4.72,26t18.48,6.47V615H468.41v-7.39q12.73-.4,18.89-7.39,4.11-4.72,4.11-25.06V463.05q0-20.34-4.72-26t-18.28-6.47V423Zm-28.76-93a31.74,31.74,0,1,1-22.38,9.35A30.56,30.56,0,0,1,520.16,330Z" style="fill: #fff"/>
    <path d="M637.56,352.76V423h45.6v20.33h-45.6v118.5q0,16.63,1.54,21.46a15.45,15.45,0,0,0,5.45,7.81c2.6,2,5,3,7.18,3q13.35,0,25.27-20.34l6.16,4.52q-16.63,39.43-54,39.43-18.27,0-30.91-10.16t-16.12-22.7q-2.05-7-2.05-37.78V443.33H555v-7.19q25.88-18.27,44.06-38.4a234.34,234.34,0,0,0,31.73-45Z" style="fill: #fff"/>
    <path d="M828.69,565.53l6.37,4.93q-13.56,25.47-33.78,37.89a80.89,80.89,0,0,1-43,12.42q-38.4,0-61.41-28.95t-23-69.62q0-39.23,20.95-69,25.26-35.94,69.62-35.94,29.77,0,47.34,15t17.56,33.48q0,11.7-7.09,18.69t-18.58,7q-12.12,0-20-8t-9.75-28.55q-1.23-12.93-6-18.07a14.63,14.63,0,0,0-11.09-5.13q-9.85,0-16.84,10.47-10.68,15.81-10.68,48.47a156.37,156.37,0,0,0,8.63,51.85q8.63,24.75,23.62,36.87,11.28,8.84,26.69,8.83a40.63,40.63,0,0,0,19.1-4.72Q816.38,578.67,828.69,565.53Z" style="fill: #fff"/>
    <path d="M907.69,336.54v111.1q15.81-16.63,29-23.51A58.09,58.09,0,0,1,964,417.25q18.07,0,30.91,10.27t17,24.13q4.2,13.86,4.21,46.72v75q0,22,4.1,27.42t16.64,6.88V615H939.52v-7.39q10.28-1.44,15.4-8.21,3.71-5.34,3.7-26.09V487.69q0-23.82-1.85-29.88a18.21,18.21,0,0,0-6.26-9.45,15.94,15.94,0,0,0-10-3.39q-8.22,0-16,5.65t-16.84,19.82V573.33q0,20.55,3.08,25.67,3.9,7,16,8.63V615H829.44v-7.39q12.12-1.23,17.25-7.8,3.49-4.51,3.49-26.5V378.23q0-21.76-4-27.11t-16.74-7v-7.6Z" style="fill: #fff"/>
  </g>
  <g>
    <path d="M293.53,320.8v16.64H291.9q-1.45-5.76-3.22-8.27a12.42,12.42,0,0,0-4.86-4,15.6,15.6,0,0,0-6-.82h-4.58v47.44c0,3.15.18,5.11.52,5.9a4.68,4.68,0,0,0,2,2.06,8.28,8.28,0,0,0,4.15.89h2v1.68h-32.2v-1.68h2.05a8.54,8.54,0,0,0,4.3-.95,4.33,4.33,0,0,0,1.86-2.18c.34-.73.5-2.63.5-5.72V324.33H254c-4.15,0-7.15.88-9,2.64-2.63,2.44-4.29,5.94-5,10.47h-1.72V320.8Z" style="fill: #fff"/>
    <path d="M319.68,352.73v19c0,3.15.18,5.11.52,5.9a4.65,4.65,0,0,0,2.05,2.06,8.12,8.12,0,0,0,4.1.89h2v1.68H296.24v-1.68h2a8.51,8.51,0,0,0,4.3-.95,4.13,4.13,0,0,0,1.82-2.18c.33-.73.5-2.63.5-5.72V331.32q0-4.71-.5-5.9a4.57,4.57,0,0,0-2-2.06,8.13,8.13,0,0,0-4.1-.88h-2V320.8h32.15v1.68h-2a8.47,8.47,0,0,0-4.31.95,4.35,4.35,0,0,0-1.86,2.17q-.49,1.09-.5,5.72v17.41h21.73V331.32q0-4.71-.5-5.9a4.52,4.52,0,0,0-2-2.06,8.3,8.3,0,0,0-4.13-.88h-2V320.8h32.11v1.68h-2a8.3,8.3,0,0,0-4.31.95,4.3,4.3,0,0,0-1.86,2.17q-.49,1.09-.5,5.72v40.45c0,3.15.17,5.11.5,5.9a4.48,4.48,0,0,0,2,2.06,8.3,8.3,0,0,0,4.13.89h2v1.68H332.74v-1.68h2a8.42,8.42,0,0,0,4.31-.95,4.43,4.43,0,0,0,1.86-2.18c.33-.73.5-2.63.5-5.72v-19Z" style="fill: #fff"/>
    <path d="M389.24,324.33v25h1.22q5.85,0,8.48-3.67t3.36-10.84H404v32.2H402.3a24.15,24.15,0,0,0-2.29-8.62,9.83,9.83,0,0,0-4.06-4.51,15.43,15.43,0,0,0-6.71-1.16V370.1q0,5.07.43,6.21a3.69,3.69,0,0,0,1.61,1.86,7.61,7.61,0,0,0,3.81.73h3.67q8.63,0,13.81-4T420,362.75h1.68L419,382.3H365.79v-1.68h2a8.55,8.55,0,0,0,4.31-.95,4.18,4.18,0,0,0,1.82-2.18c.33-.73.49-2.63.49-5.72V331.32a32.91,32.91,0,0,0-.22-5.13,4.35,4.35,0,0,0-1.68-2.44,7.78,7.78,0,0,0-4.72-1.27h-2V320.8h51.48V339h-1.73q-1.31-6.66-3.69-9.57a13.78,13.78,0,0,0-6.74-4.26c-1.69-.54-4.87-.82-9.52-.82Z" style="fill: #fff"/>
  </g>
</svg>
