<svg id="Layer_1" data-name="Layer 1" xmlns="http://www.w3.org/2000/svg" viewBox="0 0 120 92.67"><defs><style>.cls-1{fill:#fff;}</style></defs><title>icon-storage</title><path class="cls-1" d="M94.86,60.76H84.65V50.56a3.24,3.24,0,0,0,0-.36.84.84,0,0,0-.71-.4l-4.79,0a.8.8,0,0,0-.71.47.58.58,0,0,0-.08.32v10.2H68.12a.32.32,0,0,0-.32.08.7.7,0,0,0-.44.67v4.83a.69.69,0,0,0,.43.67,1.2,1.2,0,0,1,.32.08h10.2v10.2c0,.12,0,.2.08.32a.81.81,0,0,0,.71.48h4.82a.7.7,0,0,0,.67-.44,1.06,1.06,0,0,0,.08-.32l0-10.24,10.24,0a1,1,0,0,1,.32-.08.81.81,0,0,0,.47-.71l0-4.79a1,1,0,0,0-.43-.75,1,1,0,0,0-.36,0"/><path class="cls-1" d="M59.72,42.55c15.2,0,27.41-3.87,27.41-8.51v-7c0-4.64-12.21-8.5-27.41-8.5s-27.41,3.87-27.41,8.5v7C32.31,38.68,44.65,42.55,59.72,42.55Z"/><path class="cls-1" d="M75.36,70.09H67.68L67.42,70H67.2l-.57-.23a3.69,3.69,0,0,1-2.26-3.44V61.51s0-.1,0-.15c-1.52.08-3.08.13-4.67.13-12.24,0-22.65-2.58-26.26-6.05A4.58,4.58,0,0,0,32.31,58v6.83c0,4.77,12.36,8.64,27.43,8.64a74.43,74.43,0,0,0,15.61-1.54Z"/><path class="cls-1" d="M59.74,58a74.52,74.52,0,0,0,15.61-1.53V50.56a3.53,3.53,0,0,1,.46-1.81,3.8,3.8,0,0,1,3-2l.17,0,5,0a3.79,3.79,0,0,1,3.18,1.73v-6A4.1,4.1,0,0,0,85.85,40C82.37,43.45,71.94,46,59.7,46S37.05,43.45,33.45,40a4.56,4.56,0,0,0-1.13,2.58v6.83C32.31,54.15,44.67,58,59.74,58Z"/></svg>