<svg id="Layer_1" data-name="Layer 1" xmlns="http://www.w3.org/2000/svg" viewBox="0 0 120 92.67"><defs><style>.cls-1{fill:#fff;}</style></defs><title>icon-bracket</title><path class="cls-1" d="M66.06,43V40.08h0a6.08,6.08,0,0,0-12.15,0h0v3Z"/><path class="cls-1" d="M30,16.33v60H90v-60ZM47.27,26.81H40.52v39h6.74v4.08H36.44V22.73H47.27ZM48.39,43h2.1v-3h0a9.48,9.48,0,0,1,19,0h0V43h2.11v2L60,51.83,48.39,45Zm23.2,16H48.41V47.41l11.52,6.84,11.66-6.9Zm12,10.89H72.74V65.86h6.74v-39H72.74V22.73H83.57Z"/></svg>