<?xml version="1.0" encoding="utf-8"?>
<!-- Generator: Adobe Illustrator 15.0.2, SVG Export Plug-In . SVG Version: 6.00 Build 0)  -->
<!DOCTYPE svg PUBLIC "-//W3C//DTD SVG 1.1//EN" "http://www.w3.org/Graphics/SVG/1.1/DTD/svg11.dtd">
<svg version="1.1" id="Layer_1" xmlns="http://www.w3.org/2000/svg" xmlns:xlink="http://www.w3.org/1999/xlink" x="0px" y="0px"
	 width="310.164px" height="79.717px" viewBox="0 0 310.164 79.717" enable-background="new 0 0 310.164 79.717"
	 xml:space="preserve">
<g display="none">
	<g display="inline">
		<path fill="#00A2E5" d="M259.033,242.405H248.2l-25.274-62.266h10.33l20.459,53.982h0.202l20.658-53.982h9.93L259.033,242.405z"/>
		<path fill="#00A2E5" d="M286.711,197.319h8.524v45.086h-8.524V197.319z M295.235,189.208h-8.524v-9.069h8.524V189.208z"/>
		<path fill="#00A2E5" d="M302.155,197.319h8.023v9.507h0.2c4.113-7.239,9.829-10.815,19.055-10.553v7.85
			c-13.739,0-18.754,6.802-18.754,18.225v20.058h-8.524V197.319z"/>
		<path fill="#00A2E5" d="M350.795,197.319h10.33v6.542h-10.33v27.991c0,3.403,1.103,4.015,6.419,4.015h3.91v6.538h-6.518
			c-8.827,0-12.336-1.567-12.336-9.853v-28.691h-8.827v-6.542h8.827v-13.517h8.524V197.319z"/>
		<path fill="#00A2E5" d="M410.468,242.405h-8.024v-7.149h-0.201c-3.611,5.582-9.429,8.196-16.848,8.196
			c-13.641,0-17.854-6.802-17.854-16.481v-29.651h8.526v30.524c0,5.494,4.011,9.068,10.529,9.068
			c10.332,0,15.347-6.016,15.347-14.126v-25.467h8.526V242.405z"/>
		<path fill="#00A2E5" d="M448.374,226.71c0,4.098-4.611,10.202-15.843,10.202c-5.216,0-10.029-1.745-10.029-6.627
			c0-5.496,4.813-7.236,10.428-8.111c5.717-0.871,12.135-0.961,15.444-3.053V226.71z M462.213,236.476
			c-1.099,0.351-1.901,0.437-2.604,0.437c-2.707,0-2.707-1.57-2.707-5.06v-23.196c0-10.552-10.129-12.383-19.456-12.383
			c-11.535,0-21.463,3.924-21.965,15.086h8.526c0.401-6.627,5.716-8.545,12.936-8.545c5.417,0,11.533,1.047,11.533,7.498
			c0,5.582-8.024,5.059-17.451,6.631c-8.825,1.482-17.548,3.662-17.548,13.864c0,8.982,7.722,12.645,17.149,12.645
			c7.222,0,13.537-2.18,18.252-6.977c0,4.882,2.809,6.977,7.223,6.977c2.706,0,4.613-0.433,6.113-1.221V236.476z"/>
		<path fill="#00A2E5" d="M466.63,180.139h8.521v62.266h-8.521V180.139z"/>
		<path fill="#231F20" d="M540.142,198.89c-2.009-8.809-10.135-13.257-20.058-13.257c-17.055,0-24.271,12.209-24.271,25.203
			c0,14.215,7.216,26.076,24.366,26.076c12.537,0,19.759-7.675,20.66-17.965h9.53c-1.809,15.523-12.94,24.943-30.992,24.943
			c-22.265,0-33.095-14.303-33.095-32.443c0-18.052,11.836-32.791,33.896-32.791c14.944,0,27.28,6.977,29.487,20.234H540.142z"/>
		<path fill="#231F20" d="M561.999,219.906c0-10.987,7.223-17.092,16.15-17.092c8.923,0,16.145,6.104,16.145,17.092
			c0,10.901-7.222,17.006-16.145,17.006C569.222,236.912,561.999,230.808,561.999,219.906z M552.975,219.906
			c0,13.168,8.726,23.546,25.175,23.546c16.444,0,25.172-10.378,25.172-23.546c0-13.256-8.728-23.633-25.172-23.633
			C561.7,196.273,552.975,206.65,552.975,219.906z"/>
		<path fill="#231F20" d="M607.334,197.319h8.019v7.151h0.2c3.611-5.581,9.429-8.198,16.852-8.198
			c13.642,0,17.854,6.803,17.854,16.481v29.651h-8.527v-30.521c0-5.495-4.015-9.069-10.533-9.069
			c-10.327,0-15.345,6.016-15.345,14.129v25.462h-8.519V197.319z"/>
		<path fill="#231F20" d="M659.082,197.319h8.021v7.151h0.2c3.611-5.581,9.429-8.198,16.852-8.198
			c13.635,0,17.848,6.803,17.848,16.481v29.651h-8.521v-30.521c0-5.495-4.015-9.069-10.533-9.069
			c-10.327,0-15.345,6.016-15.345,14.129v25.462h-8.521V197.319z"/>
		<path fill="#231F20" d="M717.049,215.545c0.602-6.889,5.913-12.73,14.842-12.73c8.426,0,14.543,5.668,14.944,12.73H717.049z
			 M746.637,228.104c-1.506,5.844-6.422,8.809-13.443,8.809c-11.33,0-16.444-6.975-16.145-14.825h38.813
			c0.503-10.901-5.114-25.814-23.472-25.814c-14.135,0-24.369,9.942-24.369,23.458c0.5,13.782,8.327,23.722,24.872,23.722
			c11.636,0,19.857-5.406,22.169-15.349H746.637z"/>
		<path fill="#231F20" d="M796.876,211.795c-1.303-5.668-5.812-8.98-12.833-8.98c-12.339,0-16.147,8.459-16.147,17.617
			c0,8.285,4.312,16.48,15.145,16.48c8.219,0,13.139-4.186,14.243-10.989h8.722c-1.904,10.989-9.826,17.529-22.866,17.529
			c-15.845,0-24.271-9.592-24.271-23.021c0-13.52,8.024-24.159,24.475-24.159c11.728,0,21.156,4.797,22.36,15.522H796.876z"/>
		<path fill="#231F20" d="M825.359,197.319h10.333v6.542h-10.333v27.991c0,3.403,1.107,4.015,6.416,4.015h3.917v6.538h-6.519
			c-8.827,0-12.339-1.567-12.339-9.853v-28.691h-8.827v-6.542h8.827v-13.517h8.524V197.319z"/>
		<path fill="#FFFFFF" stroke="#231F20" stroke-width="6.132" d="M191.113,210.439c0,38.813-35.75,70.284-79.833,70.284
			s-79.824-31.471-79.824-70.284s35.741-70.284,79.824-70.284S191.113,171.626,191.113,210.439z"/>
		<path fill="#00A2E5" d="M136.743,156.369h-8.131c0,0-15.451,33.468-16.469,35.667c-1.012-2.2-16.534-35.667-16.534-35.667h-9.078
			l25.612,53.926l25.551-53.926H136.743z"/>
		<path fill="#231F20" d="M88.939,198.686l-23.181-32.841l3.87-6.716l32.686,47.272l-57.323-4.604l3.885-6.701L88.939,198.686z"/>
		<path fill="#231F20" d="M88.727,222.365l-40.035,3.659l-3.87-6.713l57.271-4.665l-32.633,47.336l-3.87-6.713L88.727,222.365z"/>
		<path fill="#00A2E5" d="M111.589,210.391l-24.996,52.788h9.077c0,0,15.445-33.467,16.458-35.669
			c1.022,2.202,16.547,35.669,16.547,35.669h9.075l-25.623-53.926L111.589,210.391z"/>
		<path fill="#231F20" d="M134.537,222.145l23.186,32.841l-3.883,6.712l-32.668-47.264l57.304,4.594l-3.875,6.713L134.537,222.145z"
			/>
		<path fill="#231F20" d="M134.455,198.087l40.017-3.657l3.879,6.716l-57.276,4.662l32.639-47.337l3.879,6.718L134.455,198.087z"/>
		<path fill="#231F20" d="M840.869,187.385h-3.171v-0.925h7.6v0.925h-3.165v7.334h-1.264V187.385z"/>
		<path fill="#231F20" d="M846.243,186.459h1.729l2.99,6.941l3.013-6.941h1.728v8.26h-1.197v-6.872h-0.027l-2.971,6.872h-1.074
			l-2.968-6.872h-0.023v6.872h-1.198V186.459z"/>
	</g>
	<g display="inline">
		<path d="M595.938,284.977v-24.289h5.655l6.755,17.181c0.623,1.604,1.075,2.8,1.362,3.587c0.327-0.877,0.836-2.171,1.527-3.877
			l6.875-16.891h5.036v24.289h-3.642v-20.312l-8.309,20.312h-3.393l-8.228-20.695v20.695H595.938z"/>
		<path d="M642.207,282.772c-1.252,0.946-2.479,1.617-3.686,2.003c-1.204,0.39-2.497,0.584-3.878,0.584
			c-2.281,0-4.036-0.47-5.261-1.407c-1.225-0.937-1.835-2.144-1.835-3.62c0-0.853,0.23-1.635,0.694-2.347
			c0.461-0.71,1.065-1.282,1.817-1.716c0.748-0.435,1.593-0.761,2.533-0.982c0.688-0.152,1.73-0.302,3.126-0.446
			c2.841-0.284,4.935-0.625,6.275-1.026c0.015-0.42,0.021-0.68,0.021-0.785c0-1.228-0.333-2.096-1-2.604
			c-0.901-0.68-2.24-1.018-4.016-1.018c-1.662,0-2.887,0.245-3.677,0.736s-1.374,1.362-1.752,2.616l-3.401-0.383
			c0.312-1.242,0.823-2.249,1.536-3.019c0.713-0.769,1.74-1.358,3.087-1.775c1.348-0.413,2.91-0.619,4.687-0.619
			c1.76,0,3.191,0.177,4.293,0.532c1.1,0.356,1.91,0.803,2.429,1.339c0.518,0.536,0.88,1.21,1.087,2.024
			c0.116,0.503,0.177,1.425,0.177,2.76v3.988c0,2.776,0.068,4.53,0.212,5.261c0.141,0.733,0.423,1.435,0.842,2.108h-3.593
			C642.551,284.354,642.312,283.62,642.207,282.772z M641.919,276.161c-1.27,0.452-3.177,0.827-5.715,1.123
			c-1.44,0.183-2.459,0.384-3.055,0.603c-0.596,0.218-1.057,0.541-1.38,0.97c-0.323,0.425-0.485,0.896-0.485,1.413
			c0,0.8,0.356,1.467,1.066,1.997c0.712,0.53,1.751,0.794,3.122,0.794c1.359,0,2.566-0.255,3.623-0.761
			c1.058-0.509,1.836-1.201,2.333-2.078c0.377-0.671,0.565-1.656,0.565-2.958L641.919,276.161z"/>
		<path d="M650.842,284.977v-24.289h3.497v13.791l8.276-7.132h4.512l-7.877,6.555l8.691,11.075h-4.309l-6.842-9.03l-2.452,2.039
			v6.991H650.842z"/>
		<path d="M684.799,279.323l3.61,0.384c-0.568,1.793-1.625,3.186-3.167,4.171c-1.539,0.987-3.51,1.481-5.905,1.481
			c-3.018,0-5.41-0.79-7.177-2.371c-1.77-1.578-2.652-3.8-2.652-6.662c0-2.964,0.892-5.267,2.68-6.904
			c1.787-1.638,4.107-2.458,6.955-2.458c2.761,0,5.013,0.802,6.761,2.407c1.749,1.607,2.623,3.859,2.623,6.761
			c0,0.18-0.006,0.446-0.018,0.796h-15.408c0.129,1.938,0.772,3.42,1.928,4.446c1.153,1.027,2.594,1.542,4.321,1.542
			c1.284,0,2.38-0.284,3.287-0.855C683.547,281.491,684.266,280.578,684.799,279.323z M673.292,274.484h11.546
			c-0.156-1.484-0.596-2.604-1.323-3.359c-1.117-1.146-2.563-1.718-4.342-1.718c-1.611,0-2.965,0.458-4.061,1.377
			C674.017,271.7,673.409,272.934,673.292,274.484z"/>
		<path d="M717.252,278.509l3.45,0.384c-0.375,2.026-1.333,3.61-2.875,4.751c-1.545,1.145-3.44,1.716-5.686,1.716
			c-2.814,0-5.078-0.784-6.791-2.351c-1.71-1.565-2.566-3.826-2.566-6.778c0-1.893,0.369-3.551,1.105-4.982
			c0.736-1.431,1.856-2.503,3.359-3.216c1.503-0.712,3.141-1.068,4.907-1.068c2.233,0,4.061,0.491,5.479,1.476
			c1.422,0.985,2.332,2.378,2.73,4.177L716.965,273c-0.32-1.192-0.893-2.087-1.71-2.689c-0.817-0.602-1.805-0.903-2.964-0.903
			c-1.752,0-3.177,0.538-4.27,1.613c-1.096,1.075-1.644,2.778-1.644,5.111c0,2.371,0.529,4.096,1.584,5.171
			c1.057,1.074,2.434,1.613,4.135,1.613c1.365,0,2.503-0.359,3.419-1.077C716.429,281.12,717.01,280.009,717.252,278.509z"/>
		<path d="M722.411,276.171c0-3.264,1.057-5.677,3.174-7.246c1.767-1.309,3.923-1.961,6.465-1.961c2.826,0,5.135,0.793,6.928,2.38
			c1.794,1.587,2.692,3.778,2.692,6.575c0,2.267-0.398,4.051-1.192,5.351c-0.793,1.303-1.945,2.309-3.464,3.021
			c-1.515,0.712-3.171,1.068-4.964,1.068c-2.878,0-5.204-0.787-6.977-2.359C723.298,281.426,722.411,279.149,722.411,276.171z
			 M726.004,276.152c0,2.255,0.572,3.946,1.719,5.072c1.147,1.129,2.587,1.691,4.327,1.691c1.725,0,3.161-0.565,4.309-1.7
			c1.144-1.135,1.719-2.854,1.719-5.162c0-2.177-0.578-3.829-1.731-4.955c-1.152-1.129-2.584-1.691-4.296-1.691
			c-1.74,0-3.18,0.56-4.327,1.683C726.576,272.209,726.004,273.898,726.004,276.152z"/>
		<path d="M745.799,284.977v-17.63h3.162v2.5c1.509-1.922,3.688-2.883,6.539-2.883c1.236,0,2.374,0.191,3.413,0.571
			c1.036,0.384,1.814,0.887,2.329,1.506c0.516,0.623,0.878,1.356,1.084,2.198c0.129,0.557,0.191,1.527,0.191,2.913v10.824h-3.497
			v-10.704c0-1.219-0.135-2.129-0.404-2.73c-0.272-0.603-0.751-1.084-1.439-1.446c-0.692-0.362-1.5-0.545-2.429-0.545
			c-1.481,0-2.761,0.404-3.839,1.212c-1.074,0.812-1.613,2.342-1.613,4.597v9.617H745.799z"/>
		<path d="M775.465,282.314l0.479,2.638c-0.982,0.153-1.859,0.23-2.633,0.23c-1.266,0-2.245-0.164-2.942-0.497
			c-0.698-0.329-1.189-0.775-1.474-1.341c-0.284-0.563-0.425-1.74-0.425-3.53v-10.153h-2.587v-2.3h2.587v-4.362l3.497-1.784v6.146
			h3.497v2.3h-3.497v10.333c0,0.859,0.06,1.41,0.183,1.659c0.123,0.245,0.323,0.442,0.599,0.583
			c0.278,0.145,0.674,0.216,1.188,0.216C774.324,282.452,774.833,282.407,775.465,282.314z"/>
		<path d="M792.396,282.772c-1.251,0.946-2.479,1.617-3.686,2.003c-1.204,0.39-2.497,0.584-3.881,0.584
			c-2.278,0-4.032-0.47-5.257-1.407c-1.225-0.937-1.836-2.144-1.836-3.62c0-0.853,0.23-1.635,0.691-2.347
			c0.465-0.71,1.069-1.282,1.82-1.716c0.749-0.435,1.594-0.761,2.53-0.982c0.691-0.152,1.733-0.302,3.129-0.446
			c2.842-0.284,4.935-0.625,6.276-1.026c0.012-0.42,0.021-0.68,0.021-0.785c0-1.228-0.335-2.096-1-2.604
			c-0.901-0.68-2.239-1.018-4.019-1.018c-1.658,0-2.883,0.245-3.674,0.736c-0.79,0.491-1.374,1.362-1.751,2.616l-3.401-0.383
			c0.309-1.242,0.82-2.249,1.533-3.019c0.712-0.769,1.742-1.358,3.09-1.775c1.347-0.413,2.907-0.619,4.683-0.619
			c1.764,0,3.194,0.177,4.294,0.532c1.102,0.356,1.913,0.803,2.431,1.339c0.519,0.536,0.881,1.21,1.087,2.024
			c0.117,0.503,0.177,1.425,0.177,2.76v3.988c0,2.776,0.069,4.53,0.213,5.261c0.141,0.733,0.422,1.435,0.841,2.108h-3.593
			C792.741,284.354,792.502,283.62,792.396,282.772z M792.109,276.161c-1.272,0.452-3.177,0.827-5.716,1.123
			c-1.44,0.183-2.458,0.384-3.054,0.603c-0.597,0.218-1.058,0.541-1.381,0.97c-0.323,0.425-0.485,0.896-0.485,1.413
			c0,0.8,0.354,1.467,1.066,1.997c0.71,0.53,1.752,0.794,3.123,0.794c1.359,0,2.565-0.255,3.623-0.761
			c1.057-0.509,1.835-1.201,2.329-2.078c0.38-0.671,0.569-1.656,0.569-2.958L792.109,276.161z"/>
		<path d="M814.442,278.509l3.449,0.384c-0.374,2.026-1.332,3.61-2.877,4.751c-1.542,1.145-3.438,1.716-5.683,1.716
			c-2.817,0-5.078-0.784-6.791-2.351c-1.71-1.565-2.566-3.826-2.566-6.778c0-1.893,0.368-3.551,1.105-4.982
			c0.733-1.431,1.854-2.503,3.359-3.216c1.503-0.712,3.138-1.068,4.907-1.068c2.233,0,4.06,0.491,5.479,1.476
			c1.419,0.985,2.329,2.378,2.73,4.177L814.155,273c-0.32-1.192-0.893-2.087-1.71-2.689c-0.817-0.602-1.806-0.903-2.964-0.903
			c-1.752,0-3.177,0.538-4.27,1.613c-1.096,1.075-1.644,2.778-1.644,5.111c0,2.371,0.526,4.096,1.583,5.171
			c1.058,1.074,2.435,1.613,4.136,1.613c1.362,0,2.503-0.359,3.416-1.077C813.619,281.12,814.197,280.009,814.442,278.509z"/>
		<path d="M828.464,282.314l0.479,2.638c-0.982,0.153-1.859,0.23-2.635,0.23c-1.264,0-2.246-0.164-2.943-0.497
			c-0.697-0.329-1.186-0.775-1.47-1.341c-0.285-0.563-0.426-1.74-0.426-3.53v-10.153h-2.587v-2.3h2.587v-4.362l3.497-1.784v6.146
			h3.497v2.3h-3.497v10.333c0,0.859,0.061,1.41,0.183,1.659c0.123,0.245,0.32,0.442,0.6,0.583c0.275,0.145,0.673,0.216,1.188,0.216
			C827.323,282.452,827.833,282.407,828.464,282.314z"/>
		<path d="M832.89,284.977v-3.401h3.977v3.401H832.89z"/>
	</g>
</g>
<g>
	<path fill="#FFFFFF" d="M68.89,30.514h5v2.881h0.08c1.68-2.52,4.121-3.361,6.122-3.361c2.88,0,4.92,1.08,6.08,3.641
		c1.241-2.481,3.921-3.641,6.441-3.641c5.082,0,6.521,3.481,6.521,8.082v13.002h-5.361V38.835c0-1.92,0-4.64-3.081-4.64
		c-3.561,0-4,4.239-4,6.921v10.001h-5.361V38.835c0-1.92,0-4.64-3.081-4.64c-3.561,0-4,4.239-4,6.921v10.001H68.89V30.514z"/>
	<path fill="#FFFFFF" d="M104.055,31.594c2.08-0.961,4.881-1.561,7.161-1.561c6.281,0,8.881,2.601,8.881,8.682v2.641
		c0,2.081,0.04,3.641,0.081,5.161c0.04,1.559,0.12,3,0.24,4.6h-4.722c-0.2-1.08-0.2-2.439-0.241-3.08h-0.08
		c-1.24,2.28-3.921,3.561-6.361,3.561c-3.641,0-7.202-2.2-7.202-6.121c0-3.08,1.481-4.881,3.521-5.88
		c2.04-1.001,4.68-1.201,6.92-1.201h2.96c0-3.321-1.48-4.441-4.64-4.441c-2.28,0-4.561,0.879-6.361,2.241L104.055,31.594z
		 M110.336,47.677c1.64,0,2.92-0.72,3.76-1.839c0.88-1.161,1.12-2.641,1.12-4.241h-2.319c-2.401,0-5.962,0.4-5.962,3.56
		C106.934,46.917,108.415,47.677,110.336,47.677z"/>
	<path fill="#FFFFFF" d="M124.098,21.632h5.36v5.121h-5.36V21.632z M124.098,30.514h5.36v20.604h-5.36V30.514z"/>
	<path fill="#FFFFFF" d="M133.819,21.112h5.361v30.005h-5.361V21.112z"/>
	<path fill="#FFFFFF" d="M143.02,30.514h5.121v2.921h0.08c1.2-2,3.242-3.401,6.401-3.401c6.322,0,8.642,5.041,8.642,10.723
		c0,5.641-2.32,10.841-8.762,10.841c-2.28,0-4.161-0.56-6.041-2.841h-0.081V59.52h-5.36V30.514z M148.421,40.756
		c0,2.919,1.161,6.681,4.721,6.681c3.521,0,4.521-3.841,4.521-6.681c0-2.761-0.959-6.561-4.44-6.561
		C149.781,34.195,148.421,37.875,148.421,40.756z"/>
	<path fill="#FFFFFF" d="M165.783,30.514h4.761v4.681h0.081c0.24-1.92,2.44-5.161,5.642-5.161c0.52,0,1.08,0,1.64,0.16v5.401
		c-0.48-0.279-1.441-0.439-2.4-0.439c-4.36,0-4.36,5.44-4.36,8.401v7.561h-5.362V30.514z"/>
	<path fill="#FFFFFF" d="M188.547,30.034c6.121,0,10.802,4.121,10.802,10.922c0,5.921-3.96,10.642-10.802,10.642
		c-6.801,0-10.763-4.721-10.763-10.642C177.784,34.155,182.466,30.034,188.547,30.034z M188.547,47.437
		c4.121,0,5.201-3.68,5.201-7.122c0-3.16-1.681-6.12-5.201-6.12c-3.481,0-5.16,3.04-5.16,6.12
		C183.387,43.716,184.466,47.437,188.547,47.437z"/>
	<path fill="#FFFFFF" d="M203.509,34.435h-3.96v-3.921h3.96v-4.121l5.36-1.72v5.841h4.762v3.921h-4.762v9.602
		c0,1.761,0.481,3.401,2.522,3.401c0.96,0,1.881-0.2,2.439-0.561l0.16,4.241c-1.119,0.32-2.359,0.48-3.961,0.48
		c-4.199,0-6.52-2.6-6.52-6.681V34.435z"/>
	<path fill="#FFFFFF" d="M232.433,49.957c-1.96,1.081-4.2,1.641-7.08,1.641c-6.803,0-10.763-3.921-10.763-10.683
		c0-5.96,3.161-10.881,9.562-10.881c7.642,0,9.802,5.242,9.802,12.442H219.71c0.241,3.321,2.561,5.201,5.881,5.201
		c2.601,0,4.841-0.96,6.841-2.081V49.957z M228.833,38.795c-0.161-2.6-1.36-4.84-4.36-4.84c-3.002,0-4.522,2.081-4.763,4.84H228.833
		z"/>
	<path fill="#FFFFFF" d="M250.116,34.955c-0.961-0.439-2.001-0.759-3.642-0.759c-3.32,0-5.439,2.64-5.439,6.52
		c0,3.802,1.8,6.722,5.56,6.722c1.52,0,3.201-0.561,4.121-0.96l0.239,4.44c-1.561,0.48-3.16,0.681-5.36,0.681
		c-6.762,0-10.162-4.602-10.162-10.883c0-5.959,3.521-10.681,9.961-10.681c2.159,0,3.721,0.241,5.2,0.68L250.116,34.955z"/>
	<path fill="#FFFFFF" d="M255.275,34.435h-3.961v-3.921h3.961v-4.121l5.361-1.72v5.841h4.761v3.921h-4.761v9.602
		c0,1.761,0.48,3.401,2.521,3.401c0.96,0,1.879-0.2,2.44-0.561l0.161,4.241c-1.122,0.32-2.362,0.48-3.962,0.48
		c-4.2,0-6.521-2.6-6.521-6.681V34.435z"/>
	<path fill="#FFFFFF" d="M276.319,30.034c6.121,0,10.802,4.121,10.802,10.922c0,5.921-3.96,10.642-10.802,10.642
		c-6.801,0-10.763-4.721-10.763-10.642C265.556,34.155,270.237,30.034,276.319,30.034z M276.319,47.437
		c4.121,0,5.201-3.68,5.201-7.122c0-3.16-1.681-6.12-5.201-6.12c-3.481,0-5.161,3.04-5.161,6.12
		C271.158,43.716,272.238,47.437,276.319,47.437z"/>
	<path fill="#FFFFFF" d="M289.24,30.514H294v4.681h0.081c0.239-1.92,2.441-5.161,5.64-5.161c0.521,0,1.081,0,1.641,0.16v5.401
		c-0.48-0.279-1.439-0.439-2.4-0.439c-4.36,0-4.36,5.44-4.36,8.401v7.561h-5.361V30.514z"/>
	<path fill="#FFFFFF" d="M306.703,30.54c1.383,0,2.51,1.126,2.51,2.51c0,1.383-1.127,2.51-2.51,2.51c-1.385,0-2.51-1.126-2.51-2.51
		C304.193,31.666,305.318,30.54,306.703,30.54z M306.703,35.003c0.995,0,1.787-0.792,1.787-1.953c0-1.154-0.792-1.954-1.787-1.954
		c-1.009,0-1.787,0.799-1.787,1.954C304.916,34.211,305.694,35.003,306.703,35.003z M305.694,31.645h1.05
		c0.709,0,1.113,0.209,1.113,0.835c0,0.508-0.306,0.708-0.738,0.744l0.738,1.209h-0.612l-0.667-1.182h-0.286v1.182h-0.598V31.645z
		 M306.78,32.793c0.285,0,0.479-0.049,0.479-0.369c0-0.286-0.306-0.32-0.543-0.32h-0.424v0.689H306.78z"/>
</g>
<g>
	<polygon fill="#99CC00" points="48.818,23.921 9.939,23.921 29.343,43.376 	"/>
	<path fill="#99CC00" d="M29.343,49.137L9.909,29.752v13.911h0.033c0,10.587,8.632,19.171,19.401,19.171
		c10.762,0,19.592-8.582,19.592-19.171V29.494L29.343,49.137z"/>
	<path fill="#99CC00" d="M53.558,24.871v18.859c0,13.099-10.799,23.715-24.117,23.715c-13.318,0-24.118-10.616-24.118-23.715H5.288
		v-24.42h4.389c11.771-0.643,19.666-3.698,19.666-3.698s7.807,3.055,19.747,3.698h4.345l4.252-4.255v-0.02
		c-18.617,0-28.344-4.224-28.344-4.224S19.768,15.034,1,15.034v28.682h0.046c0,0.006,0.001,0.014,0.001,0.019
		c0,0.021-0.003,0.039-0.003,0.06c0,15.422,12.623,27.922,28.19,27.922c5.898,0,11.371-1.801,15.897-4.871
		c7.57-4.997,12.555-13.49,12.555-23.13V20.743L53.558,24.871z"/>
	<line fill="#87BC04" x1="29.343" y1="43.376" x2="9.909" y2="23.921"/>
	<polygon opacity="0.2" fill="#FFFFFF" points="29.343,43.376 48.818,23.921 29.343,23.921 29.343,43.354 	"/>
	<path opacity="0.2" fill="#FFFFFF" d="M45.131,66.844c7.57-4.997,12.555-13.49,12.555-23.128V20.743l-4.128,4.128v18.858
		c0,13.098-10.799,23.714-24.117,23.714c-0.034,0-0.064-0.005-0.099-0.005v4.274C35.199,71.689,40.632,69.896,45.131,66.844z"/>
	<path opacity="0.2" fill="#FFFFFF" d="M29.343,15.611c0,0,7.807,3.055,19.747,3.698h4.345l4.252-4.255v-0.02
		c-18.617,0-28.344-4.224-28.344-4.224"/>
	<path opacity="0.2" fill="#FFFFFF" d="M29.343,49.137L29.343,49.137v13.697l0,0c10.762,0,19.592-8.582,19.592-19.171V29.494
		L29.343,49.137z"/>
</g>
</svg>
