<?xml version="1.0" encoding="utf-8"?>
<!-- Generator: Adobe Illustrator 15.0.2, SVG Export Plug-In . SVG Version: 6.00 Build 0)  -->
<!DOCTYPE svg PUBLIC "-//W3C//DTD SVG 1.1//EN" "http://www.w3.org/Graphics/SVG/1.1/DTD/svg11.dtd">
<svg version="1.1" id="Layer_1" xmlns="http://www.w3.org/2000/svg" xmlns:xlink="http://www.w3.org/1999/xlink" x="0px" y="0px"
	 width="141px" height="48px" viewBox="0 0 141 48" enable-background="new 0 0 141 48" xml:space="preserve">
<g>
	<g>
		<path fill="#FFFFFF" d="M30.979,20.474h2.282v1.315h0.037c0.766-1.15,1.88-1.534,2.792-1.534c1.314,0,2.245,0.493,2.775,1.661
			c0.566-1.131,1.789-1.661,2.939-1.661c2.319,0,2.976,1.588,2.976,3.688v5.932h-2.447v-5.604c0-0.876,0-2.118-1.405-2.118
			c-1.625,0-1.826,1.935-1.826,3.158v4.563h-2.446v-5.604c0-0.876,0-2.118-1.406-2.118c-1.625,0-1.826,1.935-1.826,3.158v4.563
			h-2.446V20.474z"/>
		<path fill="#FFFFFF" d="M47.027,20.968c0.949-0.438,2.227-0.712,3.268-0.712c2.866,0,4.052,1.187,4.052,3.961v1.205
			c0,0.949,0.019,1.662,0.037,2.355c0.018,0.711,0.055,1.369,0.109,2.099h-2.154c-0.091-0.492-0.091-1.113-0.11-1.406h-0.037
			c-0.566,1.041-1.789,1.626-2.903,1.626c-1.661,0-3.286-1.004-3.286-2.793c0-1.406,0.675-2.228,1.607-2.684
			c0.931-0.457,2.135-0.548,3.158-0.548h1.351c0-1.516-0.675-2.026-2.117-2.026c-1.041,0-2.082,0.401-2.903,1.022L47.027,20.968z
			 M49.893,28.306c0.749,0,1.333-0.328,1.716-0.838c0.402-0.531,0.511-1.205,0.511-1.936h-1.058c-1.096,0-2.721,0.182-2.721,1.624
			C48.341,27.96,49.016,28.306,49.893,28.306z"/>
		<path fill="#FFFFFF" d="M56.172,16.421h2.446v2.337h-2.446V16.421z M56.172,20.474h2.446v9.402h-2.446V20.474z"/>
		<path fill="#FFFFFF" d="M60.609,16.184h2.446v13.692h-2.446V16.184z"/>
		<path fill="#FFFFFF" d="M64.808,20.474h2.336v1.333h0.037c0.548-0.913,1.479-1.552,2.921-1.552c2.884,0,3.943,2.3,3.943,4.892
			c0,2.574-1.06,4.948-3.998,4.948c-1.041,0-1.898-0.256-2.756-1.297h-0.037v4.911h-2.446V20.474z M67.272,25.147
			c0,1.334,0.529,3.05,2.154,3.05c1.605,0,2.062-1.754,2.062-3.05c0-1.259-0.438-2.993-2.027-2.993
			C67.893,22.154,67.272,23.833,67.272,25.147z"/>
		<path fill="#FFFFFF" d="M75.195,20.474h2.171v2.136h0.037c0.109-0.876,1.113-2.355,2.574-2.355c0.238,0,0.494,0,0.749,0.072v2.465
			c-0.22-0.128-0.657-0.201-1.097-0.201c-1.987,0-1.987,2.483-1.987,3.833v3.45h-2.447V20.474z"/>
		<path fill="#FFFFFF" d="M85.582,20.255c2.793,0,4.93,1.881,4.93,4.984c0,2.702-1.808,4.856-4.93,4.856
			c-3.104,0-4.91-2.154-4.91-4.856C80.672,22.136,82.807,20.255,85.582,20.255z M85.582,28.197c1.881,0,2.375-1.68,2.375-3.25
			c0-1.442-0.769-2.793-2.375-2.793c-1.589,0-2.354,1.387-2.354,2.793C83.228,26.499,83.719,28.197,85.582,28.197z"/>
		<path fill="#FFFFFF" d="M92.41,22.263h-1.809v-1.789h1.809v-1.88l2.446-0.785v2.665h2.172v1.789h-2.172v4.381
			c0,0.805,0.22,1.553,1.15,1.553c0.438,0,0.858-0.091,1.113-0.256l0.073,1.935c-0.511,0.146-1.077,0.22-1.808,0.22
			c-1.917,0-2.976-1.187-2.976-3.049V22.263z"/>
		<path fill="#FFFFFF" d="M105.607,29.347c-0.894,0.493-1.916,0.749-3.23,0.749c-3.104,0-4.911-1.79-4.911-4.874
			c0-2.721,1.443-4.966,4.363-4.966c3.488,0,4.474,2.392,4.474,5.677h-6.5c0.109,1.517,1.168,2.373,2.686,2.373
			c1.186,0,2.207-0.438,3.119-0.948V29.347z M103.965,24.253c-0.073-1.187-0.619-2.208-1.987-2.208
			c-1.371,0-2.065,0.949-2.175,2.208H103.965z"/>
		<path fill="#FFFFFF" d="M113.677,22.501c-0.438-0.2-0.912-0.347-1.661-0.347c-1.516,0-2.482,1.205-2.482,2.976
			c0,1.734,0.823,3.067,2.539,3.067c0.692,0,1.46-0.256,1.881-0.438l0.109,2.026c-0.714,0.219-1.444,0.311-2.446,0.311
			c-3.087,0-4.638-2.101-4.638-4.966c0-2.72,1.607-4.875,4.545-4.875c0.986,0,1.697,0.109,2.373,0.311L113.677,22.501z"/>
		<path fill="#FFFFFF" d="M116.033,22.263h-1.808v-1.789h1.808v-1.88l2.446-0.785v2.665h2.172v1.789h-2.172v4.381
			c0,0.805,0.218,1.553,1.148,1.553c0.439,0,0.858-0.091,1.113-0.256l0.073,1.935c-0.51,0.146-1.077,0.22-1.806,0.22
			c-1.917,0-2.976-1.187-2.976-3.049V22.263z"/>
		<path fill="#FFFFFF" d="M125.634,20.255c2.794,0,4.931,1.881,4.931,4.984c0,2.702-1.808,4.856-4.931,4.856
			c-3.103,0-4.911-2.154-4.911-4.856C120.723,22.136,122.859,20.255,125.634,20.255z M125.634,28.197c1.882,0,2.373-1.68,2.373-3.25
			c0-1.442-0.766-2.793-2.373-2.793c-1.588,0-2.354,1.387-2.354,2.793C123.28,26.499,123.771,28.197,125.634,28.197z"/>
		<path fill="#FFFFFF" d="M131.531,20.474h2.172v2.136h0.038c0.108-0.876,1.113-2.355,2.573-2.355c0.237,0,0.492,0,0.747,0.072
			v2.465c-0.217-0.128-0.656-0.201-1.094-0.201c-1.99,0-1.99,2.483-1.99,3.833v3.45h-2.446V20.474z"/>
		<path fill="#FFFFFF" d="M139.5,20.486c0.632,0,1.145,0.515,1.145,1.146c0,0.631-0.513,1.145-1.145,1.145s-1.145-0.514-1.145-1.145
			C138.355,21,138.868,20.486,139.5,20.486z M139.5,22.523c0.454,0,0.816-0.361,0.816-0.891c0-0.527-0.362-0.892-0.816-0.892
			c-0.461,0-0.816,0.365-0.816,0.892C138.684,22.162,139.039,22.523,139.5,22.523z M139.039,20.991h0.479
			c0.324,0,0.509,0.096,0.509,0.38c0,0.232-0.141,0.324-0.337,0.34l0.337,0.552h-0.28l-0.304-0.539h-0.13v0.539h-0.274V20.991z
			 M139.535,21.515c0.13,0,0.218-0.023,0.218-0.168c0-0.13-0.138-0.146-0.247-0.146h-0.192v0.314H139.535z"/>
	</g>
	<g>
		<polygon fill="#FFFFFF" points="21.821,17.466 4.079,17.466 12.934,26.343 		"/>
		<path fill="#FFFFFF" d="M12.934,28.973l-8.869-8.846v6.348h0.015c0,4.831,3.939,8.748,8.854,8.748c4.911,0,8.94-3.916,8.94-8.748
			v-6.465L12.934,28.973z"/>
		<path fill="#FFFFFF" d="M23.984,17.899v8.605c0,5.978-4.929,10.822-11.005,10.822c-6.077,0-11.005-4.845-11.005-10.822H1.957
			V15.361H3.96c5.371-0.293,8.974-1.687,8.974-1.687s3.562,1.394,9.011,1.687h1.982l1.94-1.941v-0.009
			c-8.495,0-12.933-1.927-12.933-1.927S8.564,13.411,0,13.411v13.088h0.021c0,0.003,0,0.006,0,0.008c0,0.01-0.001,0.02-0.001,0.027
			c0,7.039,5.759,12.742,12.864,12.742c2.691,0,5.188-0.821,7.254-2.224c3.455-2.279,5.729-6.155,5.729-10.554V16.016L23.984,17.899
			z"/>
		<line fill="#FFFFFF" x1="12.934" y1="26.343" x2="4.065" y2="17.466"/>
		<polygon opacity="0.2" fill="#FFFFFF" points="12.934,26.343 21.821,17.466 12.934,17.466 12.934,26.335 		"/>
		<path opacity="0.2" fill="#FFFFFF" d="M20.138,37.053c3.455-2.279,5.729-6.155,5.729-10.554V16.016l-1.883,1.883v8.605
			c0,5.977-4.929,10.821-11.005,10.821c-0.015,0-0.029-0.002-0.045-0.002v1.951C15.606,39.264,18.085,38.445,20.138,37.053z"/>
		<path opacity="0.2" fill="#FFFFFF" d="M12.934,13.674c0,0,3.562,1.394,9.011,1.687h1.982l1.94-1.941v-0.009
			c-8.495,0-12.933-1.927-12.933-1.927"/>
		<path opacity="0.2" fill="#FFFFFF" d="M12.934,28.973L12.934,28.973l0,6.25h0c4.911,0,8.94-3.916,8.94-8.748v-6.465L12.934,28.973
			z"/>
	</g>
</g>
<g>
	<g>
		<path d="M30.979,19.473h2.282v1.315h0.037c0.766-1.15,1.88-1.534,2.792-1.534c1.314,0,2.245,0.493,2.775,1.661
			c0.566-1.131,1.789-1.661,2.939-1.661c2.319,0,2.976,1.588,2.976,3.688v5.932h-2.447v-5.604c0-0.876,0-2.118-1.405-2.118
			c-1.625,0-1.826,1.935-1.826,3.158v4.563h-2.446v-5.604c0-0.876,0-2.118-1.406-2.118c-1.625,0-1.826,1.935-1.826,3.158v4.563
			h-2.446V19.473z"/>
		<path d="M47.027,19.967c0.949-0.438,2.227-0.712,3.268-0.712c2.866,0,4.052,1.187,4.052,3.961v1.205
			c0,0.949,0.019,1.662,0.037,2.355c0.018,0.711,0.055,1.369,0.109,2.099h-2.154c-0.091-0.492-0.091-1.113-0.11-1.406h-0.037
			c-0.566,1.041-1.789,1.626-2.903,1.626c-1.661,0-3.286-1.004-3.286-2.793c0-1.406,0.675-2.228,1.607-2.684
			c0.931-0.457,2.135-0.548,3.158-0.548h1.351c0-1.516-0.675-2.026-2.117-2.026c-1.041,0-2.082,0.401-2.903,1.022L47.027,19.967z
			 M49.893,27.305c0.749,0,1.333-0.328,1.716-0.838c0.402-0.531,0.511-1.205,0.511-1.936h-1.058c-1.096,0-2.721,0.183-2.721,1.625
			C48.341,26.959,49.016,27.305,49.893,27.305z"/>
		<path d="M56.172,15.42h2.446v2.337h-2.446V15.42z M56.172,19.473h2.446v9.402h-2.446V19.473z"/>
		<path d="M60.609,15.183h2.446v13.692h-2.446V15.183z"/>
		<path d="M64.808,19.473h2.336v1.333h0.037c0.548-0.913,1.479-1.552,2.921-1.552c2.884,0,3.943,2.3,3.943,4.893
			c0,2.574-1.06,4.948-3.998,4.948c-1.041,0-1.898-0.256-2.756-1.297h-0.037v4.911h-2.446V19.473z M67.272,24.147
			c0,1.333,0.529,3.049,2.154,3.049c1.605,0,2.062-1.754,2.062-3.049c0-1.26-0.438-2.994-2.027-2.994
			C67.893,21.153,67.272,22.833,67.272,24.147z"/>
		<path d="M75.195,19.473h2.171v2.136h0.037c0.109-0.876,1.113-2.355,2.574-2.355c0.238,0,0.494,0,0.749,0.072v2.465
			c-0.22-0.128-0.657-0.201-1.097-0.201c-1.987,0-1.987,2.482-1.987,3.833v3.45h-2.447V19.473z"/>
		<path d="M85.582,19.254c2.793,0,4.93,1.881,4.93,4.984c0,2.702-1.808,4.856-4.93,4.856c-3.104,0-4.91-2.154-4.91-4.856
			C80.672,21.135,82.807,19.254,85.582,19.254z M85.582,27.196c1.881,0,2.375-1.68,2.375-3.25c0-1.442-0.769-2.793-2.375-2.793
			c-1.589,0-2.354,1.387-2.354,2.793C83.228,25.498,83.719,27.196,85.582,27.196z"/>
		<path d="M92.41,21.262h-1.809v-1.789h1.809v-1.88l2.446-0.785v2.665h2.172v1.789h-2.172v4.381c0,0.805,0.22,1.553,1.15,1.553
			c0.438,0,0.858-0.091,1.113-0.256l0.073,1.935c-0.511,0.146-1.077,0.22-1.808,0.22c-1.917,0-2.976-1.187-2.976-3.049V21.262z"/>
		<path d="M105.607,28.346c-0.894,0.493-1.916,0.749-3.23,0.749c-3.104,0-4.911-1.79-4.911-4.875c0-2.72,1.443-4.966,4.363-4.966
			c3.488,0,4.474,2.392,4.474,5.678h-6.5c0.109,1.516,1.168,2.373,2.686,2.373c1.186,0,2.207-0.438,3.119-0.948V28.346z
			 M103.965,23.252c-0.073-1.187-0.619-2.208-1.987-2.208c-1.371,0-2.065,0.949-2.175,2.208H103.965z"/>
		<path d="M113.677,21.5c-0.438-0.2-0.912-0.347-1.661-0.347c-1.516,0-2.482,1.205-2.482,2.976c0,1.734,0.823,3.067,2.539,3.067
			c0.692,0,1.46-0.256,1.881-0.438l0.109,2.026c-0.714,0.219-1.444,0.311-2.446,0.311c-3.087,0-4.638-2.101-4.638-4.966
			c0-2.72,1.607-4.875,4.545-4.875c0.986,0,1.697,0.109,2.373,0.311L113.677,21.5z"/>
		<path d="M116.033,21.262h-1.808v-1.789h1.808v-1.88l2.446-0.785v2.665h2.172v1.789h-2.172v4.381c0,0.805,0.218,1.553,1.148,1.553
			c0.439,0,0.858-0.091,1.113-0.256l0.073,1.935c-0.51,0.146-1.077,0.22-1.806,0.22c-1.917,0-2.976-1.187-2.976-3.049V21.262z"/>
		<path d="M125.634,19.254c2.794,0,4.931,1.881,4.931,4.984c0,2.702-1.808,4.856-4.931,4.856c-3.103,0-4.911-2.154-4.911-4.856
			C120.723,21.135,122.859,19.254,125.634,19.254z M125.634,27.196c1.882,0,2.373-1.68,2.373-3.25c0-1.442-0.766-2.793-2.373-2.793
			c-1.588,0-2.354,1.387-2.354,2.793C123.28,25.498,123.771,27.196,125.634,27.196z"/>
		<path d="M131.531,19.473h2.172v2.136h0.038c0.108-0.876,1.113-2.355,2.573-2.355c0.237,0,0.492,0,0.747,0.072v2.465
			c-0.217-0.128-0.656-0.201-1.094-0.201c-1.99,0-1.99,2.482-1.99,3.833v3.45h-2.446V19.473z"/>
		<path d="M139.5,19.485c0.632,0,1.145,0.515,1.145,1.146c0,0.631-0.513,1.145-1.145,1.145s-1.145-0.514-1.145-1.145
			C138.355,20,138.868,19.485,139.5,19.485z M139.5,21.522c0.454,0,0.816-0.361,0.816-0.891c0-0.527-0.362-0.892-0.816-0.892
			c-0.461,0-0.816,0.365-0.816,0.892C138.684,21.161,139.039,21.522,139.5,21.522z M139.039,19.99h0.479
			c0.324,0,0.509,0.096,0.509,0.38c0,0.232-0.141,0.324-0.337,0.34l0.337,0.552h-0.28l-0.304-0.539h-0.13v0.539h-0.274V19.99z
			 M139.535,20.514c0.13,0,0.218-0.023,0.218-0.168c0-0.13-0.138-0.146-0.247-0.146h-0.192v0.314H139.535z"/>
	</g>
	<g>
		<polygon fill="#99CC00" points="21.821,16.465 4.079,16.465 12.934,25.342 		"/>
		<path fill="#99CC00" d="M12.934,27.972l-8.869-8.846v6.348h0.015c0,4.831,3.939,8.748,8.854,8.748c4.911,0,8.94-3.916,8.94-8.748
			v-6.465L12.934,27.972z"/>
		<path fill="#99CC00" d="M23.984,16.898v8.605c0,5.978-4.929,10.822-11.005,10.822c-6.077,0-11.005-4.845-11.005-10.822H1.957
			V14.36H3.96c5.371-0.293,8.974-1.687,8.974-1.687s3.562,1.394,9.011,1.687h1.982l1.94-1.941V12.41
			c-8.495,0-12.933-1.927-12.933-1.927S8.564,12.41,0,12.41v13.088h0.021c0,0.003,0,0.006,0,0.008c0,0.01-0.001,0.02-0.001,0.027
			c0,7.039,5.759,12.742,12.864,12.742c2.691,0,5.188-0.821,7.254-2.224c3.455-2.279,5.729-6.155,5.729-10.554V15.015L23.984,16.898
			z"/>
		<line fill="#87BC04" x1="12.934" y1="25.342" x2="4.065" y2="16.465"/>
		<polygon opacity="0.2" fill="#FFFFFF" points="12.934,25.342 21.821,16.465 12.934,16.465 12.934,25.334 		"/>
		<path opacity="0.2" fill="#FFFFFF" d="M20.138,36.052c3.455-2.279,5.729-6.155,5.729-10.554V15.015l-1.883,1.883v8.605
			c0,5.977-4.929,10.821-11.005,10.821c-0.015,0-0.029-0.002-0.045-0.002v1.951C15.606,38.263,18.085,37.444,20.138,36.052z"/>
		<path opacity="0.2" fill="#FFFFFF" d="M12.934,12.673c0,0,3.562,1.394,9.011,1.687h1.982l1.94-1.941V12.41
			c-8.495,0-12.933-1.927-12.933-1.927"/>
		<path opacity="0.2" fill="#FFFFFF" d="M12.934,27.972L12.934,27.972l0,6.25h0c4.911,0,8.94-3.916,8.94-8.748v-6.465L12.934,27.972
			z"/>
	</g>
</g>
</svg>
