<svg id="Layer_1" data-name="Layer 1" xmlns="http://www.w3.org/2000/svg" viewBox="0 0 600 180">
  <title>Artboard 1</title>
  <g>
    <path d="M161,73.79h8.27v4.76h.13A12,12,0,0,1,179.56,73c4.76,0,8.14,1.79,10.06,6,2-4.11,6.48-6,10.65-6,8.41,0,10.79,5.76,10.79,13.38v21.5H202.2V87.55c0-3.17,0-7.68-5.11-7.68-5.89,0-6.6,7-6.6,11.46v16.54h-8.88V87.55c0-3.17,0-7.68-5.1-7.68-5.89,0-6.61,7-6.61,11.46v16.54H161Z" style="fill: #fff"/>
    <path d="M219.21,75.57A30.49,30.49,0,0,1,231.05,73c10.4,0,14.7,4.29,14.7,14.36v4.37c0,3.44.06,6,.13,8.55s.19,5,.4,7.6h-7.81a36.71,36.71,0,0,1-.39-5.09h-.15a12.19,12.19,0,0,1-10.52,5.89c-6,0-11.92-3.64-11.92-10.13,0-5.1,2.46-8.07,5.83-9.73s7.75-2,11.45-2h4.89c0-5.48-2.44-7.34-7.67-7.34a17.9,17.9,0,0,0-10.52,3.7Zm10.38,26.61a7.52,7.52,0,0,0,6.23-3.05c1.46-1.91,1.84-4.36,1.84-7h-3.83c-4,0-9.86.67-9.86,5.89C224,100.93,226.43,102.18,229.59,102.18Z" style="fill: #fff"/>
    <path d="M252.36,59.09h8.87v8.48h-8.87Zm0,14.7h8.87v34.08h-8.87Z" style="fill: #fff"/>
    <path d="M268.46,58.23h8.86v49.64h-8.86Z" style="fill: #fff"/>
    <path d="M283.67,73.79h8.47v4.83h.13c2-3.31,5.37-5.63,10.59-5.63,10.47,0,14.31,8.35,14.31,17.74s-3.84,17.94-14.51,17.94a11.62,11.62,0,0,1-10-4.71h-.14v17.82h-8.87Zm8.93,16.94c0,4.83,1.92,11,7.81,11s7.49-6.35,7.49-11-1.58-10.86-7.34-10.86S292.6,86,292.6,90.73Z" style="fill: #fff"/>
    <path d="M321.33,73.79h7.88v7.75h.13c.4-3.19,4-8.55,9.34-8.55a9.88,9.88,0,0,1,2.71.26v8.94a9.14,9.14,0,0,0-4-.72c-7.22,0-7.22,9-7.22,13.9v12.5h-8.87Z" style="fill: #fff"/>
    <path d="M359,73c10.13,0,17.88,6.82,17.88,18.07,0,9.8-6.56,17.61-17.88,17.61s-17.8-7.81-17.8-17.61C341.19,79.81,348.94,73,359,73Zm0,28.79c6.83,0,8.61-6.09,8.61-11.78,0-5.23-2.79-10.13-8.61-10.13s-8.53,5-8.53,10.13C350.46,95.63,352.25,101.78,359,101.78Z" style="fill: #fff"/>
    <path d="M383.74,80.28H377.2V73.79h6.54V67l8.87-2.85v9.67h7.89v6.49h-7.89V96.15c0,2.92.8,5.63,4.18,5.63a8,8,0,0,0,4-.92l.25,7a23.2,23.2,0,0,1-6.55.8c-6.94,0-10.79-4.3-10.79-11.06Z" style="fill: #fff"/>
    <path d="M431.6,106a23.5,23.5,0,0,1-11.71,2.71c-11.26,0-17.81-6.49-17.81-17.67,0-9.86,5.22-18,15.83-18,12.64,0,16.21,8.67,16.21,20.59H410.55c.39,5.49,4.24,8.6,9.72,8.6a23,23,0,0,0,11.33-3.44Zm-6-18.47c-.27-4.31-2.25-8-7.22-8s-7.49,3.44-7.88,8Z" style="fill: #fff"/>
    <path d="M460.85,81.14a13.29,13.29,0,0,0-6-1.27c-5.48,0-9,4.37-9,10.79s3,11.12,9.2,11.12a18.82,18.82,0,0,0,6.82-1.58l.4,7.34a29,29,0,0,1-8.87,1.13c-11.19,0-16.82-7.61-16.82-18,0-9.86,5.83-17.67,16.49-17.67a28.58,28.58,0,0,1,8.61,1.13Z" style="fill: #fff"/>
    <path d="M469.39,80.28h-6.55V73.79h6.55V67l8.87-2.85v9.67h7.88v6.49h-7.88V96.15c0,2.92.79,5.63,4.17,5.63a8,8,0,0,0,4-.92l.27,7a23.33,23.33,0,0,1-6.56.8c-6.95,0-10.79-4.3-10.79-11.06Z" style="fill: #fff"/>
    <path d="M504.2,73c10.15,0,17.87,6.82,17.87,18.07,0,9.8-6.53,17.61-17.87,17.61s-17.8-7.81-17.8-17.61C486.4,79.81,494.15,73,504.2,73Zm0,28.79c6.83,0,8.62-6.09,8.62-11.78,0-5.23-2.79-10.13-8.62-10.13s-8.53,5-8.53,10.13C495.67,95.63,497.45,101.78,504.2,101.78Z" style="fill: #fff"/>
    <path d="M525.58,73.79h7.87v7.75h.15c.39-3.19,4-8.55,9.33-8.55a9.73,9.73,0,0,1,2.7.26v8.94a9,9,0,0,0-4-.72c-7.21,0-7.21,9-7.21,13.9v12.5h-8.87Z" style="fill: #fff"/>
    <path d="M554.48,73.82A4.16,4.16,0,1,1,550.34,78,4.15,4.15,0,0,1,554.48,73.82Zm0,7.39a3.24,3.24,0,1,0-3-3.23A3,3,0,0,0,554.48,81.21Zm-1.67-5.56h1.73c1.18,0,1.84.35,1.84,1.38,0,.85-.5,1.18-1.22,1.23l1.22,2h-1l-1.11-2h-.47v2h-1Zm1.78,1.91c.48,0,.82-.08.82-.61s-.52-.53-.92-.53h-.69v1.14Z" style="fill: #fff"/>
  </g>
  <g>
    <polygon points="127.82 61.31 63.5 61.31 95.6 93.49 127.82 61.31" style="fill: #fff"/>
    <path d="M95.6,103,63.44,71V94h.07A31.84,31.84,0,0,0,95.6,125.69c17.81,0,32.41-14.2,32.41-31.72V70.52Z" style="fill: #fff"/>
    <path d="M135.66,62.88v31.2c0,21.67-17.87,39.24-39.9,39.24s-39.9-17.57-39.9-39.24H55.8V53.68h7.26c19.47-1.06,32.54-6.11,32.54-6.11s12.92,5,32.67,6.11h7.18l7-7v0c-30.8,0-46.89-7-46.89-7s-15.84,7-46.89,7V94.06h.07v.12a46.72,46.72,0,0,0,72.94,38.15,45.85,45.85,0,0,0,20.77-38.27v-38Z" style="fill: #fff"/>
    <line x1="95.6" y1="93.49" x2="63.44" y2="61.31" style="fill: #fff"/>
  </g>
</svg>
