<svg id="Layer_1" data-name="Layer 1" xmlns="http://www.w3.org/2000/svg" viewBox="0 0 770 360">
  <title>product-hero-safesend-b</title>
  <line x1="405.35" y1="155.01" x2="405.35" y2="243.79" style="fill: none;stroke: #a91e23;stroke-miterlimit: 10;stroke-width: 4px"/>
  <line x1="382.59" y1="155.01" x2="382.59" y2="243.79" style="fill: none;stroke: #606060;stroke-miterlimit: 10;stroke-width: 4px"/>
  <line x1="393.47" y1="155.01" x2="393.47" y2="243.79" style="fill: none;stroke: #fce754;stroke-miterlimit: 10;stroke-width: 4px"/>
  <g>
    <rect x="356.59" y="270.85" width="25" height="24.77" style="fill: #fff"/>
    <g>
      <polygon points="356.59 270.85 369.05 283.31 381.56 270.81 356.59 270.85" style="fill: #a91e23"/>
      <polygon points="356.56 274.52 356.56 295.62 381.59 295.62 381.59 274.41 369 287 356.56 274.52" style="fill: #a91e23"/>
    </g>
  </g>
  <g>
    <path d="M374.52,322.71a15.36,15.36,0,0,0-4.25-1.54c-5.31,5.28-9,14.47-9,14.47l-1.4,1.07.54.67,1.24-1.36a1.63,1.63,0,0,0,.89-1c.35-.86,4.31-9.35,7.5-12.64a30.64,30.64,0,0,1,3.71.81Z" style="fill: #606060"/>
    <path d="M378.8,320.66a20.59,20.59,0,0,0-3.06-3.72,34.5,34.5,0,0,0-10.87,6.18c-.54.09-1.52.19-1.52.19l.09.73,1.59-.57s.44.32,1.14-.25a30.62,30.62,0,0,1,8.68-5.33c.95.95,3,3.18,3,3.18Z" style="fill: #606060"/>
    <path d="M385.58,334.14a15.32,15.32,0,0,1,1.4,4.29c-5.46,5.14-14.75,8.49-14.75,8.49l-1.12,1.36-.65-.56,1.4-1.2a1.63,1.63,0,0,1,1-.86c.86-.32,9.48-4,12.87-7.07a31.76,31.76,0,0,0-.68-3.74Z" style="fill: #606060"/>
    <path d="M387.77,329.92a20.74,20.74,0,0,1,3.62,3.18,34.6,34.6,0,0,1-6.54,10.66c-.11.54-.23,1.52-.23,1.52l-.73-.12.62-1.57s-.31-.45.29-1.13a30.82,30.82,0,0,0,5.61-8.5c-.92-1-3.08-3.07-3.08-3.07Z" style="fill: #606060"/>
    <path d="M371.82,340.27a11.68,11.68,0,0,0,8.06-1.25c3.61-1.8,6.84-5.83,8.53-12.41,2.94-3,3.12-4.92,3.62-5.64s1.72-1.12,2.08-.41c.57,1.12.63,3.51.3,5.67l-3.05-3-.41.81,3.14,3.73c-.64,2.46-4.88,13.51-10.34,20.14,6-6.17,10.33-17.72,10.94-20l.34-.11s3.67-3.77,4.75-4.85a8.87,8.87,0,0,0,1.58-2.11l2-.67-.33-.8-1.77,1.06s-.44-.33-1,.48-5.29,5.82-5.29,5.82c.45-2.33.65-5.51-.24-6.78-1-1.47-3.29-1.27-3.29-1.27l-1.29-1.33s.28-2.25-1.16-3.34c-1.25-.93-4.43-.83-6.78-.45,0,0,5.18-4.6,6-5.1s.51-1,.51-1l1.12-1.74-.8-.35-.73,1.93a8.79,8.79,0,0,0-2.16,1.51c-1.12,1.05-5,4.59-5,4.59l-.12.34c-2.32.53-14,4.46-20.37,10.28,6.8-5.24,18-9.12,20.46-9.68l3.64,3.25.82-.37-2.87-3.15c2.18-.26,4.57-.12,5.67.49.7.38.25,1.59-.48,2.06s-2.7.6-5.75,3.44c-6.64,1.47-10.77,4.57-12.68,8.11a11.66,11.66,0,0,0-1.52,8,10.46,10.46,0,0,1-.75,4.6A10.49,10.49,0,0,1,371.82,340.27Z" style="fill: #606060"/>
  </g>
  <path d="M432.59,277.18l-11.28-.1L430,264.82l-23.18-.2-8.6,21,5.71.05-3.06,18.13Z" style="fill: #fce754"/>
  <line x1="421.67" y1="244.95" x2="421.67" y2="355.87" style="fill: none;stroke: #444;stroke-miterlimit: 10;stroke-width: 4.459370000000001px"/>
  <line x1="365.37" y1="244.95" x2="365.37" y2="355.87" style="fill: none;stroke: #444;stroke-miterlimit: 10;stroke-width: 4.459370000000001px"/>
  <line x1="393.52" y1="244.95" x2="393.52" y2="355.87" style="fill: none;stroke: #444;stroke-miterlimit: 10;stroke-width: 4.459370000000001px"/>
  <line x1="337.22" y1="304.22" x2="422.01" y2="304.22" style="fill: none;stroke: #444;stroke-miterlimit: 10;stroke-width: 4.471080000000001px"/>
  <path d="M422.33,288.23v27.11H449V288.23Z" style="fill: #444;stroke: #444;stroke-miterlimit: 10;stroke-width: 4.325430000000001px"/>
  <path d="M340.5,244.76h106a3.28,3.28,0,0,1,3.28,3.28v106a3.29,3.29,0,0,1-3.29,3.29h-106a3.29,3.29,0,0,1-3.29-3.29V248a3.28,3.28,0,0,1,3.28-3.28Z" style="fill: none;stroke: #444;stroke-miterlimit: 10;stroke-width: 4.459370000000001px"/>
  <g>
    <path d="M439.42,296.89a3,3,0,1,1-2.95-3A3,3,0,0,1,439.42,296.89Z" style="fill: #fff"/>
    <polygon points="436.47 296.89 432.33 308.25 441.36 308.25 436.47 296.89" style="fill: #fff"/>
  </g>
  <path d="M35.48,236.82C35.48,132.39,92,41,283.24,41q12.83,0,25.33,1" style="fill: none;stroke: #9c0;stroke-linecap: round;stroke-linejoin: bevel;stroke-width: 4px"/>
  <path d="M52.55,258.29H18.37a9,9,0,0,0-9,9V295a9,9,0,0,0,9,9h1.35v54H51.21V304h1.34a9,9,0,0,0,9-9V267.27A9,9,0,0,0,52.55,258.29Zm-17.09-1.35a13.53,13.53,0,1,0-13.52-13.52A13.52,13.52,0,0,0,35.46,256.94Z" style="fill: #444"/>
  <path d="M737.72,236.82C737.72,132.39,681.2,41,490,41q-12.82,0-25.33,1" style="fill: none;stroke: #9c0;stroke-linecap: round;stroke-linejoin: bevel;stroke-width: 4px"/>
  <path d="M745,235.82C745,131.39,692,32,497.21,32c-8.61,0-16.87.32-25.34,1" style="fill: none;stroke: #606060;stroke-miterlimit: 10;stroke-width: 4px"/>
  <path d="M731.72,242.1C731.72,137.67,671.2,49.28,484,49.28c-8.55,0-17-2.67-25.33-2" style="fill: none;stroke: #fce754;stroke-miterlimit: 10;stroke-width: 4px"/>
  <path d="M724.72,247.21C724.72,142.79,657.2,56.4,477,56.4c-8.55,0-17-4.67-25.33-4" style="fill: none;stroke: #a91e23;stroke-miterlimit: 10;stroke-width: 4px"/>
  <g>
    <path d="M710.66,266c-4.27-48.59-8.66-98-50.88-136.5" style="fill: none;stroke: #e2e2e2;stroke-miterlimit: 10;stroke-width: 4px"/>
    <polyline points="659.78 142.88 659.78 129.54 672.58 130.21 659.78 129.54" style="fill: none;stroke: #e2e2e2;stroke-miterlimit: 10;stroke-width: 4px"/>
  </g>
  <g>
    <path d="M300.37,59.44C238.89,59.7,202.9,61,151.43,82.9" style="fill: none;stroke: #e2e2e2;stroke-miterlimit: 10;stroke-width: 4px"/>
    <polyline points="164.24 86.59 151.43 82.9 155.61 70.79 151.43 82.9" style="fill: none;stroke: #e2e2e2;stroke-miterlimit: 10;stroke-width: 4px"/>
  </g>
  <path d="M532.67,124.06c0-27.38-19.88-43.23-46-47.67,0-.61.05-1.22.05-1.82a70.43,70.43,0,0,0-135.48-27,32.36,32.36,0,0,0-55.94,29c-25.58,4.87-44.9,20.47-44.9,47.47a55.33,55.33,0,0,0,55.32,55.33h175.4l0-.15A55.31,55.31,0,0,0,532.67,124.06Z" style="fill: #636363;opacity: 0.30000000000000004"/>
  <path d="M529.67,117.37c0-26.79-19.45-42.31-45-46.66,0-.59,0-1.18,0-1.78a68.93,68.93,0,0,0-132.6-26.42,31.67,31.67,0,0,0-54.76,28.4c-25,4.77-43.94,20-43.94,46.46a54.15,54.15,0,0,0,54.15,54.16H479.22l0-.15A54.13,54.13,0,0,0,529.67,117.37Z" style="fill: #f2f2f2"/>
  <path d="M752.83,258.29H718.64a9,9,0,0,0-9,9V295a9,9,0,0,0,9,9H720v54h31.49V304h1.35a9,9,0,0,0,9-9V267.27A9,9,0,0,0,752.83,258.29Zm-17.1-1.35a13.53,13.53,0,1,0-13.54-13.52A13.51,13.51,0,0,0,735.73,256.94Z" style="fill: #444"/>
  <g>
    <rect x="22.99" y="275.86" width="25" height="24.77" style="fill: #fff"/>
    <g>
      <polygon points="22.99 275.86 35.45 288.33 47.95 275.82 22.99 275.86" style="fill: #9c0"/>
      <polygon points="22.96 279.53 22.96 300.64 47.99 300.64 47.99 279.42 35.4 292.02 22.96 279.53" style="fill: #9c0"/>
    </g>
  </g>
  <g>
    <g>
      <rect id="icon-background" x="356.54" y="56.88" width="74.62" height="74.62" rx="5" style="fill: #fff"/>
      <path d="M423.7,56.88H364a7.49,7.49,0,0,0-7.46,7.47V124a7.49,7.49,0,0,0,7.46,7.47h59.7a7.48,7.48,0,0,0,7.46-7.47V64.35A7.48,7.48,0,0,0,423.7,56.88Z" style="fill: #2089c8"/>
    </g>
    <g style="opacity: 0.1">
      <path d="M360.08,128c-1.95,1.94-3.54,1.29-3.54-1.47V61.89a5,5,0,0,1,5-5h64.62c2.75,0,3.41,1.59,1.47,3.54Z" style="fill: #fff"/>
    </g>
    <path d="M417.61,83.62v11a1.1,1.1,0,0,1-1.09,1.1h-4.39a1.1,1.1,0,0,1-1.1-1.1V89.38l-17.45,17.45h0l-3.11,3.1a1.09,1.09,0,0,1-1.55,0l-3.1-3.1h0L370.76,91.77a1.73,1.73,0,0,1-.25-.36,1.07,1.07,0,0,1-.07-.45V83.25c0-.89.47-.65.47-.65l18.8,18.79,16.67-16.67h-5.22a1.1,1.1,0,0,1-1.1-1.1V79.23a1.1,1.1,0,0,1,1.1-1.09h15.37a1.09,1.09,0,0,1,1.09,1.09Z" style="fill: #fff"/>
  </g>
</svg>
