<svg id="Layer_1" data-name="Layer 1" xmlns="http://www.w3.org/2000/svg" viewBox="0 0 770 360">
  <title>product-hero-cloudfilter-b</title>
  <line x1="0.51" y1="155.8" x2="378.78" y2="155.8" style="fill: none;stroke: #606060;stroke-miterlimit: 10;stroke-width: 4px"/>
  <line x1="0.51" y1="195.55" x2="378.78" y2="195.55" style="fill: none;stroke: #9c0;stroke-linecap: round;stroke-linejoin: bevel;stroke-width: 4px"/>
  <line x1="0.51" y1="212.43" x2="378.78" y2="212.43" style="fill: none;stroke: #a91e23;stroke-miterlimit: 10;stroke-width: 4px"/>
  <line x1="0.51" y1="175.68" x2="378.78" y2="175.68" style="fill: none;stroke: #fce754;stroke-miterlimit: 10;stroke-width: 4px"/>
  <path d="M370.49,220.79v40.13a30.09,30.09,0,0,0,30,30H708.06" style="fill: none;stroke: #9c0;stroke-linecap: round;stroke-linejoin: bevel;stroke-width: 4px"/>
  <path d="M367.49,108.9V68.77a30.09,30.09,0,0,1,30-30H654.77" style="fill: none;stroke: #a91e23;stroke-miterlimit: 10;stroke-width: 4px"/>
  <path d="M386.62,125.18V75a20.06,20.06,0,0,1,20-20H654" style="fill: none;stroke: #fce754;stroke-miterlimit: 10;stroke-width: 4px"/>
  <path d="M406.62,142.18V82a10,10,0,0,1,10-10H657" style="fill: none;stroke: #606060;stroke-miterlimit: 10;stroke-width: 4px"/>
  <path d="M511.62,208.47c0-27.38-19.88-43.23-46-47.67,0-.6.05-1.21.05-1.82A70.43,70.43,0,0,0,330.2,132a32.36,32.36,0,0,0-55.94,29c-25.58,4.88-44.9,20.47-44.9,47.47a55.32,55.32,0,0,0,55.32,55.33h175.4l0-.14A55.32,55.32,0,0,0,511.62,208.47Z" style="fill: #636363;opacity: 0.30000000000000004"/>
  <path d="M508.62,201.79c0-26.8-19.45-42.31-45-46.66,0-.59.05-1.19.05-1.78a68.93,68.93,0,0,0-132.6-26.43,31.67,31.67,0,0,0-54.76,28.4c-25,4.78-43.94,20-43.94,46.47a54.15,54.15,0,0,0,54.15,54.15H458.17l0-.14A54.14,54.14,0,0,0,508.62,201.79Z" style="fill: #f2f2f2"/>
  <path d="M731.83,258.56H697.64a9,9,0,0,0-9,9v27.75a9,9,0,0,0,9,9H699v54h31.49v-54h1.35a9,9,0,0,0,9-9V267.54A9,9,0,0,0,731.83,258.56Zm-17.09-1.36a13.53,13.53,0,1,0-13.53-13.52A13.51,13.51,0,0,0,714.74,257.2Z" style="fill: #444"/>
  <g>
    <rect x="702.25" y="278.05" width="25" height="24.77" style="fill: #fff"/>
    <g>
      <polygon points="702.25 278.05 714.71 290.51 727.22 278.01 702.25 278.05" style="fill: #9c0"/>
      <polygon points="702.22 281.72 702.22 302.82 727.25 302.82 727.25 281.61 714.66 294.2 702.22 281.72" style="fill: #9c0"/>
    </g>
  </g>
  <g>
    <rect x="674.14" y="28.4" width="25" height="24.77" style="fill: #fff"/>
    <g>
      <polygon points="674.14 28.4 686.6 40.87 699.11 28.36 674.14 28.4" style="fill: #a91e23"/>
      <polygon points="674.11 32.07 674.11 53.18 699.14 53.18 699.14 31.96 686.55 44.55 674.11 32.07" style="fill: #a91e23"/>
    </g>
  </g>
  <g>
    <path d="M692.07,80.26a15.49,15.49,0,0,0-4.25-1.53c-5.31,5.28-9,14.47-9,14.47l-1.4,1.07.54.67,1.24-1.36a1.64,1.64,0,0,0,.89-1c.35-.85,4.32-9.34,7.5-12.63a30.64,30.64,0,0,1,3.71.81Z" style="fill: #606060"/>
    <path d="M696.36,78.21a20.82,20.82,0,0,0-3.07-3.72,34.86,34.86,0,0,0-10.87,6.19c-.54.09-1.52.18-1.52.18l.09.73,1.59-.56s.45.31,1.14-.25a30.81,30.81,0,0,1,8.68-5.34c1,1,3,3.19,3,3.19Z" style="fill: #606060"/>
    <path d="M703.13,91.7a15.32,15.32,0,0,1,1.4,4.29c-5.45,5.14-14.75,8.48-14.75,8.48l-1.12,1.36-.65-.55,1.4-1.2a1.63,1.63,0,0,1,1-.86c.86-.32,9.48-4,12.87-7.08a29.32,29.32,0,0,0-.68-3.73Z" style="fill: #606060"/>
    <path d="M705.32,87.48a20.36,20.36,0,0,1,3.62,3.18,34.72,34.72,0,0,1-6.54,10.66c-.11.54-.23,1.52-.23,1.52l-.73-.12.62-1.57s-.31-.45.29-1.13a30.82,30.82,0,0,0,5.61-8.5c-.92-1-3.08-3.08-3.08-3.08Z" style="fill: #606060"/>
    <path d="M689.37,97.83a11.73,11.73,0,0,0,8.07-1.26c3.6-1.79,6.83-5.83,8.52-12.41,2.94-3,3.12-4.92,3.62-5.63s1.72-1.13,2.08-.42c.57,1.12.63,3.51.3,5.68l-3.05-3-.4.82,3.13,3.73c-.64,2.46-4.88,13.51-10.34,20.14,6-6.17,10.33-17.73,10.94-20l.34-.12s3.67-3.76,4.75-4.84a8.75,8.75,0,0,0,1.58-2.11l2-.67-.33-.8-1.77,1s-.44-.33-1,.48-5.29,5.83-5.29,5.83c.45-2.34.66-5.51-.23-6.78-1-1.48-3.3-1.27-3.3-1.27l-1.29-1.34s.28-2.25-1.16-3.33c-1.25-.93-4.42-.83-6.77-.46,0,0,5.17-4.59,6-5.1s.51-1,.51-1l1.12-1.74-.79-.35-.74,1.94a8.79,8.79,0,0,0-2.16,1.51c-1.12,1-5,4.58-5,4.58l-.13.34c-2.31.53-14,4.47-20.37,10.29,6.81-5.25,18-9.12,20.46-9.68l3.64,3.25.82-.37-2.86-3.15c2.17-.26,4.56-.12,5.66.49.7.38.25,1.58-.48,2.06s-2.7.59-5.75,3.44c-6.64,1.47-10.77,4.56-12.68,8.11a11.66,11.66,0,0,0-1.52,8,10.46,10.46,0,0,1-.75,4.6A10.49,10.49,0,0,1,689.37,97.83Z" style="fill: #606060"/>
  </g>
  <path d="M750.14,34.73l-11.28-.09,8.69-12.27-23.18-.19-8.6,21,5.71,0-3.06,18.14Z" style="fill: #fce754"/>
  <line x1="739.22" y1="2.5" x2="739.22" y2="113.43" style="fill: none;stroke: #444;stroke-miterlimit: 10;stroke-width: 4.459370000000001px"/>
  <line x1="682.92" y1="2.5" x2="682.92" y2="113.43" style="fill: none;stroke: #444;stroke-miterlimit: 10;stroke-width: 4.459370000000001px"/>
  <line x1="711.07" y1="2.5" x2="711.07" y2="113.43" style="fill: none;stroke: #444;stroke-miterlimit: 10;stroke-width: 4.459370000000001px"/>
  <line x1="654.77" y1="61.78" x2="739.56" y2="61.78" style="fill: none;stroke: #444;stroke-miterlimit: 10;stroke-width: 4.471080000000001px"/>
  <path d="M739.89,45.79v27.1h26.65V45.79Z" style="fill: #444;stroke: #444;stroke-miterlimit: 10;stroke-width: 4.325430000000001px"/>
  <rect x="654.77" y="2.31" width="112.59" height="112.59" rx="3.28" style="fill: none;stroke: #444;stroke-miterlimit: 10;stroke-width: 4.459370000000001px"/>
  <g>
    <path d="M757,54.45a3,3,0,1,1-3-3A2.95,2.95,0,0,1,757,54.45Z" style="fill: #fff"/>
    <polygon points="754.02 54.45 749.88 65.8 758.91 65.8 754.02 54.45" style="fill: #fff"/>
  </g>
  <g>
    <path d="M402,146.22H343.18a7.38,7.38,0,0,0-7.35,7.36v58.84a7.38,7.38,0,0,0,7.35,7.36H402a7.38,7.38,0,0,0,7.36-7.36V153.58A7.38,7.38,0,0,0,402,146.22Z" style="fill: #e1392b"/>
    <path d="M349.89,167.86a1.08,1.08,0,0,1,1.08-1.08h23.79a1.08,1.08,0,0,1,1.09,1.08v4.32a1.09,1.09,0,0,1-1.09,1.09H351a1.08,1.08,0,0,1-1.08-1.09Zm26,30.28a1.08,1.08,0,0,1-1.09,1.08H351a1.08,1.08,0,0,1-1.08-1.08v-4.32a1.08,1.08,0,0,1,1.08-1.09h23.79a1.09,1.09,0,0,1,1.09,1.09Zm21.32-14.38-3.06,3.06h0l-7.65,7.65a1.09,1.09,0,0,1-1.53,0l-3.06-3.06a1.09,1.09,0,0,1,0-1.53l3.64-3.64H351a1.08,1.08,0,0,1-1.08-1.08v-4.32a1.08,1.08,0,0,1,1.08-1.08h34.54l-3.64-3.64a1.09,1.09,0,0,1,0-1.53l3.06-3.06a1.09,1.09,0,0,1,1.53,0l10.71,10.71A1.07,1.07,0,0,1,397.17,183.76Z" style="fill: #fff"/>
  </g>
  <g style="opacity: 0.1">
    <path d="M339.36,213.24c-1.94,1.94-3.53,1.28-3.53-1.47V148.23a5,5,0,0,1,5-5h63.55c2.75,0,3.41,1.6,1.46,3.54Z" style="fill: #fff"/>
  </g>
</svg>
