<svg id="Layer_1" data-name="Layer 1" xmlns="http://www.w3.org/2000/svg" xmlns:xlink="http://www.w3.org/1999/xlink" viewBox="0 0 770 360">
  <defs>
    <linearGradient id="linear-gradient" x1="83.66" y1="175.77" x2="64.96" y2="175.77" gradientTransform="translate(-21.51)" gradientUnits="userSpaceOnUse">
      <stop offset="0" stop-color="#fff"/>
      <stop offset="1"/>
    </linearGradient>
  </defs>
  <title>product-hero-xtramail-b</title>
  <path d="M388.44,0V21a16.59,16.59,0,0,0,14.95,16.22l271.73,22.1a16.6,16.6,0,0,1,15,16.22v77.85A17.13,17.13,0,0,1,675.16,170L403.35,199.26c-8.2.89-14.91,8-14.91,15.72V229.1" style="fill: none;stroke: #9c0;stroke-linecap: round;stroke-linejoin: bevel;stroke-width: 4px"/>
  <path d="M388.44,241.82V219.66a21.26,21.26,0,0,1,18.33-20.57l263.36-30.36" style="fill: none;stroke: #9c0;stroke-linecap: round;stroke-linejoin: bevel;stroke-width: 4px"/>
  <path d="M380.54,0V21a16.59,16.59,0,0,1-15,16.21L91.09,59.33a16.59,16.59,0,0,0-15,16.21v77.85A17.12,17.12,0,0,0,91.06,170l274.56,29.29c8.21.87,14.92,7.94,14.92,15.7V229.1" style="fill: none;stroke: #a91e23;stroke-miterlimit: 10;stroke-width: 4px"/>
  <g>
    <polygon points="407.87 355.87 387.65 355.87 383.53 356.75 380.89 358.52 362.95 358.52 362.95 321.15 407.87 321.15 407.87 355.87" style="fill: #444"/>
    <polygon points="407.87 355.87 387.65 355.87 383.53 356.75 380.89 358.52 362.95 358.52 362.95 321.15 407.87 321.15 407.87 355.87" style="opacity: 0.15"/>
    <rect x="378.34" y="320.97" width="12.14" height="22.24"/>
    <g>
      <rect x="342.72" y="221.86" width="85.37" height="47.29" style="opacity: 0.25"/>
      <rect x="346.56" y="225.55" width="77.84" height="39.92" style="fill: #9c0;opacity: 0.75"/>
      <rect x="304.34" y="276.52" width="168.83" height="7.37" style="fill: #5b340e"/>
      <g>
        <rect x="348.66" y="225.55" width="40.1" height="14.93" style="fill: #f5f5f5;opacity: 0.15"/>
        <rect x="348.66" y="245.51" width="27.89" height="3.52" style="fill: #f5f5f5;opacity: 0.15"/>
        <rect x="395.16" y="227.36" width="24.73" height="26.09" style="fill: #f5f5f5;opacity: 0.15"/>
        <rect x="348.66" y="251.68" width="13.8" height="10.1" style="fill: #f5f5f5;opacity: 0.15"/>
        <rect x="365.6" y="251.68" width="14.93" height="10.1" style="fill: #f5f5f5;opacity: 0.15"/>
      </g>
      <rect x="318.89" y="300.9" width="138.68" height="7.37" style="fill: #5b340e"/>
      <polygon points="410.11 273.88 409.07 277.58 436.2 291.24 424.4 278.67 410.11 273.88" style="fill: #444"/>
      <rect x="359" y="256.51" width="52.05" height="62.69" style="fill: #444"/>
      <polygon points="359 256.51 337.49 291.66 359.14 292.94 359 256.51" style="fill: #444"/>
      <polygon points="410.82 274.43 411.05 278.9 436.2 291.24 424.4 278.67 410.82 274.43" style="opacity: 0.15"/>
      <polygon points="411.05 256.51 410.82 275.26 436.2 291.24 436.2 273.9 411.05 256.51" style="fill: #444"/>
      <rect x="362.45" y="261.78" width="45.14" height="27.64"/>
      <rect x="354.07" y="315.11" width="62.35" height="6.05"/>
      <polygon points="374.2 275.6 378.11 275.6 378.11 281.2 391.24 281.2 391.24 275.6 395.15 275.6 395.15 284.94 388.75 284.94 388.75 319.2 379.96 319.2 379.96 284.94 374.2 284.94 374.2 275.6" style="fill: #636363"/>
      <polygon points="354.07 292.67 359.14 283.4 359.14 292.94 354.07 292.67" style="opacity: 0.15"/>
      <g>
        <rect x="313.55" y="283.89" width="6.75" height="6.76" style="fill: #5b340e"/>
        <rect x="313.55" y="283.89" width="6.75" height="6.76" style="fill: #f5f5f5;opacity: 0.25"/>
        <rect x="313.55" y="290.65" width="6.75" height="20.51" style="fill: #5b340e"/>
        <rect x="313.55" y="311.16" width="6.75" height="35.6" style="fill: #5b340e"/>
        <rect x="313.55" y="311.16" width="6.75" height="35.6" style="fill: #f5f5f5;opacity: 0.25"/>
      </g>
      <g>
        <rect x="457.57" y="283.01" width="6.76" height="6.76" style="fill: #5b340e"/>
        <rect x="457.57" y="283.01" width="6.76" height="6.76" style="fill: #f5f5f5;opacity: 0.25"/>
        <rect x="457.57" y="289.76" width="6.76" height="20.51" style="fill: #5b340e"/>
        <rect x="457.57" y="310.27" width="6.76" height="35.6" style="fill: #5b340e"/>
        <rect x="457.57" y="310.27" width="6.76" height="35.6" style="fill: #f5f5f5;opacity: 0.25"/>
      </g>
      <path d="M403,238.88c0,10.72-8.38,19.4-18.7,19.4s-18.7-8.68-18.7-19.4,8.37-19.41,18.7-19.41S403,228.16,403,238.88Z" style="fill: #444"/>
    </g>
    <polygon points="377.02 343.22 380.53 352.65 388.75 352.65 391.57 343.22 377.02 343.22" style="fill: #636363"/>
    <rect x="380.54" y="352.65" width="8.2" height="8.21" style="fill: #1e1e1e"/>
    <rect x="353.26" y="352.65" width="4.1" height="8.21" style="fill: #1e1e1e"/>
    <rect x="411.05" y="352.65" width="4.1" height="8.21" style="fill: #1e1e1e"/>
    <polygon points="378.33 342.38 354.07 352.65 356.61 352.65 378.33 346.75 378.33 342.38" style="fill: #636363"/>
    <polygon points="390.48 342.38 414.35 352.65 411.82 352.65 390.48 346.39 390.48 342.38" style="fill: #636363"/>
  </g>
  <g>
    <g>
      <g>
        <polygon points="78.07 130.2 88.81 132.25 88.21 219.51 77.99 221.35 78.07 130.2"/>
        <path d="M92.39,214.79a4.78,4.78,0,0,1-4.77,4.78l-28.95,1.88a4.78,4.78,0,0,1-4.78-4.78V136.88a4.78,4.78,0,0,1,4.78-4.78h29a4.78,4.78,0,0,1,4.77,4.78Z"/>
        <path d="M81.94,216.64a4.77,4.77,0,0,1-4.77,4.78H48.22a4.78,4.78,0,0,1-4.77-4.78V134.89a4.78,4.78,0,0,1,4.77-4.78h29a4.77,4.77,0,0,1,4.77,4.78Z" style="fill: #333"/>
        <g>
          <g>
            <rect x="48.92" y="182.36" width="27.16" height="1.58" style="opacity: 0.35000000000000003"/>
            <rect x="48.92" y="181.25" width="27.16" height="1.58" style="fill: #ccc"/>
          </g>
          <g>
            <rect x="48.92" y="190.11" width="27.16" height="1.58" style="opacity: 0.35000000000000003"/>
            <rect x="48.92" y="189" width="27.16" height="1.58" style="fill: #ccc"/>
          </g>
          <g>
            <rect x="48.92" y="197.64" width="27.16" height="1.58" style="opacity: 0.35000000000000003"/>
            <rect x="48.92" y="196.53" width="27.16" height="1.58" style="fill: #ccc"/>
          </g>
          <g>
            <path d="M66.78,210.22a4.08,4.08,0,1,1-4.08-4.08A4.08,4.08,0,0,1,66.78,210.22Z" style="fill: #232323"/>
            <path d="M66,210.22a3.29,3.29,0,1,1-3.28-3.28A3.28,3.28,0,0,1,66,210.22Z" style="fill: #3f3f3f"/>
          </g>
        </g>
        <path d="M62.7,221.42H48.22a4.78,4.78,0,0,1-4.77-4.78V134.89a4.78,4.78,0,0,1,4.77-4.78H62.7Z" style="opacity: 0.05;fill: url(#linear-gradient)"/>
        <polygon points="82 143.38 90 144.67 90 152.69 85 152.57 85 147.53 82 146.95 82 143.38" style="fill: #c62020"/>
        <path d="M46,171V136.36C46,134,47.81,131,50.18,131H75.12c2.37,0,5.88,3,5.88,5.36V171Z" style="opacity: 0.33"/>
      </g>
      <path d="M60,135v4h3v-4Zm2.62,2.35a1,1,0,1,1,1-1A1,1,0,0,1,62.62,137.35Z" style="fill: #333"/>
    </g>
    <g style="opacity: 0.35000000000000003">
      <path d="M70.29,144.58v3.89H66.13v-3.89Zm-11.45,0v3.89H54.71v-3.89Z"/>
      <path d="M76.08,162.48c-3.09-1-8.09-2.72-13.61-2.72-4.14,0-7.22.87-13.55,2.69v-3.37A35.73,35.73,0,0,1,62.31,156c4.76,0,9.35,1.42,13.77,3.15Z"/>
    </g>
    <g>
      <path d="M70.29,143.74v3.89H66.13v-3.89Zm-11.45,0v3.89H54.71v-3.89Z" style="fill: #ccc"/>
      <path d="M76.08,161.64c-3.09-1-8.09-2.71-13.61-2.71-4.14,0-7.22.86-13.55,2.69v-3.37a35.56,35.56,0,0,1,13.39-3.12c4.76,0,9.35,1.42,13.77,3.15Z" style="fill: #ccc"/>
    </g>
  </g>
  <path d="M766,193c0-27.38-19.88-43.23-46-47.67,0-.61.05-1.22.05-1.82a70.43,70.43,0,0,0-135.48-27,32.37,32.37,0,0,0-56,29c-25.57,4.88-44.9,20.48-44.9,47.48a55.33,55.33,0,0,0,55.33,55.33H714.47l0-.15A55.31,55.31,0,0,0,766,193Z" style="fill: #636363;opacity: 0.30000000000000004"/>
  <path d="M763,186.32c0-26.8-19.46-42.31-45-46.66,0-.59,0-1.18,0-1.78a68.93,68.93,0,0,0-132.59-26.42,31.67,31.67,0,0,0-54.76,28.4c-25,4.77-44,20-44,46.46a54.16,54.16,0,0,0,54.16,54.15H712.57l0-.14A54.13,54.13,0,0,0,763,186.32Z" style="fill: #f2f2f2"/>
  <path d="M62.91,85.43c-2.3,5.73-9,8.93-8.28,15.7.89,8.08,13.76,15.65,1.12,20.7-1.24.5-.12,1.35.81,1,2.33-.93,5.9-2.28,6.73-5,.93-3.05-1-5.89-2.48-8.42-2.59-4.3-6-8.93-3.2-14,2-3.63,5.52-5.86,7.13-9.86.39-1-1.55-.82-1.83-.13Z" style="fill: #c6c6c6"/>
  <path d="M65.83,96.18c-2.85,4.49-.46,7.8,1.09,12.31,1.84,5.37-4.83,9.32-1.08,14.22.46.6,2.32-.1,1.79-.79-2.95-3.86,2-8.42,1.49-12.82-.53-4.9-4.7-7.72-1.47-12.81.52-.82-1.44-.71-1.82-.11Z" style="fill: #c6c6c6"/>
  <g>
    <g>
      <path d="M657.37,126h-60a7.52,7.52,0,0,0-7.5,7.5v60a7.52,7.52,0,0,0,7.5,7.5h60a7.53,7.53,0,0,0,7.5-7.5v-60A7.52,7.52,0,0,0,657.37,126Z" style="fill: #96c83c"/>
      <path d="M638.26,177.64a14.16,14.16,0,0,1-14.16-14.15h0a7.56,7.56,0,1,0-2.36,5.55.65.65,0,0,1,.57-.13.55.55,0,0,1,.34.39,14.05,14.05,0,0,0,2.5,4.65.59.59,0,0,1,.12.41.53.53,0,0,1-.2.37,14.15,14.15,0,1,1,5.56-11.24h0A7.61,7.61,0,1,0,633,158a.49.49,0,0,1-.46.15.65.65,0,0,1-.44-.38,13.81,13.81,0,0,0-2.6-4.63.71.71,0,0,1-.12-.47.65.65,0,0,1,.21-.33,14.15,14.15,0,1,1,8.68,25.33Z" style="fill: #fff"/>
    </g>
    <g style="opacity: 0.1">
      <path d="M593.41,197.45c-1.95,1.94-3.54,1.28-3.54-1.47V131a5,5,0,0,1,5-5h65c2.75,0,3.41,1.59,1.46,3.53Z" style="fill: #fff"/>
    </g>
  </g>
</svg>
