<svg id="Layer_1" data-name="Layer 1" xmlns="http://www.w3.org/2000/svg" viewBox="0 0 770 360">
  <title>product-hero-exchange+-b</title>
  <path d="M770,234.18c0-39.53-28.71-62.42-66.41-68.83,0-.88.07-1.76.07-2.63a101.69,101.69,0,0,0-195.62-39,46.71,46.71,0,0,0-80.78,41.89c-36.93,7.05-64.83,29.57-64.83,68.55a79.88,79.88,0,0,0,79.88,79.89H695.57l-.05-.21A79.87,79.87,0,0,0,770,234.18Z" style="fill: #636363;opacity: 0.30000000000000004"/>
  <path d="M765.67,224.53c0-38.7-28.1-61.1-65-67.38,0-.85.06-1.71.06-2.57a99.53,99.53,0,0,0-191.45-38.15,45.73,45.73,0,0,0-79.07,41c-36.14,6.9-63.45,28.94-63.45,67.1A78.19,78.19,0,0,0,445,302.72H692.82l-.05-.2A78.19,78.19,0,0,0,765.67,224.53Z" style="fill: #f2f2f2"/>
  <path d="M127.89,213.15h83a33.42,33.42,0,0,1,33.32,33.32v71.85a33.43,33.43,0,0,0,33.32,33.32H547.21a33.42,33.42,0,0,0,33.32-33.32V65.57a33.41,33.41,0,0,0-33.32-33.32H210a31.89,31.89,0,0,1-32-33.3L180-54.65" style="fill: none;stroke: #e2e2e2;stroke-miterlimit: 10;stroke-width: 4px"/>
  <g>
    <g>
      <polygon points="121.56 334.54 116.23 332.31 167.63 258.42 176 254.3 121.56 334.54" style="fill: #5b340e"/>
      <polygon points="121.56 334.54 116.23 332.31 167.63 258.42 176 254.3 121.56 334.54" style="fill: #f5f5f5;opacity: 0.25"/>
      <polygon points="115 278.45 115 285.59 122 288.29 122 281.17 115 278.45" style="fill: #5b340e"/>
      <polygon points="115 278.45 115 285.59 122 288.29 122 281.17 115 278.45" style="fill: #f5f5f5;opacity: 0.25"/>
      <polygon points="122 288.29 181.74 304.76 188.01 301.57 125.94 279.12 122 281.17 122 288.29" style="fill: #5b340e"/>
      <polygon points="122 288.29 181.74 304.76 188.01 301.57 125.94 279.12 122 281.17 122 288.29" style="opacity: 0.15"/>
      <polygon points="187.74 248.52 130.66 330.02 121.56 334.54 176 254.3 187.74 248.52" style="fill: #5b340e"/>
      <polygon points="187.74 248.52 130.66 330.02 121.56 334.54 176 254.3 187.74 248.52" style="opacity: 0.15"/>
    </g>
    <g>
      <polygon points="19 237.51 19 244.45 25 247.09 25 240.16 19 237.51" style="fill: #f5f5f5;opacity: 0.25"/>
      <polygon points="25 247.09 82.66 263.09 88.56 259.99 28.54 238.17 25 240.16 25 247.09" style="fill: #5b340e"/>
      <polygon points="19 237.51 19 244.45 25 247.09 25 240.16 19 237.51" style="fill: #5b340e"/>
      <g>
        <polygon points="25 247.09 82.66 263.09 88.56 259.99 28.54 238.17 25 240.16 25 247.09" style="opacity: 0.15"/>
        <polygon points="23.62 292.03 18.29 289.8 69.69 215.91 78.06 211.79 23.62 292.03" style="fill: #5b340e"/>
        <polygon points="23.62 292.03 18.29 289.8 69.69 215.91 78.06 211.79 23.62 292.03" style="fill: #f5f5f5;opacity: 0.25"/>
        <polygon points="19 237.51 19 244.45 25 247.09 25 240.16 19 237.51" style="fill: #f5f5f5;opacity: 0.25"/>
      </g>
    </g>
    <polygon points="79.25 204.69 23.77 283.89 14.93 288.29 67.84 210.31 79.25 204.69" style="fill: #5b340e"/>
    <polygon points="72.32 202.14 9.97 228.91 132.65 280.83 199.09 247.84 72.32 202.14" style="fill: #916b3f"/>
    <polygon points="132 280.83 132 285.93 199 253.28 199 247.84 132 280.83" style="fill: #5b340e"/>
    <polygon points="132 280.83 132 285.93 199 253.28 199 247.84 132 280.83" style="opacity: 0.15"/>
    <polygon points="10 228.91 132 280.83 132 285.93 10 233.93 10 228.91" style="fill: #5b340e"/>
    <polygon points="10 228.91 132 280.83 132 285.93 10 233.93 10 228.91" style="opacity: 0"/>
    <polyline points="64.29 328.1 64.09 333.06 60.91 331.5 60.98 326.87 64.29 328.1" style="fill: #1e1e1e"/>
    <polyline points="42.33 340.31 68.2 351.22 73.98 348.39 50.72 337.83 64.29 328.1 58.8 326.06 43.38 335.24" style="fill: #636363"/>
    <polygon points="15 328.1 15 333.54 19.75 331.42 20.16 326.21 15 328.1" style="fill: #1e1e1e"/>
    <polygon points="37.85 337.76 15 328.08 19.66 326.21 41.63 335.32 37.85 337.76" style="fill: #636363"/>
    <polygon points="42 340.34 51 337.83 51 306.67 42 322.2 42 340.34" style="fill: #1e1e1e"/>
    <g>
      <polygon points="69 327.76 60 322.32 60 298.17 69 299.31 69 327.76" style="fill: #444"/>
      <polygon points="69 327.76 60 322.32 60 298.17 69 299.31 69 327.76" style="opacity: 0.15"/>
      <polygon points="39.7 314.14 69 299.31 69 327.76 84 319.43 84 276.75 75.33 274.03 39.88 298.17 39.7 314.14" style="fill: #444"/>
    </g>
    <polygon points="91 331.98 78 326.4 78 302.25 91 303.39 91 331.98" style="fill: #444"/>
    <polygon points="91 331.98 78 326.4 78 302.25 91 303.39 91 331.98" style="opacity: 0.15"/>
    <polygon points="37 306.67 37 337.72 42 340.34 42 307.35 37 306.67" style="fill: #1e1e1e"/>
    <polygon points="10.92 306.33 58.21 326.34 81.98 311.77 37.67 293.4 10.92 306.33"/>
    <polygon points="11 306.33 11 309.73 58.99 330.14 59.27 326.34 11 306.33" style="fill: #1e1e1e"/>
    <polygon points="81.98 311.77 82.19 315.52 58.96 330.14 58.53 326.06 81.98 311.77" style="fill: #1e1e1e"/>
    <polygon points="68 351.22 68 356.84 73.51 353.94 73.7 348.36 68 351.22" style="fill: #1e1e1e"/>
    <polygon points="36.84 337.72 19.06 351.22 23.79 353.44 42.39 340.34 36.84 337.72" style="fill: #636363"/>
    <polygon points="19 351.25 19 356.66 24 358.7 24 353.44 19 351.25" style="fill: #1e1e1e"/>
    <polygon points="25.12 294.04 40.11 290.74 39.67 275.56 21.95 279.25 25.12 294.04" style="fill: #fff;stroke: #000;stroke-linecap: round;stroke-linejoin: round;stroke-width: 0.6801389999999999px"/>
    <polygon points="23.16 252.59 12.94 291.02 25.21 294.02 38.22 258.15 23.16 252.59" style="fill: #444"/>
    <polygon points="23.16 252.59 12.94 291.02 25.21 294.02 38.22 258.15 23.16 252.59" style="opacity: 0.15"/>
    <polygon points="25 303.01 63 318.24 63 266.88 25 252.59 25 303.01" style="fill: #444"/>
    <polygon points="62.99 318.24 91 303.39 91 331.98 104 323.51 104 281.32 60.9 301.75 62.99 318.24" style="fill: #444"/>
    <polygon points="17.45 257.76 54 271.65 54 296.26 17.32 281.48 17.45 257.76"/>
    <polygon points="104.41 281.32 90.82 275.5 64.29 288.29 62.76 301.21 104.41 281.32" style="fill: #444"/>
    <polygon points="104.41 281.32 90.82 275.5 64.29 288.29 62.76 301.21 104.41 281.32" style="fill: #f5f5f5;opacity: 0.25"/>
    <polygon points="29 284.57 29 314.49 35 317.03 35 286.61 39 287.97 39 280.02 37 279.32 37 284.91 28.99 281.76 29.05 276.25 27 275.5 27 283.24 29 284.57" style="fill: #636363"/>
    <polyline points="63 269 63 301.21 74 295.9 74 261.18 61.29 266.75 23.19 252.59 38.08 245.8 73.99 261.08" style="fill: #444"/>
    <polygon points="105.69 254.69 113.94 262.06 114.42 269.7 105.29 263.83 105.69 254.69" style="fill: #444"/>
    <polygon points="115 242.4 115 246.48 110.98 245.44 113.78 241.91 115 242.4" style="fill: #fff"/>
    <polygon points="115 242.4 115 246.48 110.98 245.44 113.78 241.91 115 242.4" style="opacity: 0.25"/>
    <polyline points="75.18 261.18 61.57 266.88 23.16 252.59 38.22 245.8 75.18 261.18" style="fill: #f5f5f5;opacity: 0.25"/>
    <polygon points="73.63 261.28 87.77 270.42 103.2 255.66 111.39 263.04 88.1 285.41 61.22 266.75 73.63 261.28" style="fill: #444"/>
    <polygon points="63 277.02 74 284.8 74 295.9 63 301.21 63 277.02" style="opacity: 0.15"/>
    <polyline points="102.17 255.95 115.3 246.48 109.23 244.91 102.17 255.66" style="opacity: 0.25"/>
    <polygon points="61.34 266.75 62.95 277.08 88 296.7 88 285.25 61.34 266.75" style="fill: #444"/>
    <polygon points="73.64 226.9 115.3 242.23 102.17 255.95 60.04 238.15 73.64 226.9" style="fill: #fff"/>
    <polygon points="122 261.7 124.17 263.67 114.39 270.83 111.7 269.37 111.48 267.88 114.42 269.7 122 264.14 122 261.7" style="opacity: 0.25"/>
    <polygon points="73.64 226.9 115.3 242.23 102.17 255.95 60.04 238.15 73.64 226.9" style="opacity: 0.1"/>
    <polygon points="122.71 252.15 120.27 258.83 121.86 250.9 122.56 249.03 122.71 252.15" style="opacity: 0.25"/>
    <polygon points="87.59 296.75 111.9 273.42 111.39 263.04 87.76 285.25 87.59 296.75" style="fill: #444"/>
    <polygon points="87.59 296.75 111.9 273.42 111.39 263.04 87.76 285.25 87.59 296.75" style="opacity: 0.15"/>
    <path d="M70.92,238.55c0,10.76-8.41,19.49-18.78,19.49s-18.79-8.73-18.79-19.49,8.41-19.5,18.79-19.5S70.92,227.78,70.92,238.55Z" style="fill: #444"/>
    <g>
      <polygon points="122 249.2 122 252.26 120 262.02 120 259.74 117.05 252.94 122 249.2" style="fill: #fff"/>
      <polygon points="122 249.2 122 252.26 120 262.02 120 259.74 117.05 252.94 122 249.2" style="opacity: 0.4"/>
      <polygon points="113.94 247.84 122.56 249.03 119.21 259.74 111.69 258.33 113.94 247.84" style="fill: #fff"/>
      <polygon points="113.94 247.84 122.56 249.03 119.21 259.74 111.69 258.33 113.94 247.84" style="opacity: 0.1"/>
    </g>
    <polygon points="105.69 254.69 111.07 248.86 121.86 256.11 113.94 262.06 105.69 254.69" style="fill: #444"/>
    <polygon points="73.63 261.28 87.77 270.42 103.2 255.66 111.39 263.04 87.8 285.21 61.22 266.75 73.63 261.28" style="fill: #f5f5f5;opacity: 0.25"/>
    <polygon points="105.69 254.69 111.07 248.86 121.86 256.1 113.94 262.06 105.69 254.69" style="fill: #f5f5f5;opacity: 0.25"/>
    <polygon points="114.42 269.7 121.99 264.14 121.86 256.11 113.94 262.06 114.42 269.7" style="fill: #444"/>
    <polygon points="115 246.48 117.4 244.91 115 244.19 115 246.48" style="opacity: 0.25"/>
    <g>
      <polyline points="123.92 230.22 127.41 238.86 133.5 237.09 124.78 230.34" style="fill: #fff"/>
      <polygon points="90.62 221.88 144.12 242.43 150.06 237.93 99.3 219.7 90.62 221.88" style="opacity: 0.1"/>
      <polyline points="123.92 230.22 127.41 238.86 133.5 237.09 124.78 230.34" style="opacity: 0.25"/>
      <path d="M109.08,222.28l-10.81,4.93s8.38,9.37,29.14,11.65l-4.72-11.65" style="fill: #fff"/>
      <path d="M109.08,222.28l-10.81,4.93s8.38,9.37,29.14,11.65l-4.72-11.65" style="opacity: 0.1"/>
      <polygon points="98.28 184.56 150.18 202.14 141.43 237.09 90.96 217.27 98.28 184.56" style="fill: #fff"/>
      <polygon points="98.28 184.56 150.18 202.14 141.43 237.09 90.96 217.27 98.28 184.56" style="opacity: 0.25"/>
      <polygon points="150.18 202.14 153.67 201.05 145.28 235.28 141.43 237.09 150.18 202.14" style="fill: #fff"/>
      <polygon points="150.18 202.14 153.67 201.05 145.28 235.28 141.43 237.09 150.18 202.14" style="opacity: 0.4"/>
      <polygon points="98.28 184.56 101.31 183.73 153.67 201.05 150.18 202.14 98.28 184.56" style="fill: #fff"/>
      <polygon points="98.28 184.56 101.31 183.73 153.67 201.05 150.18 202.14 98.28 184.56" style="opacity: 0.1"/>
      <polygon points="99.75 187.84 147.55 203.54 139.47 234.43 93.34 216.33 99.75 187.84" style="fill: #0029ad;opacity: 0.66"/>
      <polygon points="106.6 223.41 103.96 224.62 124.98 232.89 123.92 230.22 106.6 223.41" style="opacity: 0.25"/>
      <polygon points="99.75 187.84 93.34 216.33 94.3 215.83 100.57 188.11 99.75 187.84" style="opacity: 0.25"/>
      <polygon points="139.47 234.43 139.75 233.38 94.3 215.83 93.34 216.33 139.47 234.43" style="opacity: 0.25"/>
      <polygon points="101.95 190.82 101.03 194.79 96.83 212.77 131.06 225.85 137.69 202.61 101.95 190.82" style="fill: #1e1e1e;opacity: 0.24"/>
      <line x1="126.41" y1="204.69" x2="100.76" y2="195.92" style="fill: none;stroke: #1e1e1e;stroke-miterlimit: 10;stroke-width: 0.6801389999999999px;opacity: 0.5"/>
      <line x1="123.24" y1="215.42" x2="98.54" y2="206.49" style="fill: none;stroke: #1e1e1e;stroke-miterlimit: 10;stroke-width: 0.6801389999999999px;opacity: 0.5"/>
      <polygon points="129.02 200.3 136.84 202.95 132.19 219.7 124.26 216.9 129.02 200.3" style="fill: #1e1e1e;opacity: 0.25"/>
      <polygon points="131.63 199.38 145.97 204.09 142.45 218.31 127.89 213.15 131.63 199.38" style="fill: #f5f5f5;opacity: 0.15"/>
    </g>
  </g>
  <polygon points="576.73 58.09 582.11 56.88 588.92 83.42 584.75 302.72 575.5 302.72 575.5 79 576.73 58.09" style="fill: #f2f2f2"/>
  <g>
    <g>
      <path d="M509.22,122.54h10v2.78h-6.52v5.07h6.16v2.78h-6.16v5.62h6.79v2.78H509.22Z" style="fill: #222"/>
      <path d="M523.64,134l-3.87-6.46h3.82l2.21,4.5,2.32-4.5h3.49l-3.9,6.46,4.22,7.58H528.2l-2.59-5.21L523,141.57h-3.6Z" style="fill: #222"/>
      <path d="M541.58,141.22a9.6,9.6,0,0,1-3.32.57c-4.64,0-6.6-3.24-6.6-7.23s2.07-7.25,6.79-7.25a9.33,9.33,0,0,1,2.94.57l-.19,2.68a5.39,5.39,0,0,0-2.37-.68c-2.56,0-3.68,1.71-3.68,4.71,0,2.62,1.25,4.64,3.85,4.64a5.4,5.4,0,0,0,2.39-.68Z" style="fill: #222"/>
      <path d="M542.19,121.12h3.38v8.21h.08a3.81,3.81,0,0,1,3.49-2c3.19,0,4.14,2.37,4.14,5.21v9H549.9v-8.42c0-2.16-.54-3.06-1.93-3.06-1.78,0-2.4,1.5-2.4,3.3v8.18h-3.38Z" style="fill: #222"/>
      <path d="M555.55,128.35a9.71,9.71,0,0,1,4.44-1c4.36,0,5.37,2.13,5.37,5.65v6.13a17.5,17.5,0,0,0,.19,2.48h-3a6.69,6.69,0,0,1-.19-1.91h-.06a4.5,4.5,0,0,1-3.92,2.13,4,4,0,0,1-4.2-4.12c0-3.81,3.11-4.77,7.39-4.77h.68v-.52a2.41,2.41,0,0,0-2.62-2.67,6.49,6.49,0,0,0-3.84,1.36Zm6.65,6.35h-.3c-2.89,0-4.61.6-4.61,2.65a2,2,0,0,0,2.16,2.15c2,0,2.75-1.5,2.75-4Z" style="fill: #222"/>
      <path d="M567,129.85a19.6,19.6,0,0,0-.11-2.32h3.16c0,.71.11,1.45.11,2.15h0a4.11,4.11,0,0,1,3.74-2.37c3.19,0,4.14,2.37,4.14,5.21v9h-3.38v-8.42c0-2.16-.54-3.06-1.93-3.06-1.78,0-2.4,1.5-2.4,3.3v8.18H567Z" style="fill: #222"/>
      <path d="M580.14,143.75a8.87,8.87,0,0,0,4.15,1.2c3.19,0,3.7-2.2,3.7-4.41V139.2h0a3.85,3.85,0,0,1-3.71,2.37c-2,0-4.91-1.31-4.91-7,0-3.87,1.39-7.28,5.07-7.28a4,4,0,0,1,3.71,2.4h.11c0-.73.08-1.44.11-2.18h3.06c-.06.74-.11,1.47-.11,2.21V140.1c0,4.39-1.34,7.53-6.49,7.53a14.11,14.11,0,0,1-4.83-.88Zm4.88-4.66c2.13,0,3-1.53,3-4.72,0-2.94-1.11-4.52-2.72-4.49-1.77,0-2.46,1.66-2.46,4.52C582.81,137.7,583.88,139.09,585,139.09Z" style="fill: #222"/>
      <path d="M603.18,140.89a10.46,10.46,0,0,1-4.2.9c-4.52,0-6.49-3.24-6.49-7,0-4.2,2.21-7.45,5.78-7.45,3,0,5.62,1.77,5.62,7.5v.65h-8.13c0,2.4,1,3.85,3.58,3.85a5.61,5.61,0,0,0,3.68-1.09Zm-2.56-7.55c0-2.48-.82-3.74-2.35-3.74-1.77,0-2.51,1.88-2.51,3.74Z" style="fill: #222"/>
      <path d="M610.82,138.76l1.41-1.6c2.79-3.17,5.7-6.41,5.7-9.28a2.54,2.54,0,0,0-2.59-2.83,5.6,5.6,0,0,0-3.81,1.44l-.3-3.13a8.91,8.91,0,0,1,4.71-1.09c4,0,5.48,2.29,5.48,5.07,0,3.43-2.86,7.25-6,10.72l-.68.73h6.92v2.78H610.82Z" style="fill: #222"/>
      <path d="M628.92,122.27c4.94,0,6,5.1,6,9.79s-1.06,9.79-6,9.79-6-5.1-6-9.79S624,122.27,628.92,122.27Zm0,17c2.16,0,2.62-3,2.62-7.22s-.46-7.23-2.62-7.23-2.62,3-2.62,7.23S626.79,139.28,628.92,139.28Z" style="fill: #222"/>
      <path d="M640.92,126.55l-2.54,2.37-1.61-2.34,4.64-4h2.89v19h-3.38Z" style="fill: #222"/>
      <path d="M659.16,125.76a7.11,7.11,0,0,0-3.14-.82c-3.68,0-4.3,4-4.41,6.35l0,.06a3.75,3.75,0,0,1,3.49-1.91c2.67,0,5.07,2,5.07,6.19,0,3.76-2,6.22-5.59,6.22-4.85,0-6.19-4-6.19-8.89,0-5.62,1.56-10.69,7.39-10.69a9.43,9.43,0,0,1,3.52.65Zm-4.77,13.52c1.72,0,2.45-1.36,2.45-3.6,0-2.07-.71-3.57-2.45-3.57s-2.46,1.42-2.46,3.57S652.7,139.28,654.39,139.28Z" style="fill: #222"/>
    </g>
    <polygon points="676.04 166.33 618.17 166.33 618.17 158.55 548.15 158.55 548.15 166.33 489.91 166.33 489.91 167.76 548.15 167.76 548.15 175.54 618.17 175.54 618.17 167.76 676.04 167.76 676.04 166.33" style="fill: #6b6b6b;opacity: 0.5"/>
    <g>
      <path d="M556.59,163.33h1.67v8.29h-1.67Z" style="fill: #fff"/>
      <path d="M559.84,163.33h2l3.16,6.2h0v-6.2h1.59v8.29h-2l-3.17-6.2h0v6.2h-1.59Z" style="fill: #fff"/>
      <path d="M574.42,171.5a8,8,0,0,1-1.89.27c-2.68,0-4.55-1.35-4.55-4.15s1.74-4.44,4.55-4.44a5.45,5.45,0,0,1,1.88.35l-.12,1.4a3.39,3.39,0,0,0-1.79-.44,2.77,2.77,0,0,0-2.78,3,2.73,2.73,0,0,0,2.81,3,4.46,4.46,0,0,0,1.82-.35Z" style="fill: #fff"/>
      <path d="M575.53,163.33h1.66v7h3.22v1.3h-4.88Z" style="fill: #fff"/>
      <path d="M581.29,163.33H583v4.79c0,1.41.45,2.34,1.72,2.34s1.73-.93,1.73-2.34v-4.79h1.66v5.3c0,2.22-1.26,3.14-3.39,3.14s-3.39-.92-3.39-3.14Z" style="fill: #fff"/>
      <path d="M589.82,163.33h2.27c2.54,0,4.79.85,4.79,4.14s-2.25,4.15-4.79,4.15h-2.27Zm1.66,7h.93a2.85,2.85,0,0,0,0-5.69h-.93Z" style="fill: #fff"/>
      <path d="M598.28,163.33h4.9v1.3h-3.24v2.05h3V168h-3v2.33h3.26v1.3h-4.92Z" style="fill: #fff"/>
      <path d="M609.23,164.85a4.27,4.27,0,0,0-1.69-.36,1.16,1.16,0,0,0-1.31,1.15c0,1.44,3.64.84,3.64,3.62,0,1.82-1.44,2.51-3.12,2.51a7,7,0,0,1-2.12-.33l.15-1.49a4,4,0,0,0,1.88.51c.63,0,1.47-.32,1.47-1.07,0-1.58-3.63-.93-3.63-3.67,0-1.86,1.43-2.54,2.9-2.54a6.28,6.28,0,0,1,2,.3Z" style="fill: #fff"/>
    </g>
  </g>
  <g>
    <g>
      <path d="M536.4,191.11H495.08a5.18,5.18,0,0,0-5.17,5.16v41.32a5.18,5.18,0,0,0,5.17,5.16H536.4a5.17,5.17,0,0,0,5.16-5.16V196.27A5.17,5.17,0,0,0,536.4,191.11Z" style="fill: #e1392b"/>
      <path d="M499.79,206.3a.76.76,0,0,1,.75-.76h16.71a.76.76,0,0,1,.76.76v3a.76.76,0,0,1-.76.76H500.54a.76.76,0,0,1-.75-.76ZM518,227.56a.76.76,0,0,1-.76.76H500.54a.76.76,0,0,1-.75-.76v-3a.76.76,0,0,1,.75-.75h16.71a.76.76,0,0,1,.76.75Zm15-10.09-2.15,2.14h0L525.47,225a.78.78,0,0,1-1.08,0l-2.15-2.15a.78.78,0,0,1,0-1.08l2.56-2.55H500.54a.76.76,0,0,1-.75-.76v-3a.76.76,0,0,1,.75-.76H524.8l-2.56-2.55a.78.78,0,0,1,0-1.08l2.15-2.15a.78.78,0,0,1,1.08,0l7.52,7.52A.78.78,0,0,1,533,217.47Z" style="fill: #fff"/>
    </g>
    <g style="opacity: 0.1">
      <path d="M493.45,239.22c-1.95,1.94-3.54,1.28-3.54-1.47V196.11a5,5,0,0,1,5-5h41.65c2.75,0,3.41,1.59,1.46,3.53Z" style="fill: #fff"/>
    </g>
  </g>
  <g>
    <path d="M478.15,264.37a.5.5,0,0,1,.37.16l1,1.12a5.72,5.72,0,0,1-2.11,1.63,7.34,7.34,0,0,1-3,.56,7.18,7.18,0,0,1-2.81-.53,6.29,6.29,0,0,1-2.14-1.49,6.51,6.51,0,0,1-1.35-2.28,8.37,8.37,0,0,1-.47-2.88,7.81,7.81,0,0,1,.52-2.91,6.71,6.71,0,0,1,1.48-2.27A6.61,6.61,0,0,1,472,254a7.88,7.88,0,0,1,2.93-.53,7,7,0,0,1,2.74.5,6.42,6.42,0,0,1,2,1.33l-.87,1.21a.8.8,0,0,1-.2.21.55.55,0,0,1-.34.09.74.74,0,0,1-.45-.18,6.45,6.45,0,0,0-.6-.38,5.66,5.66,0,0,0-.9-.38,5,5,0,0,0-1.4-.17A4.68,4.68,0,0,0,473,256a4,4,0,0,0-1.43,1,4.68,4.68,0,0,0-.94,1.56,6.07,6.07,0,0,0-.33,2.07,6.27,6.27,0,0,0,.33,2.11,4.81,4.81,0,0,0,.91,1.55,4.08,4.08,0,0,0,1.36,1,4.18,4.18,0,0,0,1.67.33,9.15,9.15,0,0,0,1-.05,3.75,3.75,0,0,0,.8-.19,2.74,2.74,0,0,0,.69-.33,3.58,3.58,0,0,0,.65-.49l.2-.14A.6.6,0,0,1,478.15,264.37Z"/>
    <path d="M483.55,253.24v14.44h-2.4V253.24Z"/>
    <path d="M490.13,257.55a5.44,5.44,0,0,1,2,.36,4.36,4.36,0,0,1,1.55,1,4.5,4.5,0,0,1,1,1.62,6,6,0,0,1,.35,2.13,6,6,0,0,1-.35,2.14,4.59,4.59,0,0,1-1,1.62,4.26,4.26,0,0,1-1.55,1,5.44,5.44,0,0,1-2,.36,5.51,5.51,0,0,1-2-.36,4.3,4.3,0,0,1-1.56-1,4.76,4.76,0,0,1-1-1.62,6,6,0,0,1-.35-2.14,6,6,0,0,1,.35-2.13,4.67,4.67,0,0,1,1-1.62,4.4,4.4,0,0,1,1.56-1A5.51,5.51,0,0,1,490.13,257.55Zm0,8.43a2.12,2.12,0,0,0,1.85-.83,5.4,5.4,0,0,0,0-4.91,2.11,2.11,0,0,0-1.85-.85,2.14,2.14,0,0,0-1.86.85,4.25,4.25,0,0,0-.61,2.46,4.16,4.16,0,0,0,.61,2.44A2.13,2.13,0,0,0,490.13,266Z"/>
    <path d="M498.74,257.71v6.34a2.12,2.12,0,0,0,.42,1.41,1.55,1.55,0,0,0,1.27.5,2.64,2.64,0,0,0,1.17-.27,4.26,4.26,0,0,0,1-.77v-7.21H505v10h-1.47a.59.59,0,0,1-.61-.43l-.17-.8a5.68,5.68,0,0,1-.64.57,3.92,3.92,0,0,1-.7.44,4.07,4.07,0,0,1-.81.28,4,4,0,0,1-.93.1,3.46,3.46,0,0,1-1.44-.28,2.84,2.84,0,0,1-1.06-.78,3.46,3.46,0,0,1-.64-1.2,4.92,4.92,0,0,1-.22-1.53v-6.34Z"/>
    <path d="M514.23,267.68a.6.6,0,0,1-.62-.43l-.19-1a5.59,5.59,0,0,1-.65.64,4.08,4.08,0,0,1-.74.48,3.84,3.84,0,0,1-.84.32,4.32,4.32,0,0,1-1,.11,3.3,3.3,0,0,1-1.5-.34,3.44,3.44,0,0,1-1.17-1,4.86,4.86,0,0,1-.76-1.6,8.38,8.38,0,0,1-.26-2.17,6.79,6.79,0,0,1,.3-2.06,5.12,5.12,0,0,1,.86-1.66,4.17,4.17,0,0,1,1.35-1.09,4,4,0,0,1,1.77-.4,3.41,3.41,0,0,1,1.43.27,3.68,3.68,0,0,1,1.06.72v-5.27h2.4v14.44Zm-3.2-1.75a2.42,2.42,0,0,0,1.27-.32,3.65,3.65,0,0,0,1-.88v-4.47a2.3,2.3,0,0,0-.89-.7,2.53,2.53,0,0,0-1-.21,2.28,2.28,0,0,0-1,.21,2,2,0,0,0-.75.61,3.18,3.18,0,0,0-.47,1.05,6.13,6.13,0,0,0-.16,1.51,6.35,6.35,0,0,0,.14,1.48,3,3,0,0,0,.4,1,1.62,1.62,0,0,0,.64.56A2.11,2.11,0,0,0,511,265.93Z"/>
    <path d="M526.9,253.63v2.08h-6.23v4.16h5.26V262h-5.26v5.72H518V253.63Z"/>
    <path d="M531.35,254.8a1.34,1.34,0,0,1-.13.59,1.43,1.43,0,0,1-.33.47,1.56,1.56,0,0,1-.5.33,1.46,1.46,0,0,1-.6.12,1.48,1.48,0,0,1-.59-.12,1.58,1.58,0,0,1-.48-.33,1.56,1.56,0,0,1-.32-.47,1.48,1.48,0,0,1-.12-.59,1.53,1.53,0,0,1,.12-.6,1.66,1.66,0,0,1,.32-.49,1.75,1.75,0,0,1,.48-.32,1.48,1.48,0,0,1,.59-.12,1.46,1.46,0,0,1,.6.12,1.71,1.71,0,0,1,.5.32,1.51,1.51,0,0,1,.33.49A1.38,1.38,0,0,1,531.35,254.8Zm-.36,2.91v10h-2.4v-10Z"/>
    <path d="M535.87,253.24v14.44h-2.4V253.24Z"/>
    <path d="M541.47,267.84a2.61,2.61,0,0,1-2-.73,2.81,2.81,0,0,1-.7-2v-5.57h-1a.44.44,0,0,1-.33-.13.46.46,0,0,1-.14-.38v-.95l1.6-.26.51-2.72a.47.47,0,0,1,.18-.31.56.56,0,0,1,.35-.1h1.25v3.14h2.62v1.71h-2.62v5.4a1,1,0,0,0,.23.73.78.78,0,0,0,.62.27,1,1,0,0,0,.38-.06,1.56,1.56,0,0,0,.26-.11l.2-.11a.3.3,0,0,1,.17-.05.27.27,0,0,1,.18.05.79.79,0,0,1,.14.16l.72,1.17a3.69,3.69,0,0,1-1.2.66A4.52,4.52,0,0,1,541.47,267.84Z"/>
    <path d="M549.45,257.55a4.68,4.68,0,0,1,1.74.31,3.76,3.76,0,0,1,1.36.88,4.07,4.07,0,0,1,.9,1.41,5.52,5.52,0,0,1,.32,1.92,2.86,2.86,0,0,1,0,.46.66.66,0,0,1-.08.28.32.32,0,0,1-.17.14.78.78,0,0,1-.28.05h-6.16a3.42,3.42,0,0,0,.83,2.25,2.56,2.56,0,0,0,1.9.72,3.35,3.35,0,0,0,1-.13,4.74,4.74,0,0,0,.74-.3l.55-.31a.92.92,0,0,1,.46-.13.55.55,0,0,1,.26.06.55.55,0,0,1,.18.16l.7.88a4.09,4.09,0,0,1-.89.78,5.56,5.56,0,0,1-1,.51,6.06,6.06,0,0,1-1.1.26,8.09,8.09,0,0,1-1.08.08,5.35,5.35,0,0,1-1.94-.34,4.26,4.26,0,0,1-1.55-1,4.7,4.7,0,0,1-1-1.67,6.29,6.29,0,0,1-.38-2.31,5.53,5.53,0,0,1,.33-1.92,4.51,4.51,0,0,1,2.45-2.62A5,5,0,0,1,549.45,257.55Zm0,1.72a2.19,2.19,0,0,0-1.64.6,2.86,2.86,0,0,0-.76,1.68h4.51a2.84,2.84,0,0,0-.13-.88,1.8,1.8,0,0,0-.39-.72,1.75,1.75,0,0,0-.66-.5A2.2,2.2,0,0,0,549.5,259.27Z"/>
    <path d="M555.33,267.68v-10h1.41a.77.77,0,0,1,.52.14.79.79,0,0,1,.19.46l.15,1.21a4.64,4.64,0,0,1,1.25-1.46,2.63,2.63,0,0,1,1.62-.54,2,2,0,0,1,1.22.35l-.31,1.79a.36.36,0,0,1-.13.25.4.4,0,0,1-.26.07,1.84,1.84,0,0,1-.4-.06,2.45,2.45,0,0,0-.67-.07,2,2,0,0,0-1.28.41,3.24,3.24,0,0,0-.91,1.21v6.21Z"/>
    <path d="M563.07,253.29v.28h-.55v1.54h-.34v-1.54h-.55v-.28Z"/>
    <path d="M564.31,254.44l0,.09a.36.36,0,0,0,0-.09l0-.09.54-1s0,0,0,0l0,0h.33v1.82H565v-1.25a.17.17,0,0,1,0-.07l-.55,1a.12.12,0,0,1,0,.05l-.07,0h0l-.07,0s0,0,0-.05l-.55-1v1.33h-.29v-1.82h.32a0,0,0,0,1,0,0l0,0,.54,1A.59.59,0,0,1,564.31,254.44Z"/>
  </g>
  <g>
    <path d="M476.66,273.29v.48H473.9v7.36h-.56v-7.36h-2.77v-.48Z"/>
    <path d="M478.43,275.53a2.54,2.54,0,0,1,1.06.2,2,2,0,0,1,.79.57,2.45,2.45,0,0,1,.49.9,4.11,4.11,0,0,1,0,2.34,2.49,2.49,0,0,1-.49.89,2,2,0,0,1-.79.57,2.71,2.71,0,0,1-1.06.2,2.74,2.74,0,0,1-1.06-.2,2.14,2.14,0,0,1-.79-.57,2.49,2.49,0,0,1-.49-.89,4.11,4.11,0,0,1,0-2.34,2.45,2.45,0,0,1,.49-.9,2.14,2.14,0,0,1,.79-.57A2.57,2.57,0,0,1,478.43,275.53Zm0,5.25a1.91,1.91,0,0,0,.86-.17,1.62,1.62,0,0,0,.62-.48,2.16,2.16,0,0,0,.37-.76,4.23,4.23,0,0,0,0-2,2.3,2.3,0,0,0-.37-.77,1.75,1.75,0,0,0-.62-.49,2.06,2.06,0,0,0-.86-.17,2.09,2.09,0,0,0-.86.17,1.72,1.72,0,0,0-.61.49,2.12,2.12,0,0,0-.37.77,3.91,3.91,0,0,0,0,2,2,2,0,0,0,.37.76,1.59,1.59,0,0,0,.61.48A1.94,1.94,0,0,0,478.43,280.78Z"/>
    <path d="M483.61,281.22a1.18,1.18,0,0,1-.87-.31,1.31,1.31,0,0,1-.31-1v-3.77h-.8a.17.17,0,0,1-.1,0,.15.15,0,0,1,0-.1v-.2l.94-.07.13-2a.18.18,0,0,1,0-.09.15.15,0,0,1,.1,0H483v2.11h1.74v.39H483v3.74a1.14,1.14,0,0,0,.06.39.72.72,0,0,0,.16.27.61.61,0,0,0,.24.15.73.73,0,0,0,.3,0,1.11,1.11,0,0,0,.34,0,1.91,1.91,0,0,0,.25-.13l.18-.13a.18.18,0,0,1,.1-.06.12.12,0,0,1,.09.06l.14.23a1.37,1.37,0,0,1-.53.37A1.59,1.59,0,0,1,483.61,281.22Z"/>
    <path d="M489.35,281.13a.18.18,0,0,1-.2-.16l-.08-.7a5.39,5.39,0,0,1-.45.4,3.38,3.38,0,0,1-.47.3,2.21,2.21,0,0,1-.53.18,2.94,2.94,0,0,1-.62.07,1.71,1.71,0,0,1-.55-.09,1.42,1.42,0,0,1-.47-.25,1.49,1.49,0,0,1-.33-.44,1.6,1.6,0,0,1-.12-.65,1.11,1.11,0,0,1,.2-.65,1.64,1.64,0,0,1,.62-.52,4.51,4.51,0,0,1,1.09-.35,9.93,9.93,0,0,1,1.61-.16v-.57a1.86,1.86,0,0,0-.33-1.18,1.2,1.2,0,0,0-1-.41,1.73,1.73,0,0,0-.68.11,2.06,2.06,0,0,0-.47.24,2.39,2.39,0,0,0-.32.25.37.37,0,0,1-.2.11.19.19,0,0,1-.17-.1l-.09-.16a3.2,3.2,0,0,1,.9-.66,2.67,2.67,0,0,1,1.08-.22,2.05,2.05,0,0,1,.78.14,1.5,1.5,0,0,1,.55.41,1.58,1.58,0,0,1,.33.63,3.11,3.11,0,0,1,.11.84v3.59Zm-2.22-.3a2.12,2.12,0,0,0,.59-.07,2,2,0,0,0,.5-.19,1.84,1.84,0,0,0,.43-.3,3.44,3.44,0,0,0,.4-.37v-1.43a8.48,8.48,0,0,0-1.36.12,3.6,3.6,0,0,0-.93.26,1.33,1.33,0,0,0-.55.4.85.85,0,0,0-.17.52,1.21,1.21,0,0,0,.09.48,1,1,0,0,0,.24.33.92.92,0,0,0,.35.19A1.4,1.4,0,0,0,487.13,280.83Z"/>
    <path d="M491.68,273.07v8.06h-.52v-8.06Z"/>
    <path d="M500.29,273.29v.47h-4.13v3.17h3.44v.46h-3.44v3.27h4.13v.47h-4.7v-7.84Z"/>
    <path d="M501.65,281.13v-5.51h.29a.15.15,0,0,1,.17.13l.05.8a2.74,2.74,0,0,1,.34-.41,2,2,0,0,1,.39-.33,2,2,0,0,1,.44-.21,1.68,1.68,0,0,1,.5-.07,1.29,1.29,0,0,1,1,.35,1.79,1.79,0,0,1,.49,1,2.08,2.08,0,0,1,.28-.6,2,2,0,0,1,.41-.41,1.59,1.59,0,0,1,.51-.24,1.77,1.77,0,0,1,.56-.08,1.86,1.86,0,0,1,.73.13,1.51,1.51,0,0,1,.56.4,1.89,1.89,0,0,1,.35.66,3,3,0,0,1,.12.88v3.53h-.52V277.6a1.92,1.92,0,0,0-.35-1.23,1.24,1.24,0,0,0-1-.42,1.45,1.45,0,0,0-.55.1,1.36,1.36,0,0,0-.47.32,1.53,1.53,0,0,0-.32.51,2,2,0,0,0-.12.72v3.53H505V277.6a2.07,2.07,0,0,0-.32-1.23,1.12,1.12,0,0,0-.94-.42,1.4,1.4,0,0,0-.83.27,2.44,2.44,0,0,0-.68.74v4.17Z"/>
    <path d="M513.76,281.13a.18.18,0,0,1-.2-.16l-.08-.7a5.39,5.39,0,0,1-.45.4,3.38,3.38,0,0,1-.47.3,2.21,2.21,0,0,1-.53.18,2.94,2.94,0,0,1-.62.07,1.71,1.71,0,0,1-.55-.09,1.42,1.42,0,0,1-.47-.25,1.49,1.49,0,0,1-.33-.44,1.6,1.6,0,0,1-.12-.65,1.11,1.11,0,0,1,.2-.65,1.64,1.64,0,0,1,.62-.52,4.51,4.51,0,0,1,1.09-.35,9.93,9.93,0,0,1,1.61-.16v-.57a1.86,1.86,0,0,0-.33-1.18,1.2,1.2,0,0,0-1-.41,1.73,1.73,0,0,0-.68.11,2.06,2.06,0,0,0-.47.24,2.39,2.39,0,0,0-.32.25.37.37,0,0,1-.2.11.19.19,0,0,1-.17-.1l-.09-.16a3.2,3.2,0,0,1,.9-.66,2.67,2.67,0,0,1,1.08-.22,2.05,2.05,0,0,1,.78.14,1.5,1.5,0,0,1,.55.41,1.58,1.58,0,0,1,.33.63,3.11,3.11,0,0,1,.11.84v3.59Zm-2.22-.3a2.12,2.12,0,0,0,.59-.07,2,2,0,0,0,.5-.19,1.84,1.84,0,0,0,.43-.3,3.44,3.44,0,0,0,.4-.37v-1.43a8.48,8.48,0,0,0-1.36.12,3.6,3.6,0,0,0-.93.26,1.33,1.33,0,0,0-.55.4.85.85,0,0,0-.17.52,1.21,1.21,0,0,0,.09.48,1,1,0,0,0,.24.33.92.92,0,0,0,.35.19A1.4,1.4,0,0,0,511.54,280.83Z"/>
    <path d="M516.32,273.72a.5.5,0,0,1-.14.33.57.57,0,0,1-.16.11.47.47,0,0,1-.38,0,.61.61,0,0,1-.26-.26.58.58,0,0,1,0-.18.71.71,0,0,1,0-.2.61.61,0,0,1,.26-.26.47.47,0,0,1,.38,0,.57.57,0,0,1,.16.11.4.4,0,0,1,.1.15A.48.48,0,0,1,516.32,273.72Zm-.23,1.9v5.51h-.52v-5.51Z"/>
    <path d="M518.5,273.07v8.06H518v-8.06Z"/>
    <path d="M526.21,274.24a.19.19,0,0,1-.15.1.3.3,0,0,1-.18-.11,3.78,3.78,0,0,0-.31-.22,2,2,0,0,0-.49-.23,2.1,2.1,0,0,0-.72-.11,2.19,2.19,0,0,0-.75.12,1.6,1.6,0,0,0-.55.34,1.58,1.58,0,0,0-.33.48,1.46,1.46,0,0,0-.11.58,1.12,1.12,0,0,0,.17.66,1.45,1.45,0,0,0,.44.45,3.05,3.05,0,0,0,.63.3l.73.25q.36.12.72.27a2.82,2.82,0,0,1,.63.37,2,2,0,0,1,.45.54,1.8,1.8,0,0,1,.16.81,2.6,2.6,0,0,1-.16.93,2.27,2.27,0,0,1-.49.75,2.24,2.24,0,0,1-.79.51,2.94,2.94,0,0,1-1.06.19,3,3,0,0,1-1.34-.28,3.09,3.09,0,0,1-1-.75l.16-.24a.18.18,0,0,1,.15-.09.28.28,0,0,1,.13.07l.19.16a2,2,0,0,0,.26.21,2.12,2.12,0,0,0,.36.21,2.87,2.87,0,0,0,.47.17,2.8,2.8,0,0,0,.61.06,2.16,2.16,0,0,0,.83-.14,1.75,1.75,0,0,0,.62-.38,1.65,1.65,0,0,0,.39-.58,2.09,2.09,0,0,0,.13-.72,1.29,1.29,0,0,0-.17-.68,1.38,1.38,0,0,0-.45-.45,2.63,2.63,0,0,0-.63-.3l-.72-.24a7.63,7.63,0,0,1-.72-.26,2.43,2.43,0,0,1-.63-.37,1.64,1.64,0,0,1-.45-.56,1.87,1.87,0,0,1-.17-.84,2,2,0,0,1,.15-.76,1.88,1.88,0,0,1,.44-.64,2.05,2.05,0,0,1,.71-.45,2.66,2.66,0,0,1,1-.17,3.07,3.07,0,0,1,1.09.19,2.59,2.59,0,0,1,.89.6Z"/>
    <path d="M529.79,275.53a2.2,2.2,0,0,1,.86.16,1.89,1.89,0,0,1,.69.47,2.14,2.14,0,0,1,.45.75,3,3,0,0,1,.17,1,.32.32,0,0,1,0,.17.12.12,0,0,1-.11,0h-4v.11a4,4,0,0,0,.14,1.09,2.46,2.46,0,0,0,.41.79,1.72,1.72,0,0,0,.65.48,2.24,2.24,0,0,0,.84.16,2.63,2.63,0,0,0,.72-.09,2.45,2.45,0,0,0,.51-.21,2.18,2.18,0,0,0,.33-.2.36.36,0,0,1,.18-.09.13.13,0,0,1,.11.05l.14.18a1.54,1.54,0,0,1-.35.31,2.48,2.48,0,0,1-.49.24,3.43,3.43,0,0,1-.57.17,3.26,3.26,0,0,1-.62.06,2.63,2.63,0,0,1-1-.2,2.17,2.17,0,0,1-.8-.57,2.83,2.83,0,0,1-.52-.92,4,4,0,0,1-.18-1.25,3.52,3.52,0,0,1,.17-1.1,2.51,2.51,0,0,1,.49-.86,2.25,2.25,0,0,1,.78-.57A2.69,2.69,0,0,1,529.79,275.53Zm0,.39a2.07,2.07,0,0,0-.77.13,1.74,1.74,0,0,0-.58.39,1.92,1.92,0,0,0-.4.59,2.79,2.79,0,0,0-.2.78h3.63a2.43,2.43,0,0,0-.12-.79,1.79,1.79,0,0,0-.35-.6,1.45,1.45,0,0,0-.53-.37A1.65,1.65,0,0,0,529.8,275.92Z"/>
    <path d="M536.78,276.35l0,0-.07,0a.28.28,0,0,1-.15-.08l-.26-.16a2.21,2.21,0,0,0-.4-.16,2.18,2.18,0,0,0-1.43.09,1.58,1.58,0,0,0-.62.49,2.18,2.18,0,0,0-.39.76,3.53,3.53,0,0,0-.13,1,3.58,3.58,0,0,0,.13,1,2.22,2.22,0,0,0,.39.75,1.59,1.59,0,0,0,.6.47,1.86,1.86,0,0,0,.79.16,2.13,2.13,0,0,0,.67-.09,1.8,1.8,0,0,0,.44-.21,1.87,1.87,0,0,0,.28-.2.29.29,0,0,1,.16-.09s.09,0,.11.05l.15.18a2,2,0,0,1-.33.31,2.21,2.21,0,0,1-.43.25,3,3,0,0,1-.53.16,2.91,2.91,0,0,1-.6.06,2.32,2.32,0,0,1-1-.19,2.05,2.05,0,0,1-.75-.56,2.52,2.52,0,0,1-.48-.89,3.63,3.63,0,0,1-.18-1.19,3.75,3.75,0,0,1,.17-1.15,2.59,2.59,0,0,1,.48-.9,2.27,2.27,0,0,1,.78-.59,2.74,2.74,0,0,1,1.06-.2,2.42,2.42,0,0,1,1,.17,2.38,2.38,0,0,1,.73.46Z"/>
    <path d="M538.36,275.62v3.52a1.89,1.89,0,0,0,.35,1.21,1.3,1.3,0,0,0,1.09.44,2,2,0,0,0,1-.27,3,3,0,0,0,.84-.76v-4.14h.53v5.51h-.29a.14.14,0,0,1-.16-.15l-.05-.82a3.19,3.19,0,0,1-.88.77,2.25,2.25,0,0,1-1.12.29,2,2,0,0,1-.81-.15,1.39,1.39,0,0,1-.57-.41A1.87,1.87,0,0,1,538,280a2.84,2.84,0,0,1-.12-.86v-3.52Z"/>
    <path d="M543.74,281.13v-5.51H544a.21.21,0,0,1,.13,0,.18.18,0,0,1,.05.14l0,1.16a2.55,2.55,0,0,1,.7-1.05,1.65,1.65,0,0,1,1.1-.38,2.24,2.24,0,0,1,.46.05,1.68,1.68,0,0,1,.39.16l-.07.36a.1.1,0,0,1-.11.09l-.09,0-.15-.05-.23-.05a1.42,1.42,0,0,0-.3,0,1.45,1.45,0,0,0-1,.38,2.74,2.74,0,0,0-.65,1.12v3.59Z"/>
    <path d="M548.83,273.72a.39.39,0,0,1,0,.18.61.61,0,0,1-.26.26.47.47,0,0,1-.38,0,.61.61,0,0,1-.26-.26.39.39,0,0,1,0-.18.48.48,0,0,1,0-.2.61.61,0,0,1,.26-.26.47.47,0,0,1,.38,0,.61.61,0,0,1,.26.26A.48.48,0,0,1,548.83,273.72Zm-.23,1.9v5.51h-.53v-5.51Z"/>
    <path d="M551.83,281.22a1.21,1.21,0,0,1-.87-.31,1.31,1.31,0,0,1-.31-1v-3.77h-.79a.15.15,0,0,1-.1,0,.12.12,0,0,1,0-.1v-.2l.94-.07.13-2a.36.36,0,0,1,0-.09.18.18,0,0,1,.1,0h.24v2.11h1.74v.39h-1.74v3.74a1.14,1.14,0,0,0,.06.39.88.88,0,0,0,.16.27.61.61,0,0,0,.24.15.79.79,0,0,0,.3,0,1.18,1.18,0,0,0,.35,0l.25-.13.17-.13a.18.18,0,0,1,.1-.06.12.12,0,0,1,.09.06l.15.23a1.41,1.41,0,0,1-.54.37A1.56,1.56,0,0,1,551.83,281.22Z"/>
    <path d="M555.26,282.9a.6.6,0,0,1-.09.13.21.21,0,0,1-.15.05h-.38l1-2.16-2.33-5.3h.44a.18.18,0,0,1,.13,0,.31.31,0,0,1,.07.09l1.85,4.29.06.16c0,.06,0,.12,0,.18l.06-.18L556,280l1.83-4.29a.39.39,0,0,1,.08-.1.2.2,0,0,1,.11,0h.41Z"/>
  </g>
  <g>
    <path d="M616.66,257.06a.76.76,0,0,1-.24.3.64.64,0,0,1-.34.09.89.89,0,0,1-.44-.15,6.61,6.61,0,0,0-.57-.34,5.07,5.07,0,0,0-.77-.34,3.32,3.32,0,0,0-1-.15,3,3,0,0,0-1,.14,1.93,1.93,0,0,0-.68.36,1.51,1.51,0,0,0-.41.56,1.83,1.83,0,0,0-.14.71,1.28,1.28,0,0,0,.28.83,2.26,2.26,0,0,0,.74.56,5.92,5.92,0,0,0,1,.42l1.19.4a11,11,0,0,1,1.19.48,4.41,4.41,0,0,1,1,.7,3.14,3.14,0,0,1,.73,1,3.49,3.49,0,0,1,.28,1.48,4.83,4.83,0,0,1-.33,1.79,4,4,0,0,1-1,1.45,4.6,4.6,0,0,1-1.53,1,5.55,5.55,0,0,1-2.07.35,6.95,6.95,0,0,1-2.57-.5,7,7,0,0,1-1.12-.58,5.4,5.4,0,0,1-.93-.76l.76-1.26a1.16,1.16,0,0,1,.26-.23.63.63,0,0,1,.33-.09,1,1,0,0,1,.53.2c.18.13.41.28.66.44a5.14,5.14,0,0,0,.91.45,3.52,3.52,0,0,0,1.25.2,2.59,2.59,0,0,0,1.73-.53,1.91,1.91,0,0,0,.61-1.53,1.36,1.36,0,0,0-.28-.9,2.28,2.28,0,0,0-.73-.59,5.5,5.5,0,0,0-1-.4l-1.19-.36a10,10,0,0,1-1.18-.47,3.76,3.76,0,0,1-1-.71,3.18,3.18,0,0,1-.74-1.09,4.28,4.28,0,0,1-.28-1.62,4,4,0,0,1,.31-1.5,3.68,3.68,0,0,1,.9-1.29,4.38,4.38,0,0,1,1.44-.91,5.38,5.38,0,0,1,2-.34,6.57,6.57,0,0,1,2.3.39,5.38,5.38,0,0,1,1.79,1.09Z"/>
    <path d="M626.85,268.56h-1.07a1.3,1.3,0,0,1-.54-.1A.65.65,0,0,1,625,268l-.22-.71a7.5,7.5,0,0,1-.74.6,4,4,0,0,1-.75.43,3.84,3.84,0,0,1-.83.27,4.82,4.82,0,0,1-1,.08,3.68,3.68,0,0,1-1.17-.17,2.51,2.51,0,0,1-.92-.51,2.36,2.36,0,0,1-.59-.85,2.89,2.89,0,0,1-.22-1.18,2.29,2.29,0,0,1,.3-1.11,2.81,2.81,0,0,1,1-1,6.51,6.51,0,0,1,1.84-.74,12.08,12.08,0,0,1,2.85-.29v-.59a2.23,2.23,0,0,0-.42-1.49,1.55,1.55,0,0,0-1.23-.49,3,3,0,0,0-1,.14,3.31,3.31,0,0,0-.68.31l-.53.3a1.08,1.08,0,0,1-.53.14.64.64,0,0,1-.42-.13.84.84,0,0,1-.28-.31L619,260a5.93,5.93,0,0,1,4.15-1.57,3.88,3.88,0,0,1,1.56.29,3.27,3.27,0,0,1,1.16.79,3.48,3.48,0,0,1,.73,1.22,4.86,4.86,0,0,1,.24,1.56Zm-4.66-1.5a3,3,0,0,0,.68-.07,2.42,2.42,0,0,0,.59-.2,3.32,3.32,0,0,0,.53-.33,4.29,4.29,0,0,0,.52-.46v-1.67a9.55,9.55,0,0,0-1.75.13,4.72,4.72,0,0,0-1.14.34,1.51,1.51,0,0,0-.6.48,1.21,1.21,0,0,0,.19,1.51A1.65,1.65,0,0,0,622.19,267.06Z"/>
    <path d="M629.26,268.56v-8.17l-.87-.13a.94.94,0,0,1-.45-.2.49.49,0,0,1-.17-.41v-1h1.49v-.74a4.31,4.31,0,0,1,.25-1.53,3.12,3.12,0,0,1,1.91-1.89,4.48,4.48,0,0,1,1.56-.25,4.35,4.35,0,0,1,1.28.18l0,1.21a.35.35,0,0,1-.26.35,2.31,2.31,0,0,1-.56.07,3,3,0,0,0-.77.09,1.25,1.25,0,0,0-.56.32,1.38,1.38,0,0,0-.36.6,3.09,3.09,0,0,0-.12.93v.66h2.6v1.71h-2.52v8.18Z"/>
    <path d="M639.38,258.43a4.84,4.84,0,0,1,1.73.3,3.71,3.71,0,0,1,1.37.88,4,4,0,0,1,.89,1.42,5.23,5.23,0,0,1,.32,1.92,3,3,0,0,1,0,.45.84.84,0,0,1-.09.28.35.35,0,0,1-.17.15.7.7,0,0,1-.27,0H637a3.43,3.43,0,0,0,.82,2.26,2.59,2.59,0,0,0,1.91.72,3.26,3.26,0,0,0,1-.14,4.37,4.37,0,0,0,.74-.3l.56-.3a.94.94,0,0,1,.46-.14.49.49,0,0,1,.25.06.75.75,0,0,1,.19.17l.7.87a4.14,4.14,0,0,1-.9.78,5.2,5.2,0,0,1-1,.51,6.09,6.09,0,0,1-1.1.27,8.29,8.29,0,0,1-1.09.07,5.29,5.29,0,0,1-1.93-.34,4.31,4.31,0,0,1-1.56-1,4.94,4.94,0,0,1-1-1.67,6.58,6.58,0,0,1-.38-2.31,5.53,5.53,0,0,1,.33-1.92,4.72,4.72,0,0,1,1-1.57,4.55,4.55,0,0,1,1.51-1.05A4.94,4.94,0,0,1,639.38,258.43Zm0,1.72a2.27,2.27,0,0,0-1.65.59,3,3,0,0,0-.76,1.68h4.52a3.17,3.17,0,0,0-.13-.88,2.28,2.28,0,0,0-.39-.72,1.9,1.9,0,0,0-.66-.49A2.27,2.27,0,0,0,639.43,260.15Z"/>
    <path d="M652.93,257.06a.69.69,0,0,1-.25.3.58.58,0,0,1-.33.09.86.86,0,0,1-.44-.15,6.61,6.61,0,0,0-.57-.34,5.21,5.21,0,0,0-.78-.34,3.22,3.22,0,0,0-1-.15,3,3,0,0,0-.95.14,1.77,1.77,0,0,0-.68.36,1.4,1.4,0,0,0-.41.56,1.67,1.67,0,0,0-.14.71,1.23,1.23,0,0,0,.28.83,2.21,2.21,0,0,0,.73.56,5.92,5.92,0,0,0,1,.42c.39.12.79.26,1.19.4a10.2,10.2,0,0,1,1.19.48,4.22,4.22,0,0,1,1,.7,3.17,3.17,0,0,1,.74,1,3.66,3.66,0,0,1,.27,1.48,4.82,4.82,0,0,1-.32,1.79,4.29,4.29,0,0,1-1,1.45,4.55,4.55,0,0,1-1.54,1,5.55,5.55,0,0,1-2.07.35,6.56,6.56,0,0,1-1.32-.13,6.66,6.66,0,0,1-1.25-.37,7,7,0,0,1-1.12-.58,5.72,5.72,0,0,1-.92-.76l.75-1.26a1.16,1.16,0,0,1,.26-.23.64.64,0,0,1,.34-.09,1,1,0,0,1,.52.2c.19.13.41.28.67.44a5,5,0,0,0,.9.45,3.6,3.6,0,0,0,1.25.2,2.57,2.57,0,0,0,1.73-.53,1.91,1.91,0,0,0,.61-1.53,1.42,1.42,0,0,0-.27-.9,2.33,2.33,0,0,0-.74-.59,5.24,5.24,0,0,0-1-.4l-1.18-.36a10.14,10.14,0,0,1-1.19-.47,3.76,3.76,0,0,1-1-.71,3.16,3.16,0,0,1-.73-1.09,4.09,4.09,0,0,1-.28-1.62,3.9,3.9,0,0,1,1.2-2.79,4.38,4.38,0,0,1,1.44-.91,5.44,5.44,0,0,1,2-.34,6.51,6.51,0,0,1,2.29.39,5.28,5.28,0,0,1,1.79,1.09Z"/>
    <path d="M659.42,258.43a4.89,4.89,0,0,1,1.74.3,3.8,3.8,0,0,1,1.37.88,4,4,0,0,1,.89,1.42,5.44,5.44,0,0,1,.32,1.92c0,.18,0,.33,0,.45a.84.84,0,0,1-.09.28.35.35,0,0,1-.17.15.7.7,0,0,1-.27,0H657a3.43,3.43,0,0,0,.83,2.26,2.56,2.56,0,0,0,1.9.72,3.33,3.33,0,0,0,1-.14,4.74,4.74,0,0,0,.74-.3l.55-.3a1,1,0,0,1,.47-.14.51.51,0,0,1,.25.06.58.58,0,0,1,.18.17l.7.87a3.87,3.87,0,0,1-.89.78,5.28,5.28,0,0,1-1,.51,6,6,0,0,1-1.09.27,8.29,8.29,0,0,1-1.09.07,5.29,5.29,0,0,1-1.93-.34,4.31,4.31,0,0,1-1.56-1,4.79,4.79,0,0,1-1-1.67,6.58,6.58,0,0,1-.38-2.31,5.53,5.53,0,0,1,.33-1.92,4.72,4.72,0,0,1,.95-1.57,4.45,4.45,0,0,1,1.51-1.05A4.92,4.92,0,0,1,659.42,258.43Zm.05,1.72a2.24,2.24,0,0,0-1.64.59,2.92,2.92,0,0,0-.76,1.68h4.51a3.17,3.17,0,0,0-.12-.88,2.28,2.28,0,0,0-.39-.72,1.9,1.9,0,0,0-.66-.49A2.28,2.28,0,0,0,659.47,260.15Z"/>
    <path d="M665.31,268.56v-10h1.46a.6.6,0,0,1,.62.44l.16.79a5.68,5.68,0,0,1,.64-.57,4.63,4.63,0,0,1,.71-.43,3.17,3.17,0,0,1,.8-.28,4,4,0,0,1,.93-.1,3.47,3.47,0,0,1,1.45.28,2.85,2.85,0,0,1,1.06.77,3.63,3.63,0,0,1,.64,1.2,4.92,4.92,0,0,1,.22,1.53v6.35h-2.4v-6.35a2.07,2.07,0,0,0-.43-1.41,1.55,1.55,0,0,0-1.27-.51,2.46,2.46,0,0,0-1.16.29,4,4,0,0,0-1,.76v7.22Z"/>
    <path d="M683,268.56a.59.59,0,0,1-.61-.44l-.2-1a5.52,5.52,0,0,1-.65.63,4.05,4.05,0,0,1-.73.49,3.91,3.91,0,0,1-.85.31,3.74,3.74,0,0,1-1,.11,3.26,3.26,0,0,1-2.67-1.32,4.76,4.76,0,0,1-.76-1.6,8,8,0,0,1-.27-2.18,6.79,6.79,0,0,1,.3-2.06,4.81,4.81,0,0,1,.87-1.65,4,4,0,0,1,1.35-1.1,3.9,3.9,0,0,1,1.77-.39,3.44,3.44,0,0,1,1.43.27,3.59,3.59,0,0,1,1.06.71v-5.27h2.4v14.45Zm-3.2-1.76a2.45,2.45,0,0,0,1.28-.31,3.7,3.7,0,0,0,1-.89v-4.47a2.4,2.4,0,0,0-.89-.7,2.57,2.57,0,0,0-1-.2,2.23,2.23,0,0,0-1,.2,1.87,1.87,0,0,0-.75.62,2.83,2.83,0,0,0-.47,1.05,6,6,0,0,0-.17,1.5,6.88,6.88,0,0,0,.14,1.48,2.84,2.84,0,0,0,.41,1,1.43,1.43,0,0,0,.64.56A2.07,2.07,0,0,0,679.79,266.8Z"/>
    <path d="M688.83,254.17v.27h-.55V256H688v-1.54h-.55v-.27Z"/>
    <path d="M690.07,255.31l0,.09,0-.09a.59.59,0,0,0,0-.08l.54-1,0,0,0,0h.32V256h-.3v-1.24a.22.22,0,0,0,0-.08l-.55,1a.12.12,0,0,1,0,.05.08.08,0,0,1-.07,0h0a.1.1,0,0,1-.07,0,.1.1,0,0,1,0-.05l-.56-1a.25.25,0,0,0,0,.08V256h-.3v-1.81h.32l0,0,0,0,.54,1Z"/>
  </g>
  <g>
    <path d="M603.5,274.16v.47h-4.12v3.17h3.43v.46h-3.43v3.27h4.12V282h-4.69v-7.84Z"/>
    <path d="M605.09,282v-5.51h.28a.15.15,0,0,1,.17.14l.05.83a3.07,3.07,0,0,1,.88-.77,2.19,2.19,0,0,1,1.11-.29,2.16,2.16,0,0,1,.8.14,1.47,1.47,0,0,1,.58.42,1.91,1.91,0,0,1,.34.65,3,3,0,0,1,.12.87V282h-.53v-3.52a1.94,1.94,0,0,0-.35-1.22,1.33,1.33,0,0,0-1.09-.44,2,2,0,0,0-1,.28,3,3,0,0,0-.83.77V282Z"/>
    <path d="M611.08,282v-8.06h.53v3.49a3.1,3.1,0,0,1,.87-.75,2.14,2.14,0,0,1,1.1-.28,2.2,2.2,0,0,1,.8.14,1.51,1.51,0,0,1,.57.42,1.75,1.75,0,0,1,.34.65,3,3,0,0,1,.12.87V282h-.53v-3.52a1.88,1.88,0,0,0-.35-1.22,1.33,1.33,0,0,0-1.09-.44,2,2,0,0,0-1,.28,2.87,2.87,0,0,0-.83.77V282Z"/>
    <path d="M620.59,282a.2.2,0,0,1-.21-.15l-.07-.71a5.39,5.39,0,0,1-.45.4,2.66,2.66,0,0,1-.47.3,2.76,2.76,0,0,1-.53.19,3,3,0,0,1-.62.06,2,2,0,0,1-.55-.08,1.45,1.45,0,0,1-.47-.26,1.37,1.37,0,0,1-.33-.44,1.56,1.56,0,0,1-.12-.64,1.09,1.09,0,0,1,.2-.65,1.55,1.55,0,0,1,.62-.52,4.09,4.09,0,0,1,1.09-.36,9,9,0,0,1,1.61-.15v-.58a1.86,1.86,0,0,0-.33-1.18,1.2,1.2,0,0,0-1-.41,1.94,1.94,0,0,0-.68.11,2.55,2.55,0,0,0-.47.25,2.41,2.41,0,0,0-.32.24.37.37,0,0,1-.2.11.18.18,0,0,1-.17-.1l-.1-.16a3.14,3.14,0,0,1,.91-.65,2.51,2.51,0,0,1,1.08-.22,1.87,1.87,0,0,1,.78.14,1.48,1.48,0,0,1,.55.4,1.69,1.69,0,0,1,.33.64,3,3,0,0,1,.11.83V282Zm-2.22-.29a2.58,2.58,0,0,0,.59-.07,2,2,0,0,0,.5-.2,2.16,2.16,0,0,0,.43-.29l.4-.37v-1.44a11.65,11.65,0,0,0-1.36.12,4.31,4.31,0,0,0-.94.26,1.46,1.46,0,0,0-.54.4.87.87,0,0,0-.17.52,1.14,1.14,0,0,0,.09.48,1,1,0,0,0,.24.34,1.08,1.08,0,0,0,.35.19A1.4,1.4,0,0,0,618.37,281.71Z"/>
    <path d="M622.46,282v-5.51h.29a.16.16,0,0,1,.17.14l.05.83a3.18,3.18,0,0,1,.87-.77,2.25,2.25,0,0,1,1.12-.29,2.2,2.2,0,0,1,.8.14,1.51,1.51,0,0,1,.57.42,1.77,1.77,0,0,1,.35.65,3.34,3.34,0,0,1,.11.87V282h-.52v-3.52a1.89,1.89,0,0,0-.36-1.22,1.31,1.31,0,0,0-1.08-.44,2,2,0,0,0-1,.28,2.87,2.87,0,0,0-.83.77V282Z"/>
    <path d="M632.08,277.23l-.05,0a.08.08,0,0,1-.07,0,.25.25,0,0,1-.15-.07,2.36,2.36,0,0,0-.26-.17,3.31,3.31,0,0,0-.4-.16,2,2,0,0,0-.58-.07,1.93,1.93,0,0,0-.85.17,1.7,1.7,0,0,0-.62.48,2.09,2.09,0,0,0-.38.76,3.52,3.52,0,0,0-.14,1,3.56,3.56,0,0,0,.14,1,2.35,2.35,0,0,0,.38.76,1.76,1.76,0,0,0,.61.47,2,2,0,0,0,.78.16,1.86,1.86,0,0,0,.67-.1,2,2,0,0,0,.44-.2,1.84,1.84,0,0,0,.28-.21.29.29,0,0,1,.16-.09.17.17,0,0,1,.12.05l.14.18a1.58,1.58,0,0,1-.32.31,2.09,2.09,0,0,1-.44.25,2.18,2.18,0,0,1-.53.16,2.88,2.88,0,0,1-.59.06,2.33,2.33,0,0,1-1-.19,2.11,2.11,0,0,1-.74-.55,2.63,2.63,0,0,1-.49-.89,3.7,3.7,0,0,1-.17-1.2,3.81,3.81,0,0,1,.16-1.15,2.45,2.45,0,0,1,.49-.9,2.16,2.16,0,0,1,.78-.58,2.76,2.76,0,0,1,2,0,2.41,2.41,0,0,1,.73.47Z"/>
    <path d="M635.57,276.4a2.2,2.2,0,0,1,.86.16,1.84,1.84,0,0,1,.69.47,2,2,0,0,1,.45.76,2.92,2.92,0,0,1,.17,1,.22.22,0,0,1,0,.16.13.13,0,0,1-.11,0h-4v.1a3.54,3.54,0,0,0,.15,1.09,2,2,0,0,0,.41.79,1.69,1.69,0,0,0,.64.48,2.06,2.06,0,0,0,.84.16,2.53,2.53,0,0,0,.72-.09,3.19,3.19,0,0,0,.51-.2l.33-.21a.36.36,0,0,1,.18-.09.14.14,0,0,1,.11.05l.14.18a1.19,1.19,0,0,1-.35.31,2.25,2.25,0,0,1-.49.25,3.16,3.16,0,0,1-.57.16,3.26,3.26,0,0,1-.62.06,2.63,2.63,0,0,1-1-.19,2.2,2.2,0,0,1-.8-.58,2.64,2.64,0,0,1-.51-.92,4,4,0,0,1-.18-1.25,3.46,3.46,0,0,1,.16-1.09,2.73,2.73,0,0,1,.49-.87,2.11,2.11,0,0,1,.78-.56A2.52,2.52,0,0,1,635.57,276.4Zm0,.39a2,2,0,0,0-.76.14,1.66,1.66,0,0,0-.59.38,1.94,1.94,0,0,0-.39.6,2.63,2.63,0,0,0-.21.78h3.63a2.49,2.49,0,0,0-.12-.8,1.79,1.79,0,0,0-.34-.59,1.66,1.66,0,0,0-.53-.38A1.93,1.93,0,0,0,635.58,276.79Z"/>
    <path d="M643.06,282a.14.14,0,0,1-.15-.14l-.06-.87a2.93,2.93,0,0,1-.86.79,2.12,2.12,0,0,1-1.1.29,1.92,1.92,0,0,1-1.58-.7,3.3,3.3,0,0,1-.57-2.11,3.77,3.77,0,0,1,.16-1.13,2.69,2.69,0,0,1,.46-.91,2.23,2.23,0,0,1,.76-.6,2.26,2.26,0,0,1,1-.22,2.13,2.13,0,0,1,1,.2,2.05,2.05,0,0,1,.71.61v-3.27h.52V282Zm-2-.35a1.83,1.83,0,0,0,1-.29,2.78,2.78,0,0,0,.79-.78v-2.91a2,2,0,0,0-.71-.67,2.06,2.06,0,0,0-.87-.19,1.94,1.94,0,0,0-.86.18,1.64,1.64,0,0,0-.61.5,2.3,2.3,0,0,0-.37.77,3.56,3.56,0,0,0-.13,1,3,3,0,0,0,.46,1.81A1.57,1.57,0,0,0,641,281.65Z"/>
    <path d="M654.6,278.08a4.84,4.84,0,0,1-.27,1.65,3.65,3.65,0,0,1-.77,1.26,3.36,3.36,0,0,1-1.18.81,4.24,4.24,0,0,1-3,0,3.36,3.36,0,0,1-1.18-.81,3.65,3.65,0,0,1-.77-1.26,4.84,4.84,0,0,1-.27-1.65,4.74,4.74,0,0,1,.27-1.64,3.61,3.61,0,0,1,.77-1.27,3.36,3.36,0,0,1,1.18-.81,4.1,4.1,0,0,1,3,0,3.36,3.36,0,0,1,1.18.81,3.61,3.61,0,0,1,.77,1.27A4.74,4.74,0,0,1,654.6,278.08Zm-.59,0a4.2,4.2,0,0,0-.23-1.47,3,3,0,0,0-.64-1.11,2.7,2.7,0,0,0-1-.7,3.37,3.37,0,0,0-1.29-.24,3.32,3.32,0,0,0-1.28.24,2.79,2.79,0,0,0-1,.7,3,3,0,0,0-.65,1.11,4.2,4.2,0,0,0-.23,1.47,4.3,4.3,0,0,0,.23,1.48,3.09,3.09,0,0,0,.65,1.1,2.76,2.76,0,0,0,1,.69,3.32,3.32,0,0,0,1.28.24,3.37,3.37,0,0,0,1.29-.24,2.68,2.68,0,0,0,1-.69,3.07,3.07,0,0,0,.64-1.1A4.3,4.3,0,0,0,654,278.08Z"/>
    <path d="M656.56,276.49V280a1.89,1.89,0,0,0,.36,1.22,1.32,1.32,0,0,0,1.08.44,1.9,1.9,0,0,0,1-.28,2.85,2.85,0,0,0,.84-.76v-4.14h.53V282h-.29c-.11,0-.16-.05-.16-.14l0-.82a3.21,3.21,0,0,1-.89.76,2.33,2.33,0,0,1-1.92.15,1.51,1.51,0,0,1-.57-.42,1.75,1.75,0,0,1-.34-.65A3,3,0,0,1,656,280v-3.52Z"/>
    <path d="M663.67,282.09a1.17,1.17,0,0,1-.87-.31,1.31,1.31,0,0,1-.31-1v-3.77h-.79a.17.17,0,0,1-.1,0,.1.1,0,0,1,0-.09v-.21l.94-.06.13-2a.2.2,0,0,1,0-.09.12.12,0,0,1,.09,0H663v2.1h1.73v.39H663v3.74a1.14,1.14,0,0,0,.06.39.61.61,0,0,0,.16.27.67.67,0,0,0,.24.16.94.94,0,0,0,.3.05.9.9,0,0,0,.34-.06,1.17,1.17,0,0,0,.25-.13.84.84,0,0,0,.17-.13.25.25,0,0,1,.11,0,.08.08,0,0,1,.08,0l.15.23a1.54,1.54,0,0,1-.54.38A1.71,1.71,0,0,1,663.67,282.09Z"/>
    <path d="M666.17,282v-8.06h.53v3.51a2.91,2.91,0,0,1,.84-.77,2.13,2.13,0,0,1,1.09-.28,1.91,1.91,0,0,1,1.58.7,3.3,3.3,0,0,1,.57,2.11,3.77,3.77,0,0,1-.16,1.13,2.41,2.41,0,0,1-.47.9,2.13,2.13,0,0,1-.75.61,2.26,2.26,0,0,1-1,.22,1.92,1.92,0,0,1-1.71-.88l0,.67a.14.14,0,0,1-.15.14Zm2.32-5.18a1.91,1.91,0,0,0-1,.28,2.82,2.82,0,0,0-.79.79v2.91a1.84,1.84,0,0,0,.7.67,2.07,2.07,0,0,0,.88.19,1.94,1.94,0,0,0,.86-.18,1.84,1.84,0,0,0,.61-.5,2.35,2.35,0,0,0,.37-.78,3.83,3.83,0,0,0,.13-1,3,3,0,0,0-.46-1.81A1.55,1.55,0,0,0,668.49,276.82Z"/>
    <path d="M674.27,276.4a2.74,2.74,0,0,1,1.06.2,2.28,2.28,0,0,1,.79.58,2.63,2.63,0,0,1,.49.89,4.11,4.11,0,0,1,0,2.34,2.63,2.63,0,0,1-.49.89,2.14,2.14,0,0,1-.79.57,2.57,2.57,0,0,1-1.06.2,2.54,2.54,0,0,1-1.06-.2,2.09,2.09,0,0,1-.8-.57,2.47,2.47,0,0,1-.49-.89,4.11,4.11,0,0,1,0-2.34,2.47,2.47,0,0,1,.49-.89,2.23,2.23,0,0,1,.8-.58A2.71,2.71,0,0,1,674.27,276.4Zm0,5.26a2.09,2.09,0,0,0,.86-.17,1.62,1.62,0,0,0,.61-.49,2,2,0,0,0,.37-.76,3.86,3.86,0,0,0,.12-1,3.78,3.78,0,0,0-.12-1,2,2,0,0,0-.37-.77,1.62,1.62,0,0,0-.61-.49,1.94,1.94,0,0,0-.86-.17,1.91,1.91,0,0,0-.86.17,1.65,1.65,0,0,0-.62.49,2.21,2.21,0,0,0-.37.77,3.78,3.78,0,0,0-.12,1,3.86,3.86,0,0,0,.12,1,2.16,2.16,0,0,0,.37.76,1.65,1.65,0,0,0,.62.49A2.06,2.06,0,0,0,674.27,281.66Z"/>
    <path d="M678.55,276.49V280a1.94,1.94,0,0,0,.35,1.22,1.33,1.33,0,0,0,1.09.44,1.87,1.87,0,0,0,1-.28,2.62,2.62,0,0,0,.84-.76v-4.14h.53V282h-.29c-.1,0-.16-.05-.16-.14l0-.82a3.18,3.18,0,0,1-.88.76,2.25,2.25,0,0,1-1.12.29,2.21,2.21,0,0,1-.81-.14,1.51,1.51,0,0,1-.57-.42,1.91,1.91,0,0,1-.34-.65A3,3,0,0,1,678,280v-3.52Z"/>
    <path d="M684.15,282v-5.51h.29a.16.16,0,0,1,.17.14l0,.83a3.07,3.07,0,0,1,.88-.77,2.3,2.3,0,0,1,1.91-.15,1.63,1.63,0,0,1,.58.42,1.91,1.91,0,0,1,.34.65,3,3,0,0,1,.12.87V282H688v-3.52a1.89,1.89,0,0,0-.36-1.22,1.3,1.3,0,0,0-1.08-.44,2,2,0,0,0-1,.28,2.87,2.87,0,0,0-.83.77V282Z"/>
    <path d="M694.06,282a.14.14,0,0,1-.16-.14l-.06-.87a2.93,2.93,0,0,1-.86.79,2.12,2.12,0,0,1-1.1.29,1.92,1.92,0,0,1-1.58-.7,3.3,3.3,0,0,1-.57-2.11,3.77,3.77,0,0,1,.16-1.13,2.71,2.71,0,0,1,.47-.91,2.1,2.1,0,0,1,.75-.6,2.26,2.26,0,0,1,1-.22,2.1,2.1,0,0,1,1,.2,2.05,2.05,0,0,1,.71.61v-3.27h.53V282Zm-2-.35a1.83,1.83,0,0,0,1-.29,2.78,2.78,0,0,0,.79-.78v-2.91a1.75,1.75,0,0,0-1.58-.86,1.94,1.94,0,0,0-.86.18,1.73,1.73,0,0,0-.61.5,2.3,2.3,0,0,0-.37.77,4,4,0,0,0-.13,1,3,3,0,0,0,.46,1.81A1.57,1.57,0,0,0,692,281.65Z"/>
  </g>
  <g>
    <g>
      <rect id="icon-background" x="623.75" y="191.11" width="51.65" height="51.65" rx="5" style="fill: #fff"/>
      <path d="M670.23,191.11H628.92a5.18,5.18,0,0,0-5.17,5.16v41.32a5.18,5.18,0,0,0,5.17,5.16h41.31a5.17,5.17,0,0,0,5.17-5.16V196.27A5.17,5.17,0,0,0,670.23,191.11Z" style="fill: #2089c8"/>
    </g>
    <g style="opacity: 0.1">
      <path d="M627.29,239.22c-1.95,1.94-3.54,1.28-3.54-1.47V196.11a5,5,0,0,1,5-5H670.4c2.75,0,3.41,1.59,1.46,3.53Z" style="fill: #fff"/>
    </g>
    <path d="M666,209.61v7.6a.76.76,0,0,1-.76.76h-3a.76.76,0,0,1-.76-.76V213.6l-12.07,12.07h0l-2.15,2.15a.76.76,0,0,1-1.08,0L644,225.67h0l-10.43-10.42a1.25,1.25,0,0,1-.17-.25.79.79,0,0,1,0-.31v-5.33c0-.62.32-.46.32-.46l13,13,11.54-11.54h-3.61a.76.76,0,0,1-.76-.76v-3a.76.76,0,0,1,.76-.75h10.63a.76.76,0,0,1,.76.75Z" style="fill: #fff"/>
  </g>
  <g style="opacity: 0.5">
    <path d="M587.37,220.63a5.66,5.66,0,0,0,1-3.49h2.8a9.11,9.11,0,0,1-2,5.49l2.87,3.22h-4L587,224.43a6.13,6.13,0,0,1-4.36,1.7c-3.18,0-5.73-1.66-5.73-4.67,0-1.93.83-3.33,3.38-4.41-1.24-1.18-2.23-2-2.23-3.87,0-2.43,2.62-3.65,4.87-3.65s4.63,1,4.63,3.63c0,2.21-1.36,3.24-3.11,4.25Zm-5.45-1.84a3,3,0,0,0-2,2.58,2.5,2.5,0,0,0,2.71,2.37,4,4,0,0,0,2.81-1Zm2.8-5.35a1.62,1.62,0,0,0-1.77-1.66,1.69,1.69,0,0,0-1.84,1.7c0,.9.9,1.66,1.52,2.28C583.43,215.34,584.72,214.38,584.72,213.44Z" style="fill: #6b6b6b"/>
  </g>
</svg>
