<svg xmlns="http://www.w3.org/2000/svg" xmlns:xlink="http://www.w3.org/1999/xlink" viewBox="0 0 770 360">
  <defs>
    <linearGradient id="linear-gradient" x1="1477.98" y1="78.16" x2="1454.54" y2="78.16" gradientTransform="translate(-1086.71)" gradientUnits="userSpaceOnUse">
      <stop offset="0" stop-color="#fff"/>
      <stop offset="1"/>
    </linearGradient>
    <linearGradient id="linear-gradient-2" x1="612.3" y1="257.02" x2="680.66" y2="226.21" gradientTransform="translate(52.85 105.84) rotate(-10.17)" gradientUnits="userSpaceOnUse">
      <stop offset="0" stop-color="#fff"/>
      <stop offset="0.65" stop-color="#f6f6f6"/>
      <stop offset="1" stop-color="#6c6c6c"/>
    </linearGradient>
  </defs>
  <title>product-hero-cloudmail-b</title>
  <g style="isolation: isolate">
    <g id="Layer_1" data-name="Layer 1">
      <g>
        <polygon points="411.23 21.05 424.68 23.63 423.94 132.99 411.12 135.29 411.23 21.05"/>
        <path d="M429.17,127.08a6,6,0,0,1-6,6l-36.29,2.35a6,6,0,0,1-6-6v-100a6,6,0,0,1,6-6h36.29a6,6,0,0,1,6,6Z"/>
        <path d="M373.81,20.94h36.29a6,6,0,0,1,6,6V129.4a6,6,0,0,1-6,6H373.81a6,6,0,0,1-6-6V26.93A6,6,0,0,1,373.81,20.94Z" style="fill: #333"/>
        <g>
          <rect x="374.68" y="36.57" width="34.04" height="1.98" style="opacity: 0.35000000000000003"/>
          <rect x="374.68" y="35.18" width="34.04" height="1.98" style="fill: #ccc"/>
        </g>
        <g>
          <rect x="374.68" y="46.28" width="34.04" height="1.98" style="opacity: 0.35000000000000003"/>
          <rect x="374.68" y="44.89" width="34.04" height="1.98" style="fill: #ccc"/>
        </g>
        <g>
          <rect x="374.68" y="55.72" width="34.04" height="1.98" style="opacity: 0.35000000000000003"/>
          <rect x="374.68" y="54.33" width="34.04" height="1.98" style="fill: #ccc"/>
        </g>
        <path d="M392,135.38H373.81a6,6,0,0,1-6-6V26.93a6,6,0,0,1,6-6H392Z" style="opacity: 0.05;fill: url(#linear-gradient)"/>
        <g>
          <path d="M383.22,73.84a8.49,8.49,0,1,0,8.48-8.48A8.49,8.49,0,0,0,383.22,73.84Z" style="fill: #c90;opacity: 0.1"/>
          <path d="M385.19,73.84a6.51,6.51,0,1,0,6.51-6.51A6.5,6.5,0,0,0,385.19,73.84Z" style="fill: #c90;opacity: 0.1"/>
          <path d="M386.31,73.84a5.4,5.4,0,1,0,5.39-5.4A5.39,5.39,0,0,0,386.31,73.84Z" style="fill: #c90"/>
          <path d="M387.36,73.84a4.34,4.34,0,1,0,4.34-4.34A4.34,4.34,0,0,0,387.36,73.84Z" style="fill: #c90"/>
        </g>
      </g>
      <path d="M407.05,124V165.3c0,17,13.66,33.5,30.35,36.69l306.94,58.62" style="fill: none;stroke: #999;stroke-linecap: round;stroke-linejoin: bevel;stroke-width: 4.1189800000000005px"/>
      <path d="M376.85,124V165.3c0,17-13.65,33.53-30.33,36.75L79.2,253.64" style="fill: none;stroke: #999;stroke-linecap: round;stroke-linejoin: bevel;stroke-width: 4.1189800000000005px"/>
      <line x1="392.08" y1="122.78" x2="391.7" y2="296.52" style="fill: none;stroke: #999;stroke-linecap: round;stroke-linejoin: bevel;stroke-width: 4.04795px"/>
      <g>
        <polyline points="704.85 287.8 757.72 263.17 737.44 202.07 687.06 219.42" style="fill: #444"/>
        <path d="M704.85,287.79l-17.38-4.72s2.39-32-.56-64.18Z" style="fill: #2b2b2b"/>
        <path d="M736.48,206.17s18,38.36,26.67,51c0,0-25.36,16.87-54.25,24.45,0,0-9.07-4.29-20.87-58Z" style="fill: #bcbcbc"/>
        <path d="M736.79,203.91s16.69,39.11,25.37,51.75c0,0-28.12,18.54-52.63,23.21,0,0-10.27-3.65-22.09-57.37Z" style="fill: #2b2b2b;opacity: 0.59;mix-blend-mode: multiply"/>
        <path d="M737.44,202.07s10,26.82,26.67,51c0,0-29.74,18-53.93,23.95,0,0-10-4.51-22.56-57.19Z" style="fill: #eaeaea"/>
        <path d="M736.52,204.48s3.33,19.6,13.65,29.3L763,251.46s-16,10.94-52.45,23.26c0,0-13.65-14.87-23.12-53.22Z" style="fill: #2b2b2b;opacity: 0.39;mix-blend-mode: multiply"/>
        <path d="M737.44,202.07s4.68,17.81,15.33,28.54L768,246.23s-19.71,13.9-56.52,26.09c0,0-15.09-15.08-24.57-53.43Z" style="fill: url(#linear-gradient-2)"/>
        <polygon points="686.91 218.89 738.44 200.96 741.72 212.54 690.52 231.66 686.91 218.89" style="fill: #a80707"/>
        <polygon points="687.47 283.07 698.43 280.07 704.85 287.8 687.47 283.07" style="fill: #777"/>
        <polygon points="698.43 280.07 687.06 219.42 687.47 283.07 698.43 280.07" style="fill: #666"/>
        <polygon points="691.02 233.17 691.64 235.06 742.46 215.31 741.79 213.82 691.02 233.17" style="fill: #c1c1c1"/>
        <polygon points="690.52 231.66 691.14 233.56 741.9 214.21 741.24 212.72 690.52 231.66" style="fill: #828282"/>
        <path d="M715.1,253.59A6.7,6.7,0,0,0,717,256a3.9,3.9,0,0,0,4.44.2,4.3,4.3,0,0,0,2.17-2.4,4.45,4.45,0,0,0-.38-3.63,3.83,3.83,0,0,0-3.89-2.45,12,12,0,0,0-4.08,1.4l-1.87-3.76a11.22,11.22,0,0,0,3.32-2.27,3.47,3.47,0,0,0,.18-4A4,4,0,0,0,714.7,237a3.68,3.68,0,0,0-3,.29,3.57,3.57,0,0,0-2.14,2.55,5.61,5.61,0,0,0,.74,3.57l-4.91,2.45a14.48,14.48,0,0,1-1.21-4.12,9.33,9.33,0,0,1,.59-3.9,7.78,7.78,0,0,1,1.72-2.67,12,12,0,0,1,3.24-2.24,10.38,10.38,0,0,1,7.17-1.1,7.39,7.39,0,0,1,5,4.15,6.56,6.56,0,0,1,.58,4.68,5.34,5.34,0,0,1-1.15,2.31,4.26,4.26,0,0,1,2.68.2,7.41,7.41,0,0,1,4.55,4.08,9.6,9.6,0,0,1,.64,7.14c-.72,2.5-2.6,4.52-5.68,6.06q-5.67,2.82-9.73.23a12.46,12.46,0,0,1-3.87-4.52Z" style="fill: #494949"/>
        <path d="M739.06,225.11q3.77,2.43,6.94,8.61t2.93,10.52c-.17,2.92-1.92,5.24-5.28,7s-6.41,1.85-9,.27-5-4.53-7.22-8.81-3.19-7.91-2.95-10.89,2.13-5.23,5.63-6.81S736.54,223.48,739.06,225.11Zm-1.82,21.27a3.42,3.42,0,0,0,4.31.77,3.26,3.26,0,0,0,1.85-3.85,36,36,0,0,0-6.93-13.43,3.47,3.47,0,0,0-4.24-.76,3.18,3.18,0,0,0-2,3.67A25.2,25.2,0,0,0,733,240,26,26,0,0,0,737.24,246.38Z" style="fill: #494949"/>
      </g>
      <g>
        <g>
          <path d="M66.29,239.54A13.94,13.94,0,1,0,45.91,222.7,21,21,0,0,1,66.29,239.54Z" style="fill: #444"/>
          <path d="M26.15,251.32a21,21,0,0,1,9.49-26.06,13.94,13.94,0,0,0-9.49,26.06Z" style="fill: #444"/>
          <path d="M75.39,240.31h-9a20.57,20.57,0,0,1-3.3,15.13h5.06a12.75,12.75,0,0,1,12.45,10h4.14V249.68A9.38,9.38,0,0,0,75.39,240.31Z" style="fill: #444"/>
          <path d="M10.49,268.21a12.77,12.77,0,0,1,12.77-12.77h5.06a21.17,21.17,0,0,1-2.15-4.08H15.77a9.37,9.37,0,0,0-9.37,9.37v15.76h4.09Z" style="fill: #444"/>
        </g>
        <path d="M15.37,288.72V270.3a11,11,0,0,1,11-10.95H64.84a11,11,0,0,1,11,10.95v18.42Z" style="fill: #444"/>
        <path d="M61.89,244.64A16.31,16.31,0,1,0,45.58,261,16.31,16.31,0,0,0,61.89,244.64Z" style="fill: #444"/>
      </g>
      <path d="M530.52,127.75c0-28.19-20.47-44.52-47.36-49.09,0-.62,0-1.25,0-1.87A72.52,72.52,0,0,0,343.71,49a33.33,33.33,0,0,0-57.62,29.87c-26.33,5-46.23,21.09-46.23,48.89a57,57,0,0,0,57,57H477.44l0-.14A57,57,0,0,0,530.52,127.75Z" style="fill: #636363;opacity: 0.30000000000000004"/>
      <path d="M527.43,120.86c0-27.59-20-43.56-46.35-48,0-.61.05-1.22.05-1.84A71,71,0,0,0,344.59,43.77,32.61,32.61,0,0,0,288.2,73C262.42,77.94,243,93.65,243,120.86a55.76,55.76,0,0,0,55.76,55.77H475.48l0-.15A55.75,55.75,0,0,0,527.43,120.86Z" style="fill: #f2f2f2"/>
      <g>
        <polygon points="339.23 328.23 355.22 344.21 371.25 328.18 339.23 328.23" style="fill: #abd31a"/>
        <polygon points="339.2 332.93 339.2 360 371.3 360 371.3 332.79 355.15 348.94 339.2 332.93" style="fill: #abd31a"/>
      </g>
      <g>
        <polygon points="413.98 328.23 429.96 344.21 446 328.18 413.98 328.23" style="fill: #abd31a"/>
        <polygon points="413.94 332.93 413.94 360 446.05 360 446.05 332.79 429.9 348.94 413.94 332.93" style="fill: #abd31a"/>
      </g>
      <g>
        <polygon points="376.83 328.23 392.82 344.21 408.85 328.18 376.83 328.23" style="fill: #abd31a"/>
        <polygon points="376.8 332.93 376.8 360 408.9 360 408.9 332.79 392.75 348.94 376.8 332.93" style="fill: #abd31a"/>
      </g>
      <g>
        <polygon points="339.23 290.93 355.22 306.91 371.25 290.88 339.23 290.93" style="fill: #abd31a"/>
        <polygon points="339.2 295.63 339.2 322.7 371.3 322.7 371.3 295.49 355.15 311.64 339.2 295.63" style="fill: #abd31a"/>
      </g>
      <g>
        <polygon points="413.98 290.93 429.96 306.91 446 290.88 413.98 290.93" style="fill: #abd31a"/>
        <polygon points="413.94 295.63 413.94 322.7 446.05 322.7 446.05 295.49 429.9 311.64 413.94 295.63" style="fill: #abd31a"/>
      </g>
      <g>
        <polygon points="376.83 290.93 392.82 306.91 408.85 290.88 376.83 290.93" style="fill: #abd31a"/>
        <polygon points="376.8 295.63 376.8 322.7 408.9 322.7 408.9 295.49 392.75 311.64 376.8 295.63" style="fill: #abd31a"/>
      </g>
      <path d="M422.3,65.27H362.41a7.51,7.51,0,0,0-7.48,7.49v59.88a7.51,7.51,0,0,0,7.48,7.49H422.3a7.51,7.51,0,0,0,7.49-7.49V72.76A7.51,7.51,0,0,0,422.3,65.27Z" style="fill: #e48f15"/>
      <path d="M411.07,82.88H373.64a1.11,1.11,0,0,0-1.1,1.1v37.43a1.1,1.1,0,0,0,1.1,1.1h37.43a1.1,1.1,0,0,0,1.1-1.1V84A1.1,1.1,0,0,0,411.07,82.88ZM380.2,89.49h24.32a1,1,0,0,1,.82.42l-13,9.84-13-9.85A1,1,0,0,1,380.2,89.49Zm25.37,25.37a1,1,0,0,1-1.05,1H380.2a1,1,0,0,1-1.05-1V96.34l13.21,10.21,13.21-10.19Z" style="fill: #fff"/>
      <g style="opacity: 0.1">
        <path d="M358.63,136.59c-1.94,1.95-3.54,1.29-3.54-1.47V70.27a5,5,0,0,1,5-5H425c2.75,0,3.41,1.59,1.46,3.54Z" style="fill: #fff"/>
      </g>
    </g>
  </g>
</svg>
