<svg id="Layer_1" data-name="Layer 1" xmlns="http://www.w3.org/2000/svg" viewBox="0 0 1040 848">
  <title>title-maketheswitch</title>
  <g>
    <path d="M195.69,185.6,271.27,2H384.64V9.59h-9q-12.33,0-19.72,4.32-5.13,2.88-8.21,9.65-2.26,4.94-2.26,25.67V232.84q0,21.36,2.26,26.69t9.24,9.35q7,4,18.69,4h9v7.6H239.23v-7.6h9q12.32,0,19.71-4.31,5.13-2.88,8.22-9.86,2.25-4.92,2.26-25.87V26.43L171.66,280.48h-4.93L58.3,28.28V224.42q0,20.54,1,25.26a29.26,29.26,0,0,0,11.61,16.73q8.92,6.48,28,6.47v7.6H3.67v-7.6H6.54a43.59,43.59,0,0,0,17.25-3q8-3.2,12.12-8.53t6.37-15q.4-2.25.41-20.95V49.23q0-21.15-2.26-26.39T31.19,13.6q-7-4-18.69-4H3.67V2H117.44Z" style="fill: #fff"/>
    <path d="M482.94,252.14q-35.13,31-63.05,31-16.44,0-27.32-10.78t-10.88-27q0-22,18.89-39.53t82.36-46.72V139.8q0-21.77-2.37-27.42t-8.93-9.85a26.8,26.8,0,0,0-14.79-4.21q-13.35,0-22,6-5.34,3.7-5.34,8.63,0,4.3,5.75,10.68,7.8,8.82,7.8,17a22.75,22.75,0,0,1-7.49,17.15q-7.5,7.09-19.62,7.09-12.93,0-21.66-7.81t-8.73-18.28q0-14.78,11.7-28.23T430,89.9a133,133,0,0,1,43.54-7.19q27.31,0,43.23,11.6t20.64,25.16q2.88,8.63,2.88,39.64v74.55q0,13.14,1,16.53a9.9,9.9,0,0,0,3.08,5,7.34,7.34,0,0,0,4.73,1.64q5.32,0,10.88-7.59l6.16,4.92q-10.27,15.21-21.25,22.08a46,46,0,0,1-25,6.88q-16.42,0-25.67-7.7T482.94,252.14Zm0-15V172.87q-24.85,14.58-37,31.21-8,11.1-8,22.39a23.5,23.5,0,0,0,6.78,16.63q5.13,5.55,14.37,5.55Q469.39,248.65,482.94,237.15Z" style="fill: #fff"/>
    <path d="M635.87,2V185.19l44.56-43.75q13.76-13.33,17.15-19.3a23.26,23.26,0,0,0,3.39-11.5,11.46,11.46,0,0,0-4.52-9.24q-4.51-3.7-17.66-5.34v-7.6h86.05v7.6a48,48,0,0,0-21.56,5.85q-9.24,5.24-36.15,31.52l-21,20.54,45.18,66.13q27.32,40.26,32.45,45.18a27,27,0,0,0,17.67,7.81v7.39h-99.2v-7.39q6.57,0,9.55-2.47c2-1.64,3-3.42,3-5.34q0-4.71-8.63-17.45l-38-55.66-12.32,12.12v34.5q0,22,4.1,27.42t16.84,6.88v7.39H557.62v-7.39q12.11-1.23,17.25-7.81,3.5-4.51,3.49-26.49V43.69q0-21.78-4-27.11t-16.74-7V2Z" style="fill: #fff"/>
    <path d="M925,177.59H819.6q1.85,38.21,20.33,60.38Q854.11,255,874,255a38.83,38.83,0,0,0,22.38-6.88q10.07-6.88,21.57-24.75l7,4.52q-15.62,31.83-34.5,45.08t-43.75,13.24q-42.72,0-64.69-32.86-17.67-26.49-17.66-65.72,0-48.06,26-76.5t60.9-28.44q29.16,0,50.62,23.92T925,177.59Zm-50.52-13.76q0-33.06-3.6-45.39T859.65,99.75q-4.32-3.69-11.5-3.69-10.68,0-17.46,10.47-12.12,18.28-12.12,50.11v7.19Z" style="fill: #fff"/>
  </g>
  <g>
    <path d="M178.57,330.17,180.83,423h-8.42q-6-34.9-29.27-56.17T92.72,345.57q-20.94,0-33.16,11.2T47.34,382.54A31.26,31.26,0,0,0,51.65,399q6,9.66,19.1,19.1,9.65,6.78,44.56,24,48.88,24,65.93,45.39a76.82,76.82,0,0,1,16.84,48.88q0,34.9-27.21,60.07T101.76,621.6a112.09,112.09,0,0,1-24.85-2.67q-11.72-2.67-29.37-10.07-9.85-4.1-16.22-4.1-5.35,0-11.3,4.1t-9.65,12.53H2.77V516.24h7.6q9,44.35,34.81,67.67t55.55,23.31q23,0,36.66-12.53t13.66-29.16a38.27,38.27,0,0,0-5.24-19.1q-5.24-9.24-15.91-17.56T92.11,507.2q-38-18.68-54.63-31.83T11.91,446A72.77,72.77,0,0,1,3,410.27Q3,377,27.41,353.58T89,330.17a104.79,104.79,0,0,1,26.28,3.29q9.66,2.46,23.52,9.14t19.41,6.67a11,11,0,0,0,8.42-3.29q3.08-3.27,5.75-15.81Z" style="fill: #fff"/>
    <path d="M390,620.77,337.46,479.89,285.91,620.77H275.23L224.09,481.53q-11.51-31.83-19.51-41.48-5.15-6.57-15.61-9.45V423h96.94v7.6c-6.58,0-11.09,1-13.56,2.87s-3.7,4.11-3.7,6.58,2.19,9.31,6.58,20.94l28.13,75,27.11-75-2.05-4.93q-6.17-15.39-10.78-19.61t-14.28-5.85V423h98.38v7.6q-11.5.61-14.58,3.18a9,9,0,0,0-3.09,7.29q0,4.53,6,19.92l27.11,75,24.65-69q5.32-14.79,5.33-20.13,0-8-3.9-11.7T428,430.6V423h56.89v7.6q-9.45,1.23-15,6.67t-14.38,30.91l-53.8,152.59Z" style="fill: #fff"/>
    <path d="M548.92,423V575.18q0,20.34,4.72,26t18.48,6.47V615H468.41v-7.39q12.73-.4,18.89-7.39,4.11-4.72,4.11-25.06V463.05q0-20.34-4.72-26t-18.28-6.47V423Zm-28.76-93a31.74,31.74,0,1,1-22.38,9.35A30.56,30.56,0,0,1,520.16,330Z" style="fill: #fff"/>
    <path d="M637.56,352.76V423h45.6v20.33h-45.6v118.5q0,16.63,1.54,21.46a15.45,15.45,0,0,0,5.45,7.81c2.6,2,5,3,7.18,3q13.35,0,25.27-20.34l6.16,4.52q-16.63,39.43-54,39.43-18.27,0-30.91-10.16t-16.12-22.7q-2.05-7-2.05-37.78V443.33H555v-7.19q25.88-18.27,44.06-38.4a234.34,234.34,0,0,0,31.73-45Z" style="fill: #fff"/>
    <path d="M828.69,565.53l6.37,4.93q-13.56,25.47-33.78,37.89a80.89,80.89,0,0,1-43,12.42q-38.4,0-61.41-28.95t-23-69.62q0-39.23,20.95-69,25.26-35.94,69.62-35.94,29.77,0,47.34,15t17.56,33.48q0,11.7-7.09,18.69t-18.58,7q-12.12,0-20-8t-9.75-28.55q-1.23-12.93-6-18.07a14.63,14.63,0,0,0-11.09-5.13q-9.85,0-16.84,10.47-10.68,15.81-10.68,48.47a156.37,156.37,0,0,0,8.63,51.85q8.63,24.75,23.62,36.87,11.28,8.84,26.69,8.83a40.63,40.63,0,0,0,19.1-4.72Q816.38,578.67,828.69,565.53Z" style="fill: #fff"/>
    <path d="M907.69,336.54v111.1q15.81-16.63,29-23.51A58.09,58.09,0,0,1,964,417.25q18.07,0,30.91,10.27t17,24.13q4.2,13.86,4.21,46.72v75q0,22,4.1,27.42t16.64,6.88V615H939.52v-7.39q10.28-1.44,15.4-8.21,3.71-5.34,3.7-26.09V487.69q0-23.82-1.85-29.88a18.21,18.21,0,0,0-6.26-9.45,15.94,15.94,0,0,0-10-3.39q-8.22,0-16,5.65t-16.84,19.82V573.33q0,20.55,3.08,25.67,3.9,7,16,8.63V615H829.44v-7.39q12.12-1.23,17.25-7.8,3.49-4.51,3.49-26.5V378.23q0-21.76-4-27.11t-16.74-7v-7.6Z" style="fill: #fff"/>
  </g>
  <g>
    <path d="M293.53,320.8v16.64H291.9q-1.45-5.76-3.22-8.27a12.42,12.42,0,0,0-4.86-4,15.6,15.6,0,0,0-6-.82h-4.58v47.44c0,3.15.18,5.11.52,5.9a4.68,4.68,0,0,0,2,2.06,8.28,8.28,0,0,0,4.15.89h2v1.68h-32.2v-1.68h2.05a8.54,8.54,0,0,0,4.3-.95,4.33,4.33,0,0,0,1.86-2.18c.34-.73.5-2.63.5-5.72V324.33H254c-4.15,0-7.15.88-9,2.64-2.63,2.44-4.29,5.94-5,10.47h-1.72V320.8Z" style="fill: #fff"/>
    <path d="M319.68,352.73v19c0,3.15.18,5.11.52,5.9a4.65,4.65,0,0,0,2.05,2.06,8.12,8.12,0,0,0,4.1.89h2v1.68H296.24v-1.68h2a8.51,8.51,0,0,0,4.3-.95,4.13,4.13,0,0,0,1.82-2.18c.33-.73.5-2.63.5-5.72V331.32q0-4.71-.5-5.9a4.57,4.57,0,0,0-2-2.06,8.13,8.13,0,0,0-4.1-.88h-2V320.8h32.15v1.68h-2a8.47,8.47,0,0,0-4.31.95,4.35,4.35,0,0,0-1.86,2.17q-.49,1.09-.5,5.72v17.41h21.73V331.32q0-4.71-.5-5.9a4.52,4.52,0,0,0-2-2.06,8.3,8.3,0,0,0-4.13-.88h-2V320.8h32.11v1.68h-2a8.3,8.3,0,0,0-4.31.95,4.3,4.3,0,0,0-1.86,2.17q-.49,1.09-.5,5.72v40.45c0,3.15.17,5.11.5,5.9a4.48,4.48,0,0,0,2,2.06,8.3,8.3,0,0,0,4.13.89h2v1.68H332.74v-1.68h2a8.42,8.42,0,0,0,4.31-.95,4.43,4.43,0,0,0,1.86-2.18c.33-.73.5-2.63.5-5.72v-19Z" style="fill: #fff"/>
    <path d="M389.24,324.33v25h1.22q5.85,0,8.48-3.67t3.36-10.84H404v32.2H402.3a24.15,24.15,0,0,0-2.29-8.62,9.83,9.83,0,0,0-4.06-4.51,15.43,15.43,0,0,0-6.71-1.16V370.1q0,5.07.43,6.21a3.69,3.69,0,0,0,1.61,1.86,7.61,7.61,0,0,0,3.81.73h3.67q8.63,0,13.81-4T420,362.75h1.68L419,382.3H365.79v-1.68h2a8.55,8.55,0,0,0,4.31-.95,4.18,4.18,0,0,0,1.82-2.18c.33-.73.49-2.63.49-5.72V331.32a32.91,32.91,0,0,0-.22-5.13,4.35,4.35,0,0,0-1.68-2.44,7.78,7.78,0,0,0-4.72-1.27h-2V320.8h51.48V339h-1.73q-1.31-6.66-3.69-9.57a13.78,13.78,0,0,0-6.74-4.26c-1.69-.54-4.87-.82-9.52-.82Z" style="fill: #fff"/>
  </g>
  <g>
    <path d="M30.22,667.45v50.36a31.35,31.35,0,0,0,.5,7.24,4.68,4.68,0,0,0,2.09,2.57,9.94,9.94,0,0,0,5.09,1h1.4v1.68H6.88v-1.68H8.52a12.74,12.74,0,0,0,5.63-.91,4.7,4.7,0,0,0,2.27-2.5q.58-1.59.59-7.4V685.88a20.2,20.2,0,0,0-.41-5.33,3.87,3.87,0,0,0-1.52-1.82,4.49,4.49,0,0,0-2.57-.75,14.58,14.58,0,0,0-5.63,1.46l-.82-1.64,22.66-10.35Z" style="fill: #fff"/>
    <path d="M88.23,699.51a55.74,55.74,0,0,1-2.59,17.21,23.43,23.43,0,0,1-4.16,8,20.9,20.9,0,0,1-5.92,5,15.24,15.24,0,0,1-15.26-.43,21.48,21.48,0,0,1-6.36-6.5,31.39,31.39,0,0,1-3.5-8.22,52.81,52.81,0,0,1-1.95-14.35,57.59,57.59,0,0,1,2.82-18.43,21.85,21.85,0,0,1,7-10.65,15.44,15.44,0,0,1,20,0,21.09,21.09,0,0,1,6.83,9.84A54.64,54.64,0,0,1,88.23,699.51Zm-14-.09q0-16.17-.18-18.85c-.3-4.2-1-7.05-2.18-8.53a4.38,4.38,0,0,0-3.68-1.46,4.31,4.31,0,0,0-3.09,1.09q-1.68,1.59-2.27,5.61t-.59,28q0,13.08.91,17.53.68,3.23,2,4.31a5,5,0,0,0,3.36,1.09,4.05,4.05,0,0,0,3.41-1.45c1.27-1.7,2-4.31,2.18-7.86Z" style="fill: #fff"/>
    <path d="M142.66,688.34H157v5h-8.13a15.28,15.28,0,0,1,3.09,4,12.49,12.49,0,0,1,1.09,5.14,12.68,12.68,0,0,1-2.52,7.87,16.75,16.75,0,0,1-6.86,5.23,19.76,19.76,0,0,1-7.69,1.88c-.19,0-2-.07-5.45-.23a4.74,4.74,0,0,0-3.43,1.34,4.29,4.29,0,0,0-1.39,3.2,3.34,3.34,0,0,0,1.25,2.68,6.31,6.31,0,0,0,4.07,1l7.85-.09q9.54,0,13.13,2.09a9.59,9.59,0,0,1,5.13,8.94,11.49,11.49,0,0,1-2.36,7,13.89,13.89,0,0,1-6.23,4.65A37.87,37.87,0,0,1,135,750.37a45.71,45.71,0,0,1-10.45-1.11q-4.72-1.12-6.76-3.09a5.82,5.82,0,0,1-2-4.16,5.32,5.32,0,0,1,1.57-3.74q1.56-1.66,5.84-2.8-5.91-2.9-5.91-8.08a9.54,9.54,0,0,1,2.41-6.09,19.32,19.32,0,0,1,7.63-5.13q-6.09-2.22-8.81-5.85a13.64,13.64,0,0,1-2.73-8.4,14.06,14.06,0,0,1,5.09-10.79q5.08-4.56,13.08-4.56A23.77,23.77,0,0,1,142.66,688.34Zm-10.54,48.22q-4.64,0-6.13.77a4.27,4.27,0,0,0-2.59,3.82c0,1.54.9,2.94,2.68,4.2s5.15,1.88,10.08,1.88q6.32,0,9.92-1.68t3.62-4.72a2.77,2.77,0,0,0-.69-1.91,6.63,6.63,0,0,0-3.7-1.86Q142.83,736.57,132.12,736.56Zm2.68-47.18a5.29,5.29,0,0,0-4.45,2.66q-1.82,2.65-1.82,11,0,6.76,1.8,9.29a5.15,5.15,0,0,0,4.24,2.52,5.44,5.44,0,0,0,4.54-2.5c1.22-1.66,1.82-4.9,1.82-9.72q0-8.13-2-11.08A4.65,4.65,0,0,0,134.8,689.38Z" style="fill: #fff"/>
    <path d="M178.23,687.84v9.62q4.22-6.57,7.4-8.74a11,11,0,0,1,6.13-2.15,5.39,5.39,0,0,1,4.06,1.56,6.08,6.08,0,0,1,1.53,4.43,6.93,6.93,0,0,1-1.48,4.72,4.57,4.57,0,0,1-3.56,1.68,6.14,6.14,0,0,1-4.18-1.54,25.76,25.76,0,0,0-2.09-1.73,2,2,0,0,0-1-.27,3.78,3.78,0,0,0-2.49,1,9.4,9.4,0,0,0-2.82,4.41,30.77,30.77,0,0,0-1.45,9.71v9.77l0,2.54a10.46,10.46,0,0,0,.32,3.31,3.61,3.61,0,0,0,1.61,1.8,9.33,9.33,0,0,0,3.61.7v1.64H160.88v-1.64c1.85-.15,3.1-.66,3.75-1.52s1-3.14,1-6.83V696.83a17.71,17.71,0,0,0-.36-4.63,3.58,3.58,0,0,0-1.32-1.86,6.87,6.87,0,0,0-3-.82v-1.68Z" style="fill: #fff"/>
    <path d="M234.87,707.55h-23.3q.42,8.44,4.5,13.35a9.51,9.51,0,0,0,7.54,3.77,8.57,8.57,0,0,0,4.95-1.53,19.18,19.18,0,0,0,4.77-5.47l1.54,1q-3.45,7-7.63,10a16.43,16.43,0,0,1-9.67,2.93q-9.45,0-14.31-7.27-3.9-5.85-3.9-14.53,0-10.62,5.74-16.91t13.47-6.29a14.56,14.56,0,0,1,11.19,5.29Q234.5,697.14,234.87,707.55Zm-11.17-3c0-4.87-.27-8.22-.8-10a8.16,8.16,0,0,0-2.47-4.13,3.75,3.75,0,0,0-2.54-.82,4.46,4.46,0,0,0-3.86,2.31q-2.68,4-2.68,11.08v1.59Z" style="fill: #fff"/>
    <path d="M262.31,724q-7.76,6.86-13.94,6.86a8.25,8.25,0,0,1-6-2.39,8.08,8.08,0,0,1-2.41-6,11.72,11.72,0,0,1,4.18-8.74q4.18-3.88,18.21-10.33v-4.27q0-4.82-.52-6.06a4.91,4.91,0,0,0-2-2.18,5.9,5.9,0,0,0-3.27-.93,8.41,8.41,0,0,0-4.85,1.31,2.33,2.33,0,0,0-1.18,1.91,3.91,3.91,0,0,0,1.27,2.36,5.81,5.81,0,0,1,1.72,3.77,5,5,0,0,1-1.66,3.79,6,6,0,0,1-4.33,1.57,6.86,6.86,0,0,1-4.79-1.73,5.25,5.25,0,0,1-1.93-4,9.38,9.38,0,0,1,2.59-6.24,16.33,16.33,0,0,1,7.22-4.56,29.37,29.37,0,0,1,9.62-1.59q6,0,9.56,2.56a12,12,0,0,1,4.57,5.57q.63,1.9.63,8.76v16.48a17.14,17.14,0,0,0,.23,3.66,2.18,2.18,0,0,0,.68,1.11,1.62,1.62,0,0,0,1,.36c.79,0,1.59-.56,2.41-1.68l1.36,1.09a16.63,16.63,0,0,1-4.7,4.89,10.21,10.21,0,0,1-5.51,1.52,8.58,8.58,0,0,1-5.68-1.71A7.69,7.69,0,0,1,262.31,724Zm0-3.32V706.5a26.5,26.5,0,0,0-8.17,6.9,8.43,8.43,0,0,0-1.77,5,5.19,5.19,0,0,0,1.5,3.68,4.08,4.08,0,0,0,3.17,1.23C258.56,723.26,260.31,722.41,262.31,720.71Z" style="fill: #fff"/>
    <path d="M300.93,672.31v15.53H311v4.49H300.93v26.21a19.78,19.78,0,0,0,.34,4.74,3.37,3.37,0,0,0,1.2,1.73,2.65,2.65,0,0,0,1.59.65c2,0,3.83-1.49,5.58-4.49l1.37,1q-3.69,8.72-11.95,8.72a10.54,10.54,0,0,1-6.83-2.25,9.89,9.89,0,0,1-3.56-5q-.46-1.54-.46-8.35V692.33h-5.54v-1.59a58.05,58.05,0,0,0,9.74-8.49,51.63,51.63,0,0,0,7-9.94Z" style="fill: #fff"/>
    <path d="M353.31,687.84v9.62q4.23-6.57,7.4-8.74a11,11,0,0,1,6.14-2.15,5.42,5.42,0,0,1,4.06,1.56,6.12,6.12,0,0,1,1.52,4.43,6.93,6.93,0,0,1-1.47,4.72,4.6,4.6,0,0,1-3.57,1.68,6.16,6.16,0,0,1-4.18-1.54,25.76,25.76,0,0,0-2.09-1.73,2,2,0,0,0-1-.27,3.8,3.8,0,0,0-2.5,1,9.39,9.39,0,0,0-2.81,4.41,30.77,30.77,0,0,0-1.46,9.71v9.77l.05,2.54a10.15,10.15,0,0,0,.32,3.31,3.61,3.61,0,0,0,1.61,1.8,9.29,9.29,0,0,0,3.61.7v1.64H336v-1.64c1.84-.15,3.09-.66,3.74-1.52s1-3.14,1-6.83V696.83a17.71,17.71,0,0,0-.36-4.63,3.7,3.7,0,0,0-1.32-1.86,6.92,6.92,0,0,0-3-.82v-1.68Z" style="fill: #fff"/>
    <path d="M410,707.55H386.66q.4,8.44,4.5,13.35a9.49,9.49,0,0,0,7.53,3.77,8.53,8.53,0,0,0,4.95-1.53,19,19,0,0,0,4.77-5.47l1.54,1q-3.45,7-7.62,10a16.46,16.46,0,0,1-9.68,2.93q-9.43,0-14.3-7.27-3.9-5.85-3.91-14.53,0-10.62,5.75-16.91t13.46-6.29a14.6,14.6,0,0,1,11.2,5.29Q409.59,697.14,410,707.55Zm-11.17-3c0-4.87-.26-8.22-.79-10a8.17,8.17,0,0,0-2.48-4.13,3.73,3.73,0,0,0-2.54-.82,4.47,4.47,0,0,0-3.86,2.31q-2.67,4-2.68,11.08v1.59Z" style="fill: #fff"/>
    <path d="M437.4,724q-7.77,6.86-13.94,6.86a8.22,8.22,0,0,1-6-2.39,8,8,0,0,1-2.41-6,11.69,11.69,0,0,1,4.18-8.74q4.17-3.88,18.21-10.33v-4.27c0-3.21-.18-5.23-.52-6.06a4.91,4.91,0,0,0-2-2.18,5.94,5.94,0,0,0-3.27-.93,8.42,8.42,0,0,0-4.86,1.31,2.33,2.33,0,0,0-1.18,1.91,3.91,3.91,0,0,0,1.27,2.36,5.83,5.83,0,0,1,1.73,3.77,5,5,0,0,1-1.66,3.79,6,6,0,0,1-4.34,1.57A6.9,6.9,0,0,1,417.8,703a5.28,5.28,0,0,1-1.93-4,9.43,9.43,0,0,1,2.59-6.24,16.39,16.39,0,0,1,7.22-4.56,29.47,29.47,0,0,1,9.63-1.59q6,0,9.56,2.56a12.08,12.08,0,0,1,4.56,5.57c.42,1.27.64,4.19.64,8.76v16.48a17.41,17.41,0,0,0,.22,3.66,2.18,2.18,0,0,0,.68,1.11,1.65,1.65,0,0,0,1,.36c.79,0,1.59-.56,2.41-1.68l1.36,1.09a16.75,16.75,0,0,1-4.7,4.89,10.22,10.22,0,0,1-5.52,1.52,8.62,8.62,0,0,1-5.68-1.71A7.69,7.69,0,0,1,437.4,724Zm0-3.32V706.5a26.56,26.56,0,0,0-8.18,6.9,8.43,8.43,0,0,0-1.77,5A5.19,5.19,0,0,0,429,722a4.12,4.12,0,0,0,3.18,1.23Q434.4,723.26,437.4,720.71Z" style="fill: #fff"/>
    <path d="M486,686.66l.68,14.48h-1.54q-2.77-6.45-5.75-8.81a9.54,9.54,0,0,0-5.92-2.36,4.47,4.47,0,0,0-3.18,1.25A3.85,3.85,0,0,0,469,694.1a3.74,3.74,0,0,0,.91,2.37q1.46,1.86,8.13,6.38t8.79,7.67a12.47,12.47,0,0,1,2.11,7.06,14.92,14.92,0,0,1-1.77,6.95,12.42,12.42,0,0,1-5,5.22,14.27,14.27,0,0,1-7.13,1.82,24.78,24.78,0,0,1-8.13-1.91,6.84,6.84,0,0,0-1.86-.5c-1,0-1.83.76-2.5,2.27H461l-.73-15.26h1.54c1.37,4,3.23,7,5.61,9s4.63,3,6.74,3a4.9,4.9,0,0,0,3.57-1.34,4.34,4.34,0,0,0,1.38-3.24,5.58,5.58,0,0,0-1.36-3.77A35.81,35.81,0,0,0,471.7,715c-4.63-3.2-7.63-5.66-9-7.35a12.83,12.83,0,0,1-3-8.22,13.38,13.38,0,0,1,3.38-8.88q3.39-4,9.79-4a14.25,14.25,0,0,1,6.67,1.68,4.51,4.51,0,0,0,2,.68,2.37,2.37,0,0,0,1.32-.34,8.88,8.88,0,0,0,1.59-1.93Z" style="fill: #fff"/>
    <path d="M514.08,686.57a19.67,19.67,0,0,1,10.31,2.86,18.21,18.21,0,0,1,7.24,8.13,26.75,26.75,0,0,1,2.48,11.53q0,9-4.59,15.12-5.53,7.37-15.31,7.36-9.57,0-14.75-6.72a24.84,24.84,0,0,1-5.18-15.58,25.1,25.1,0,0,1,5.29-15.91Q504.87,686.57,514.08,686.57Zm.18,3.22a5.26,5.26,0,0,0-4,1.75c-1.11,1.17-1.83,3.47-2.18,6.9s-.52,8.21-.52,14.33a61.55,61.55,0,0,0,.63,9.08,8.74,8.74,0,0,0,2.14,4.9,5,5,0,0,0,3.72,1.68,5.09,5.09,0,0,0,3.4-1.13,7.63,7.63,0,0,0,2.37-4.31q.9-4.32.9-17.44c0-5.15-.28-8.68-.86-10.6a8.08,8.08,0,0,0-2.54-4.21A4.81,4.81,0,0,0,514.26,689.79Z" style="fill: #fff"/>
    <path d="M556.6,687.84v5.49a25,25,0,0,1,6.26-5.15,13.36,13.36,0,0,1,6.45-1.61,10.28,10.28,0,0,1,6.86,2.29,10.94,10.94,0,0,1,3.63,5.7c.49,1.72.73,5,.73,9.94V721c0,3.27.29,5.31.89,6.11s1.82,1.31,3.7,1.52v1.64H563.64v-1.64a4.5,4.5,0,0,0,3.45-2q.72-1.12.72-5.63V702.14a31.28,31.28,0,0,0-.4-6.58,4.07,4.07,0,0,0-1.39-2.11,3.46,3.46,0,0,0-2.16-.75q-3.9,0-7.26,5.58V721q0,4.77.88,6a4.51,4.51,0,0,0,3.3,1.59v1.64H539.3v-1.64a5.27,5.27,0,0,0,3.81-1.72c.52-.67.77-2.64.77-5.91v-24q0-4.81-.88-6c-.59-.78-1.83-1.3-3.7-1.54v-1.68Z" style="fill: #fff"/>
    <path d="M616.51,686.66l.68,14.48h-1.54q-2.77-6.45-5.75-8.81A9.56,9.56,0,0,0,604,690a4.44,4.44,0,0,0-3.18,1.25,3.85,3.85,0,0,0-1.32,2.88,3.74,3.74,0,0,0,.91,2.37q1.46,1.86,8.13,6.38t8.78,7.67a12.4,12.4,0,0,1,2.12,7.06,14.81,14.81,0,0,1-1.78,6.95,12.39,12.39,0,0,1-5,5.22,14.3,14.3,0,0,1-7.13,1.82,24.78,24.78,0,0,1-8.13-1.91,6.93,6.93,0,0,0-1.86-.5c-1,0-1.83.76-2.5,2.27h-1.5l-.72-15.26h1.54a19.72,19.72,0,0,0,5.61,9q3.56,3,6.74,3a4.9,4.9,0,0,0,3.57-1.34,4.34,4.34,0,0,0,1.38-3.24,5.58,5.58,0,0,0-1.36-3.77A35.59,35.59,0,0,0,602.2,715c-4.63-3.2-7.62-5.66-9-7.35a12.87,12.87,0,0,1-3-8.22,13.33,13.33,0,0,1,3.38-8.88q3.38-4,9.79-4a14.25,14.25,0,0,1,6.67,1.68,4.47,4.47,0,0,0,2,.68,2.39,2.39,0,0,0,1.32-.34,8.64,8.64,0,0,0,1.58-1.93Z" style="fill: #fff"/>
    <path d="M663.36,672.31v15.53h10.08v4.49H663.36v26.21a19.78,19.78,0,0,0,.34,4.74,3.43,3.43,0,0,0,1.2,1.73,2.68,2.68,0,0,0,1.59.65c2,0,3.83-1.49,5.59-4.49l1.36,1q-3.68,8.72-11.94,8.72a10.55,10.55,0,0,1-6.84-2.25,9.89,9.89,0,0,1-3.56-5q-.47-1.54-.46-8.35V692.33H645.1v-1.59a58.05,58.05,0,0,0,9.74-8.49,51.63,51.63,0,0,0,7-9.94Z" style="fill: #fff"/>
    <path d="M696.2,686.57a19.65,19.65,0,0,1,10.31,2.86,18.21,18.21,0,0,1,7.24,8.13,26.75,26.75,0,0,1,2.48,11.53q0,9-4.59,15.12-5.53,7.37-15.3,7.36-9.58,0-14.76-6.72a24.84,24.84,0,0,1-5.18-15.58,25.16,25.16,0,0,1,5.29-15.91Q687,686.57,696.2,686.57Zm.18,3.22a5.28,5.28,0,0,0-4,1.75q-1.65,1.76-2.18,6.9t-.52,14.33a61.55,61.55,0,0,0,.63,9.08,8.81,8.81,0,0,0,2.14,4.9,5,5,0,0,0,3.72,1.68,5.12,5.12,0,0,0,3.41-1.13A7.62,7.62,0,0,0,702,723q.91-4.32.91-17.44,0-7.72-.86-10.6a8.15,8.15,0,0,0-2.55-4.21A4.77,4.77,0,0,0,696.38,689.79Z" style="fill: #fff"/>
    <path d="M784.33,687.84v33.24q0,4.86.91,6.06c.6.8,1.83,1.31,3.67,1.52v1.64h-17.3v-5.68a21.79,21.79,0,0,1-6.08,5.29,14,14,0,0,1-6.81,1.66,10.07,10.07,0,0,1-6.38-2.2,10.75,10.75,0,0,1-3.75-5.16c-.63-2-1-5.4-1-10.31V697.06q0-4.81-.89-6c-.59-.78-1.82-1.3-3.7-1.54v-1.68h17.3v29a24.47,24.47,0,0,0,.43,5.85,3.83,3.83,0,0,0,1.37,2,3.49,3.49,0,0,0,2.15.68,5.28,5.28,0,0,0,3-.86,18.76,18.76,0,0,0,4.36-4.77v-22.7q0-4.81-.88-6c-.59-.78-1.83-1.3-3.7-1.54v-1.68Z" style="fill: #fff"/>
    <path d="M820.58,686.66l.68,14.48h-1.54q-2.78-6.45-5.75-8.81a9.54,9.54,0,0,0-5.92-2.36,4.47,4.47,0,0,0-3.18,1.25,3.85,3.85,0,0,0-1.32,2.88,3.74,3.74,0,0,0,.91,2.37q1.45,1.86,8.13,6.38t8.79,7.67a12.47,12.47,0,0,1,2.11,7.06,14.92,14.92,0,0,1-1.77,6.95,12.42,12.42,0,0,1-5,5.22,14.27,14.27,0,0,1-7.13,1.82,24.78,24.78,0,0,1-8.13-1.91,6.84,6.84,0,0,0-1.86-.5c-1,0-1.83.76-2.5,2.27h-1.49l-.73-15.26h1.54c1.37,4,3.23,7,5.61,9s4.63,3,6.74,3a4.88,4.88,0,0,0,3.57-1.34,4.34,4.34,0,0,0,1.38-3.24,5.58,5.58,0,0,0-1.36-3.77,35.81,35.81,0,0,0-6.08-4.82c-4.63-3.2-7.63-5.66-9-7.35a12.83,12.83,0,0,1-3-8.22,13.38,13.38,0,0,1,3.38-8.88q3.39-4,9.79-4a14.25,14.25,0,0,1,6.67,1.68,4.51,4.51,0,0,0,2,.68,2.37,2.37,0,0,0,1.32-.34,8.88,8.88,0,0,0,1.59-1.93Z" style="fill: #fff"/>
    <path d="M864.6,707.55H841.3c.28,5.63,1.77,10.08,4.5,13.35a9.51,9.51,0,0,0,7.54,3.77,8.57,8.57,0,0,0,4.95-1.53,19,19,0,0,0,4.76-5.47l1.55,1q-3.45,7-7.63,10a16.46,16.46,0,0,1-9.67,2.93q-9.45,0-14.31-7.27-3.9-5.85-3.9-14.53,0-10.62,5.74-16.91t13.47-6.29a14.58,14.58,0,0,1,11.19,5.29Q864.23,697.14,864.6,707.55Zm-11.17-3c0-4.87-.27-8.22-.8-10a8.16,8.16,0,0,0-2.47-4.13,3.77,3.77,0,0,0-2.54-.82,4.48,4.48,0,0,0-3.87,2.31q-2.67,4-2.67,11.08v1.59Z" style="fill: #fff"/>
    <path d="M907.4,672.31v15.53h10.09v4.49H907.4v26.21a19.59,19.59,0,0,0,.35,4.74A3.37,3.37,0,0,0,909,725a2.65,2.65,0,0,0,1.59.65c2,0,3.83-1.49,5.58-4.49l1.37,1q-3.69,8.72-12,8.72a10.54,10.54,0,0,1-6.83-2.25,10,10,0,0,1-3.57-5q-.45-1.54-.45-8.35V692.33h-5.54v-1.59a58.45,58.45,0,0,0,9.74-8.49,51.63,51.63,0,0,0,7-9.94Z" style="fill: #fff"/>
    <path d="M937.57,668.72v24.57a25.81,25.81,0,0,1,6.4-5.2,12.83,12.83,0,0,1,6-1.52,10.56,10.56,0,0,1,6.84,2.27,10.82,10.82,0,0,1,3.77,5.33q.93,3.08.93,10.33v16.58q0,4.86.91,6.06c.6.8,1.83,1.31,3.67,1.52v1.64H944.61v-1.64a5,5,0,0,0,3.41-1.81q.81-1.19.81-5.77V702.14a30.22,30.22,0,0,0-.41-6.6,4,4,0,0,0-1.38-2.09,3.53,3.53,0,0,0-2.2-.75,6,6,0,0,0-3.55,1.25,16,16,0,0,0-3.72,4.38v22.75q0,4.54.68,5.67c.58,1,1.76,1.67,3.54,1.91v1.64H920.27v-1.64a5.23,5.23,0,0,0,3.81-1.72q.78-1,.78-5.86V677.94q0-4.82-.89-6c-.59-.78-1.82-1.3-3.7-1.54v-1.68Z" style="fill: #fff"/>
    <path d="M1006.61,707.55h-23.3q.42,8.44,4.5,13.35a9.51,9.51,0,0,0,7.54,3.77,8.57,8.57,0,0,0,4.95-1.53,19.18,19.18,0,0,0,4.77-5.47l1.54,1q-3.45,7-7.63,10a16.43,16.43,0,0,1-9.67,2.93q-9.45,0-14.31-7.27-3.9-5.85-3.9-14.53,0-10.62,5.74-16.91t13.47-6.29a14.56,14.56,0,0,1,11.19,5.29Q1006.24,697.14,1006.61,707.55Zm-11.17-3c0-4.87-.27-8.22-.8-10a8.16,8.16,0,0,0-2.47-4.13,3.75,3.75,0,0,0-2.54-.82,4.46,4.46,0,0,0-3.86,2.31q-2.68,4-2.68,11.08v1.59Z" style="fill: #fff"/>
    <path d="M20.41,767.84v5.49a24.84,24.84,0,0,1,6.27-5.15,13.36,13.36,0,0,1,6.45-1.61A10.3,10.3,0,0,1,40,768.86a11.06,11.06,0,0,1,3.63,5.7c.48,1.72.72,5,.72,9.94V801q0,4.9.89,6.11c.59.8,1.82,1.31,3.7,1.52v1.64H27.45v-1.64a4.46,4.46,0,0,0,3.45-2q.74-1.12.73-5.63V782.14a31,31,0,0,0-.41-6.58,4,4,0,0,0-1.38-2.11,3.46,3.46,0,0,0-2.16-.75q-3.9,0-7.27,5.58V801q0,4.77.89,6a4.51,4.51,0,0,0,3.29,1.59v1.64H3.11v-1.64a5.27,5.27,0,0,0,3.82-1.72q.77-1,.77-5.91v-24q0-4.81-.89-6c-.59-.78-1.82-1.3-3.7-1.54v-1.68Z" style="fill: #fff"/>
    <path d="M89.45,787.55H66.16q.41,8.44,4.49,13.35a9.51,9.51,0,0,0,7.54,3.77,8.53,8.53,0,0,0,5-1.53,19.18,19.18,0,0,0,4.77-5.47l1.54,1q-3.45,7-7.63,10a16.43,16.43,0,0,1-9.67,2.93q-9.45,0-14.3-7.27-3.91-5.85-3.91-14.53,0-10.62,5.75-16.91t13.46-6.29a14.56,14.56,0,0,1,11.19,5.29Q89.1,777.14,89.45,787.55Zm-11.17-3c0-4.87-.26-8.22-.79-10A8.17,8.17,0,0,0,75,770.34a3.73,3.73,0,0,0-2.54-.82,4.46,4.46,0,0,0-3.86,2.31q-2.69,4-2.68,11.08v1.59Z" style="fill: #fff"/>
    <path d="M135.56,811.57l-11.63-31.15-11.39,31.15h-2.37l-11.3-30.79q-2.55-7-4.32-9.17a6.26,6.26,0,0,0-3.45-2.09v-1.68h21.44v1.68a5.13,5.13,0,0,0-3,.63,1.83,1.83,0,0,0-.82,1.46,22.31,22.31,0,0,0,1.45,4.63l6.23,16.57,6-16.57-.45-1.09a13.13,13.13,0,0,0-2.39-4.34,6.15,6.15,0,0,0-3.15-1.29v-1.68h21.75v1.68a6.33,6.33,0,0,0-3.23.7,2,2,0,0,0-.68,1.61,16.91,16.91,0,0,0,1.32,4.41l6,16.57L147,777.56a16.42,16.42,0,0,0,1.18-4.45,3.42,3.42,0,0,0-.86-2.59,5.62,5.62,0,0,0-3.36-1v-1.68h12.58v1.68a5.64,5.64,0,0,0-3.32,1.47c-.81.81-1.87,3.08-3.18,6.84l-11.89,33.74Z" style="fill: #fff"/>
    <path d="M222.46,789.32l16.71-40.6h25.06v1.68h-2a8.67,8.67,0,0,0-4.36,1,4.5,4.5,0,0,0-1.82,2.14c-.33.72-.5,2.62-.5,5.67v40.6q0,4.72.5,5.9a4.54,4.54,0,0,0,2,2.07,8.31,8.31,0,0,0,4.14.89h2v1.68H232.08v-1.68h2a8.57,8.57,0,0,0,4.36-1,4.42,4.42,0,0,0,1.82-2.18q.5-1.08.5-5.72V754.12L217.14,810.3h-1.09l-24-55.77V797.9a36.65,36.65,0,0,0,.23,5.58,6.45,6.45,0,0,0,2.56,3.71c1.32.95,3.38,1.43,6.2,1.43v1.68H180v-1.68h.63a9.64,9.64,0,0,0,3.82-.66,6.16,6.16,0,0,0,2.68-1.89,8.81,8.81,0,0,0,1.41-3.31c.06-.33.09-1.88.09-4.63v-39c0-3.11-.17-5.06-.5-5.83a4.62,4.62,0,0,0-2-2,8.27,8.27,0,0,0-4.13-.89H180v-1.68h25.16Z" style="fill: #fff"/>
    <path d="M291.18,804q-7.77,6.86-13.94,6.86a8.22,8.22,0,0,1-6-2.39,8,8,0,0,1-2.41-6,11.69,11.69,0,0,1,4.18-8.74q4.17-3.88,18.21-10.33v-4.27c0-3.21-.18-5.23-.52-6.06a4.91,4.91,0,0,0-2-2.18,5.94,5.94,0,0,0-3.27-.93,8.42,8.42,0,0,0-4.86,1.31,2.33,2.33,0,0,0-1.18,1.91,4,4,0,0,0,1.27,2.36,5.83,5.83,0,0,1,1.73,3.77,5,5,0,0,1-1.66,3.79,6,6,0,0,1-4.34,1.57,6.9,6.9,0,0,1-4.79-1.73,5.28,5.28,0,0,1-1.93-4,9.43,9.43,0,0,1,2.59-6.24,16.39,16.39,0,0,1,7.22-4.56,29.47,29.47,0,0,1,9.63-1.59q6,0,9.56,2.56a12,12,0,0,1,4.56,5.57q.65,1.9.64,8.76v16.48a17.41,17.41,0,0,0,.22,3.66,2.19,2.19,0,0,0,.69,1.11,1.62,1.62,0,0,0,1,.36c.79,0,1.59-.56,2.41-1.68l1.36,1.09a16.63,16.63,0,0,1-4.7,4.89,10.22,10.22,0,0,1-5.52,1.52,8.57,8.57,0,0,1-5.67-1.71A7.65,7.65,0,0,1,291.18,804Zm0-3.32V786.5a26.56,26.56,0,0,0-8.18,6.9,8.43,8.43,0,0,0-1.77,5,5.19,5.19,0,0,0,1.5,3.68,4.12,4.12,0,0,0,3.18,1.23Q288.18,803.26,291.18,800.71Z" style="fill: #fff"/>
    <path d="M329.52,767.84v33.65c0,3,.35,4.91,1,5.74s2.06,1.31,4.09,1.43v1.64H311.72v-1.64A5.55,5.55,0,0,0,315.9,807q.9-1,.9-5.54v-24.8c0-3-.34-4.91-1-5.74s-2-1.31-4-1.43v-1.68Zm-6.36-20.57a7,7,0,0,1,7,7,6.72,6.72,0,0,1-2.07,5,7,7,0,0,1-9.92-9.93A6.72,6.72,0,0,1,323.16,747.27Z" style="fill: #fff"/>
    <path d="M354.1,748.72v52.77c0,3,.35,4.91,1,5.74s2.05,1.31,4.08,1.43v1.64H336.3v-1.64a5.54,5.54,0,0,0,4.18-1.63c.6-.7.91-2.55.91-5.54v-44q0-4.46-1.05-5.7c-.69-.83-2-1.31-4-1.43v-1.68Z" style="fill: #fff"/>
    <path d="M378.46,806v15.81a12.63,12.63,0,0,0,.52,4.45,3.38,3.38,0,0,0,1.61,1.72,11,11,0,0,0,4.27.55v1.68h-24.2v-1.68a5.62,5.62,0,0,0,4.17-1.59q.92-1,.91-5.41V776.69c0-3-.35-4.91-1-5.74s-2.05-1.31-4-1.43v-1.68h17.8v5.58A16.1,16.1,0,0,1,383,768.7a13.08,13.08,0,0,1,7.22-2.13,13.63,13.63,0,0,1,8.51,2.95,18.29,18.29,0,0,1,5.84,8.15,31,31,0,0,1,2,11.19,32.36,32.36,0,0,1-2.06,11.79,17.4,17.4,0,0,1-6,8.13,14.72,14.72,0,0,1-8.74,2.79,14.25,14.25,0,0,1-6.54-1.55A17,17,0,0,1,378.46,806Zm0-4.58q3.9,5.54,8.35,5.54a4.67,4.67,0,0,0,4-2.59q2.37-3.83,2.36-14.53,0-11-2.58-15a5.29,5.29,0,0,0-4.64-2.68c-3.05,0-5.57,2.21-7.53,6.63Z" style="fill: #fff"/>
    <path d="M430.06,767.84v9.62q4.21-6.57,7.4-8.74a11,11,0,0,1,6.13-2.15,5.41,5.41,0,0,1,4.06,1.56,6.08,6.08,0,0,1,1.52,4.43,6.93,6.93,0,0,1-1.47,4.72,4.59,4.59,0,0,1-3.57,1.68,6.13,6.13,0,0,1-4.17-1.54c-1.19-1-1.88-1.61-2.09-1.73a2,2,0,0,0-1.05-.27,3.76,3.76,0,0,0-2.49,1,9.4,9.4,0,0,0-2.82,4.41,30.77,30.77,0,0,0-1.45,9.71v9.77l0,2.54a10.46,10.46,0,0,0,.32,3.31A3.61,3.61,0,0,0,432,808a9.33,9.33,0,0,0,3.61.7v1.64H412.71v-1.64c1.85-.15,3.09-.66,3.75-1.52s1-3.14,1-6.83V776.83a17.71,17.71,0,0,0-.36-4.63,3.58,3.58,0,0,0-1.32-1.86,6.87,6.87,0,0,0-3-.82v-1.68Z" style="fill: #fff"/>
    <path d="M470.76,766.57a19.67,19.67,0,0,1,10.31,2.86,18.21,18.21,0,0,1,7.24,8.13,26.75,26.75,0,0,1,2.48,11.53q0,9-4.59,15.12-5.55,7.37-15.31,7.36-9.57,0-14.75-6.72A24.84,24.84,0,0,1,451,789.27a25.1,25.1,0,0,1,5.29-15.91Q461.54,766.57,470.76,766.57Zm.18,3.22a5.26,5.26,0,0,0-4,1.75q-1.67,1.76-2.18,6.9t-.52,14.33a61.55,61.55,0,0,0,.63,9.08,8.74,8.74,0,0,0,2.14,4.9,5,5,0,0,0,3.72,1.68,5.09,5.09,0,0,0,3.4-1.13,7.63,7.63,0,0,0,2.37-4.31q.9-4.32.9-17.44c0-5.15-.28-8.68-.86-10.6a8.08,8.08,0,0,0-2.54-4.21A4.81,4.81,0,0,0,470.94,769.79Z" style="fill: #fff"/>
    <path d="M512.78,752.31v15.53h10.08v4.49H512.78v26.21a19.78,19.78,0,0,0,.34,4.74,3.49,3.49,0,0,0,1.2,1.73,2.7,2.7,0,0,0,1.59.65c2,0,3.83-1.49,5.59-4.49l1.36,1q-3.68,8.72-11.94,8.72a10.55,10.55,0,0,1-6.84-2.25,9.89,9.89,0,0,1-3.56-5q-.47-1.54-.46-8.35V772.33h-5.54v-1.59a58.05,58.05,0,0,0,9.74-8.49,51.63,51.63,0,0,0,7-9.94Z" style="fill: #fff"/>
    <path d="M561.56,787.55H538.27q.4,8.44,4.49,13.35a9.51,9.51,0,0,0,7.54,3.77,8.53,8.53,0,0,0,5-1.53,19.18,19.18,0,0,0,4.77-5.47l1.54,1q-3.45,7-7.63,10a16.43,16.43,0,0,1-9.67,2.93q-9.45,0-14.3-7.27-3.91-5.85-3.91-14.53,0-10.62,5.75-16.91t13.46-6.29a14.56,14.56,0,0,1,11.19,5.29Q561.2,777.14,561.56,787.55Zm-11.17-3c0-4.87-.26-8.22-.79-10a8.17,8.17,0,0,0-2.48-4.13,3.73,3.73,0,0,0-2.54-.82,4.46,4.46,0,0,0-3.86,2.31q-2.69,4-2.68,11.08v1.59Z" style="fill: #fff"/>
    <path d="M600.22,799.35l1.41,1.09a21.16,21.16,0,0,1-7.47,8.38,17.88,17.88,0,0,1-9.51,2.75,16.48,16.48,0,0,1-13.58-6.4,24,24,0,0,1-5.09-15.4,25.85,25.85,0,0,1,4.64-15.26A17.8,17.8,0,0,1,586,766.57q6.59,0,10.47,3.31c2.58,2.21,3.88,4.68,3.88,7.4a5.35,5.35,0,0,1-5.68,5.68,6,6,0,0,1-4.43-1.77c-1.16-1.18-1.88-3.29-2.15-6.31a6.9,6.9,0,0,0-1.32-4,3.22,3.22,0,0,0-2.45-1.13,4.43,4.43,0,0,0-3.72,2.31q-2.37,3.5-2.37,10.72a34.58,34.58,0,0,0,1.91,11.46,17.57,17.57,0,0,0,5.22,8.15,9.29,9.29,0,0,0,5.91,2,8.94,8.94,0,0,0,4.22-1.05A19.14,19.14,0,0,0,600.22,799.35Z" style="fill: #fff"/>
    <path d="M622.4,752.31v15.53h10.08v4.49H622.4v26.21a19.78,19.78,0,0,0,.34,4.74,3.43,3.43,0,0,0,1.2,1.73,2.7,2.7,0,0,0,1.59.65c2,0,3.83-1.49,5.59-4.49l1.36,1q-3.68,8.72-11.94,8.72a10.55,10.55,0,0,1-6.84-2.25,9.89,9.89,0,0,1-3.56-5q-.46-1.54-.46-8.35V772.33h-5.54v-1.59a58.05,58.05,0,0,0,9.74-8.49,51.63,51.63,0,0,0,7-9.94Z" style="fill: #fff"/>
    <path d="M655.24,766.57a19.65,19.65,0,0,1,10.31,2.86,18.21,18.21,0,0,1,7.24,8.13,26.61,26.61,0,0,1,2.48,11.53q0,9-4.59,15.12-5.53,7.37-15.3,7.36-9.58,0-14.76-6.72a24.83,24.83,0,0,1-5.17-15.58,25.1,25.1,0,0,1,5.29-15.91Q646,766.57,655.24,766.57Zm.19,3.22a5.28,5.28,0,0,0-4,1.75q-1.65,1.76-2.18,6.9t-.52,14.33a60.17,60.17,0,0,0,.64,9.08,8.73,8.73,0,0,0,2.13,4.9,5,5,0,0,0,3.72,1.68,5.12,5.12,0,0,0,3.41-1.13A7.62,7.62,0,0,0,661,803q.91-4.32.91-17.44,0-7.72-.86-10.6a8.15,8.15,0,0,0-2.55-4.21A4.76,4.76,0,0,0,655.43,769.79Z" style="fill: #fff"/>
    <path d="M698,767.84v9.62q4.22-6.57,7.4-8.74a11,11,0,0,1,6.13-2.15,5.41,5.41,0,0,1,4.06,1.56,6.08,6.08,0,0,1,1.52,4.43,6.93,6.93,0,0,1-1.47,4.72,4.6,4.6,0,0,1-3.57,1.68,6.13,6.13,0,0,1-4.17-1.54c-1.19-1-1.88-1.61-2.09-1.73a2,2,0,0,0-1.05-.27,3.8,3.8,0,0,0-2.5,1,9.39,9.39,0,0,0-2.81,4.41,30.77,30.77,0,0,0-1.45,9.71v9.77l0,2.54a10.46,10.46,0,0,0,.32,3.31A3.61,3.61,0,0,0,700,808a9.33,9.33,0,0,0,3.61.7v1.64H680.69v-1.64c1.85-.15,3.09-.66,3.75-1.52s1-3.14,1-6.83V776.83a17.71,17.71,0,0,0-.36-4.63,3.58,3.58,0,0,0-1.32-1.86,6.87,6.87,0,0,0-3-.82v-1.68Z" style="fill: #fff"/>
    <path d="M775.31,799.35l1.41,1.09a21.16,21.16,0,0,1-7.47,8.38,17.94,17.94,0,0,1-9.52,2.75,16.48,16.48,0,0,1-13.58-6.4,24,24,0,0,1-5.08-15.4,25.85,25.85,0,0,1,4.63-15.26,17.81,17.81,0,0,1,15.39-7.94q6.58,0,10.47,3.31t3.88,7.4a5.33,5.33,0,0,1-5.67,5.68,6,6,0,0,1-4.43-1.77c-1.17-1.18-1.88-3.29-2.16-6.31a7,7,0,0,0-1.31-4,3.24,3.24,0,0,0-2.46-1.13,4.44,4.44,0,0,0-3.72,2.31q-2.36,3.5-2.36,10.72a34.33,34.33,0,0,0,1.91,11.46,17.57,17.57,0,0,0,5.22,8.15,9.24,9.24,0,0,0,5.9,2,8.94,8.94,0,0,0,4.22-1.05A19.16,19.16,0,0,0,775.31,799.35Z" style="fill: #fff"/>
    <path d="M800.66,766.57A19.67,19.67,0,0,1,811,769.43a18.21,18.21,0,0,1,7.24,8.13,26.75,26.75,0,0,1,2.48,11.53q0,9-4.59,15.12-5.54,7.37-15.3,7.36-9.59,0-14.76-6.72a24.84,24.84,0,0,1-5.18-15.58,25.16,25.16,0,0,1,5.29-15.91Q791.45,766.57,800.66,766.57Zm.18,3.22a5.26,5.26,0,0,0-4,1.75c-1.11,1.17-1.83,3.47-2.18,6.9s-.52,8.21-.52,14.33a61.55,61.55,0,0,0,.63,9.08,8.81,8.81,0,0,0,2.14,4.9,5,5,0,0,0,3.72,1.68,5.14,5.14,0,0,0,3.41-1.13,7.68,7.68,0,0,0,2.36-4.31q.9-4.32.91-17.44,0-7.72-.87-10.6a8.08,8.08,0,0,0-2.54-4.21A4.81,4.81,0,0,0,800.84,769.79Z" style="fill: #fff"/>
    <path d="M843.18,767.84v5.49a24.84,24.84,0,0,1,6.27-5.15,13.3,13.3,0,0,1,6.45-1.61,10.25,10.25,0,0,1,6.85,2.29,10.94,10.94,0,0,1,3.63,5.7c.49,1.72.73,5,.73,9.94V801q0,4.9.89,6.11c.59.8,1.82,1.31,3.7,1.52v1.64H850.22v-1.64a4.5,4.5,0,0,0,3.45-2c.48-.75.73-2.63.73-5.63V782.14a31,31,0,0,0-.41-6.58,4,4,0,0,0-1.39-2.11,3.45,3.45,0,0,0-2.15-.75q-3.91,0-7.27,5.58V801q0,4.77.89,6a4.49,4.49,0,0,0,3.29,1.59v1.64H825.88v-1.64a5.23,5.23,0,0,0,3.81-1.72q.78-1,.78-5.91v-24q0-4.81-.89-6c-.59-.78-1.82-1.3-3.7-1.54v-1.68Z" style="fill: #fff"/>
    <path d="M903.09,766.66l.68,14.48h-1.54q-2.78-6.45-5.75-8.81a9.54,9.54,0,0,0-5.92-2.36,4.47,4.47,0,0,0-3.18,1.25,3.85,3.85,0,0,0-1.32,2.88,3.74,3.74,0,0,0,.91,2.37q1.46,1.86,8.13,6.38t8.79,7.67a12.47,12.47,0,0,1,2.11,7.06,14.92,14.92,0,0,1-1.77,6.95,12.42,12.42,0,0,1-5,5.22,14.27,14.27,0,0,1-7.13,1.82,24.78,24.78,0,0,1-8.13-1.91,6.84,6.84,0,0,0-1.86-.5c-1,0-1.83.76-2.5,2.27h-1.49l-.73-15.26h1.54a19.72,19.72,0,0,0,5.61,9q3.57,3,6.74,3a4.9,4.9,0,0,0,3.57-1.34,4.34,4.34,0,0,0,1.38-3.24,5.58,5.58,0,0,0-1.36-3.77,35.81,35.81,0,0,0-6.08-4.82c-4.63-3.2-7.63-5.66-9-7.35a12.83,12.83,0,0,1-3-8.22,13.38,13.38,0,0,1,3.38-8.88q3.39-4,9.79-4a14.25,14.25,0,0,1,6.67,1.68,4.51,4.51,0,0,0,2,.68,2.37,2.37,0,0,0,1.32-.34,8.88,8.88,0,0,0,1.59-1.93Z" style="fill: #fff"/>
    <path d="M931.17,766.57a19.67,19.67,0,0,1,10.31,2.86,18.21,18.21,0,0,1,7.24,8.13,26.75,26.75,0,0,1,2.48,11.53q0,9-4.59,15.12-5.54,7.37-15.31,7.36-9.57,0-14.75-6.72a24.84,24.84,0,0,1-5.18-15.58,25.1,25.1,0,0,1,5.29-15.91Q922,766.57,931.17,766.57Zm.18,3.22a5.26,5.26,0,0,0-4,1.75q-1.67,1.76-2.18,6.9t-.52,14.33a61.55,61.55,0,0,0,.63,9.08,8.74,8.74,0,0,0,2.14,4.9,5,5,0,0,0,3.72,1.68,5.09,5.09,0,0,0,3.4-1.13,7.63,7.63,0,0,0,2.37-4.31q.9-4.32.9-17.44c0-5.15-.28-8.68-.86-10.6a8.08,8.08,0,0,0-2.54-4.21A4.81,4.81,0,0,0,931.35,769.79Z" style="fill: #fff"/>
    <path d="M973,748.72v52.77c0,3,.35,4.91,1,5.74s2,1.31,4.08,1.43v1.64H955.16v-1.64a5.54,5.54,0,0,0,4.18-1.63c.6-.7.91-2.55.91-5.54v-44q0-4.46-1-5.7c-.69-.83-2-1.31-4-1.43v-1.68Z" style="fill: #fff"/>
    <path d="M1016.84,787.55H993.55Q994,796,998,800.9a9.51,9.51,0,0,0,7.54,3.77,8.53,8.53,0,0,0,4.95-1.53,19.18,19.18,0,0,0,4.77-5.47l1.54,1q-3.45,7-7.63,10a16.43,16.43,0,0,1-9.67,2.93q-9.45,0-14.3-7.27-3.91-5.85-3.91-14.53,0-10.62,5.75-16.91t13.46-6.29a14.56,14.56,0,0,1,11.19,5.29Q1016.48,777.14,1016.84,787.55Zm-11.17-3c0-4.87-.26-8.22-.79-10a8.17,8.17,0,0,0-2.48-4.13,3.73,3.73,0,0,0-2.54-.82,4.46,4.46,0,0,0-3.86,2.31q-2.68,4-2.68,11.08v1.59Z" style="fill: #fff"/>
    <path d="M1029.35,796.31a7.56,7.56,0,1,1-5.34,2.23A7.28,7.28,0,0,1,1029.35,796.31Z" style="fill: #fff"/>
  </g>
</svg>
